<?xml version="1.0" standalone="no"?>
<!DOCTYPE svg PUBLIC "-//W3C//DTD SVG 1.1//EN" "http://www.w3.org/Graphics/SVG/1.1/DTD/svg11.dtd" >
<svg xmlns="http://www.w3.org/2000/svg">
<metadata>
This is a custom SVG webfont generated by Font Squirrel.
Designer    : Garth D Braithwaite
Foundry     : Garth D Braithwaite
</metadata>
<defs>
<font id="GTGFattie" horiz-adv-x="564" >
<font-face units-per-em="1000" ascent="750" descent="-250" />
<missing-glyph horiz-adv-x="500" />
<glyph unicode=" "  horiz-adv-x="500" />
<glyph unicode="&#x09;" horiz-adv-x="500" />
<glyph unicode="&#xa0;" horiz-adv-x="500" />
<glyph unicode="!" horiz-adv-x="245" d="M153 745q3 -30 4.5 -75.5t3 -98t2.5 -108.5l2 -109q1 -52 2.5 -95t3.5 -69q-22 -26 -42.5 -29t-40.5 29q-10 14 -17 57t-12.5 100t-9 122t-5.5 124t-3 104.5t0 64.5q9 16 25 18t32.5 -3.5t31.5 -15t23 -16.5zM218 -13q-19 -2 -30 -11.5t-30 -11.5l-22 20 q-13 10 -23.5 22.5t-16.5 27t-2 30.5q4 17 18 25.5t31.5 8t35.5 -8.5t30.5 -22t16 -34.5t-7.5 -45.5z" />
<glyph unicode="&#x22;" horiz-adv-x="272" d="M90 714q4 -15 9 -44.5t9 -59.5t6 -53l3 -22q1 -21 4 -42.5t3.5 -41t-3 -35.5t-14.5 -25q-30 -2 -45 8t-22 28t-8 42t-3 49l-5 50q-2 29 -2.5 58.5t3.5 56t15 44.5q18 4 29.5 -1t20.5 -12zM231 559q3 -39 2.5 -73t-19.5 -57q-18 0 -25 -2t-22 2q-7 19 -12.5 42t-10 47 t-7.5 46.5t-5 41.5l-15 92q11 24 21.5 30.5t33.5 3.5q15 -3 27 -20q5 -9 10 -34l10 -51q5 -31 12 -68z" />
<glyph unicode="#" horiz-adv-x="560" d="M249 468q5 -7 12.5 -7.5t15.5 1.5t16 4.5t15 1.5q6 16 8 36l6 38q2 18 7 34.5t17 26.5q15 5 30 1t29.5 -12.5t26.5 -19.5l22 -21q3 -14 1.5 -25t-4 -20t-6 -18t-4.5 -20q7 -8 16.5 -13t19.5 -9.5t19 -10t17 -12.5v-56q-9 -9 -25.5 -11.5t-33 -4.5t-29.5 -8t-16 -22 q14 -8 36.5 -10t43 -6.5t35.5 -16.5t14 -39q-1 -22 -15.5 -34t-35.5 -20t-45.5 -14t-43.5 -16q-5 -14 -5.5 -31t2 -34.5t7 -34t7.5 -29.5q-19 -42 -43.5 -47t-46.5 13.5t-36.5 55t-12.5 76.5q-5 -9 -6.5 -21.5t-2 -25.5t-1.5 -26.5t-4 -24.5q-12 -5 -22.5 -11t-22 -10.5 t-24 -6t-28.5 2.5q-12 23 -26 41.5t-26 42.5q-40 -12 -75.5 -13.5t-61 11t-39 39.5t-10.5 72q13 13 35.5 17t47.5 6l51 3q25 1 45 8q-1 7 1.5 12.5t4 9.5t1 7.5t-6.5 8.5q-4 7 -11 7.5t-15 -1.5t-16 -4.5t-15 -1.5q-26 23 -40 57t-12 84q9 12 22.5 15t29.5 2t34 -3.5 t37 -0.5q13 19 16 44.5t3.5 52t3 50.5t15.5 40q19 0 31.5 -6.5t23 -15t20 -17t22.5 -13.5q4 -29 5.5 -49.5t-5.5 -47.5zM224 269q19 -2 32 3l25 11v38l-22 -4q-12 -2 -21 -7t-13 -14.5t-1 -26.5z" />
<glyph unicode="$" horiz-adv-x="557" d="M475 485q-16 -6 -34 -14.5t-37.5 -14.5t-39.5 -8t-40 4q3 19 9.5 33.5t12.5 29.5t9.5 33t0.5 43q-15 8 -39 6.5t-51 -11t-54 -25.5t-47.5 -36.5t-32 -44.5t-7.5 -49q3 -21 21 -36.5t43.5 -28t55.5 -23.5l59 -24q25 -10 52 -22.5t52 -26t46 -28t35 -28.5q8 -9 21 -31.5 t22.5 -51.5t12.5 -60t-10 -56q-23 -42 -79.5 -60t-131.5 -13q-55 4 -108.5 16t-100.5 30t-85.5 41.5t-63.5 51.5q8 16 11 36t9 37q22 8 38.5 5t31.5 -10.5t31.5 -14.5t37.5 -7q11 -4 14.5 -15t11.5 -17q25 -7 60.5 -15t72.5 -11t69 3.5t49 29.5q2 18 -3 29.5t-12.5 20.5 t-16 16.5t-14.5 18.5q-39 15 -83 30t-86.5 33t-81.5 39.5t-67 50.5t-42.5 66t-9.5 86q4 34 23.5 68.5t50 65t69 54.5t79.5 36.5t83 12t79 -19.5q12 -6 25 -20.5t27 -25.5q18 -14 32.5 -21t20.5 -19q9 -17 10.5 -32t-0.5 -31t-5.5 -34t-4.5 -41zM237 763q30 4 46.5 -5.5 t23.5 -29t6.5 -47.5t-4 -60.5t-8 -68.5t-5.5 -72q-2 -61 -4.5 -127t-0.5 -126q3 -47 10 -85l15 -74q7 -35 11 -68t-2 -68q-17 -14 -31 -11t-26 15t-22 28l-17 29q1 31 -2.5 64t-8.5 67t-9.5 69t-5.5 71q-2 51 2 109.5t6 118.5q1 35 1 72t0.5 71.5t4 64.5t12.5 51q4 2 3.5 7 t4.5 5z" />
<glyph unicode="&#x26;" horiz-adv-x="407" d="M242 726q9 -23 13.5 -56t-2.5 -60q-16 0 -20 -9q-15 1 -27 13.5t-20 29.5t-10 35.5t3.5 32t21 19t41.5 -4.5zM315 407q-8 -3 -15.5 1t-14.5 11.5t-14 16t-13 14.5q-38 -14 -64 -40.5t-48 -57.5q9 -2 22 2l27 7q14 3 28 3t26 -8q14 -20 16.5 -44.5t-11.5 -40.5 q-7 -8 -19 -11.5t-23 -11.5q-16 -12 -31.5 -26t-28.5 -30t-22 -32.5t-12 -33.5q8 -10 19.5 -13t23.5 -2.5t23 3t19 3.5q17 2 34.5 8.5t35.5 11.5t35.5 6t35.5 -8q0 -27 -10 -43.5t-25.5 -27t-36 -16.5t-41.5 -11q2 -15 -1.5 -30t-8.5 -30t-9.5 -30.5t-4.5 -31.5 q0 -11 9 -21.5t11 -20.5q0 -16 -11.5 -32.5t-21.5 -24.5q-27 9 -42.5 31t-21 50t-2 59.5t13.5 61.5q-14 4 -25 9t-20 12t-17 16.5t-18 23.5l-21 28q-10 14 -12 34q-2 19 4 35.5t15.5 31.5t21 29t21.5 29q-5 10 -11 18l-12 14q-5 6 -10 13t-6 17q-4 24 6.5 51.5t29.5 53.5 t45.5 49t55 37.5t57 19.5t51.5 -5q13 -6 23.5 -20t14.5 -32t-0.5 -38t-19.5 -37z" />
<glyph unicode="'" horiz-adv-x="152" d="M127 712q1 -19 0 -34.5t-2.5 -30.5t-4 -31.5t-3.5 -35.5q-1 -18 -1 -36.5t-2.5 -33.5t-10 -24.5t-23.5 -9.5q-18 0 -27 14.5t-12.5 38t-3 52.5t1.5 58.5t1.5 56.5t-3.5 45q-1 5 1.5 7t3.5 7q17 1 29.5 -2t22.5 -9.5t18 -14.5z" />
<glyph unicode="(" horiz-adv-x="331" d="M273 672l-57 -116q-30 -59 -53 -115.5t-34.5 -107.5t-2.5 -93l14 -72q8 -37 19 -72t26.5 -64t39.5 -44q11 -8 24.5 -12t26.5 -8.5t24.5 -11.5t19.5 -21q-18 -35 -41 -46t-48 -4.5t-51 27t-50.5 47.5t-45.5 57t-37 56q-11 39 -17.5 74t-8.5 73q-6 62 2.5 121.5t26 115 t39.5 106t43 93.5q8 7 12 14l6 12q3 6 7.5 12.5t13.5 13.5q2 7 10 12t14 7q29 -5 48 -19.5t30 -34.5z" />
<glyph unicode=")" horiz-adv-x="343" d="M37 -47q9 16 20 25t23 16l24 14q12 7 23 20q16 18 28.5 45t22 59t15.5 66.5t8 67.5q6 75 -2.5 147t-31.5 126q-12 28 -29 51l-33 46q-15 22 -27 43.5t-13 46.5q8 5 9.5 14.5t12.5 11.5q28 1 46.5 -3.5t33 -15.5t26.5 -28t26 -40q22 -37 41 -78t34 -98q10 -42 15.5 -90 t5.5 -97.5t-5.5 -98.5t-15.5 -94q-8 -35 -17.5 -61.5t-22.5 -48t-29.5 -40t-39.5 -37.5t-46.5 -30t-43.5 -9.5t-35.5 18t-22.5 52.5z" />
<glyph unicode="*" horiz-adv-x="485" d="M246 786q8 -9 9.5 -22.5t4.5 -25.5q32 8 57.5 1.5t42.5 -21.5q11 1 25.5 1.5t28.5 -1t25.5 -6.5t17.5 -14q-2 -26 -17.5 -38.5t-37.5 -18.5t-46.5 -10t-43.5 -11q8 -12 21.5 -18t28 -10.5t28 -10.5t21.5 -18q0 -15 -3.5 -29.5t-11.5 -22.5q-20 2 -36 7.5t-31 11.5 t-30.5 10.5t-32.5 6.5q-6 -14 -3 -29t7 -30t5 -29t-9 -26q-12 0 -20 -2t-16 -2l-20 27q-10 13 -17 29t-10 36t1 48q-14 -8 -23.5 -18.5t-17.5 -21t-16.5 -19.5t-19.5 -15q-10 -4 -17 1t-13.5 14t-13 19t-14.5 18q-6 10 -14 18t-14.5 16t-11 16t-2.5 18q2 9 9.5 13.5t18 7 t23.5 4.5t27 6l-20 24q-12 15 -20 31t-7 31.5t21 27.5q22 -2 36.5 -11t26.5 -20l24 -23q12 -12 27 -20q8 8 6.5 21t-4.5 28t-3 29.5t12 25.5q20 0 32.5 -0.5t29.5 -3.5z" />
<glyph unicode="+" horiz-adv-x="634" d="M341 386q35 0 76 7t77 7.5t63 -12t35 -50.5q-21 -18 -52 -27t-66 -15t-70 -11t-63 -15q0 -23 3 -43t6.5 -39t6.5 -39t3 -43q-2 -9 -5 -12.5t-6 -4.5t-5.5 -0.5t-2.5 -2.5q-39 -3 -61 9t-33 33.5t-13.5 51t-2.5 62.5q-23 3 -51.5 -3.5t-57 -11t-55 -1.5t-47.5 23 q-12 29 -7 47t21 28.5t40 15.5t50.5 8.5t53 6.5t46.5 10q10 68 0 136q18 18 32.5 15.5t27 -14t24.5 -26.5t25 -22q6 -11 7 -29.5t1 -38.5z" />
<glyph unicode="," horiz-adv-x="151" d="M-21 -218q-7 7 -10.5 16t-6.5 18l-6 18q-3 9 -7 16q11 18 30 32t36.5 30t29.5 36.5t9 51.5q-2 10 -9 19l-13 19q-6 10 -11 22t-5 27q3 13 10 20t15.5 8.5t17 0t13.5 -4.5q8 -4 15.5 -13t14 -19.5t11.5 -21.5t8 -19q10 -36 10 -64t-10 -65q-17 -48 -55 -83t-87 -44z" />
<glyph unicode="-" horiz-adv-x="446" d="M419 262q-7 -4 -4.5 -12.5t-4.5 -19.5q-8 -8 -14.5 -12t-15.5 -5.5t-21.5 -1t-32.5 0.5q-78 -3 -147.5 -7t-130.5 3q-3 7 -8.5 14t-9 14.5t-4.5 16t4 18.5q14 17 37.5 19.5t43.5 2.5q34 3 61 3.5t52.5 0.5t51.5 1t58 4q12 1 25.5 1t25.5 -4.5t21.5 -13t12.5 -23.5z" />
<glyph unicode="." horiz-adv-x="181" d="M35 107q12 5 23.5 11t23 9t23.5 2t25 -8q15 -10 21 -27t6.5 -36.5t-2 -39t-5.5 -35.5q-14 -19 -30.5 -23t-33 2.5t-30.5 21.5t-22 35t-9 43t10 45z" />
<glyph unicode="/" horiz-adv-x="451" d="M418 720q8 -14 9.5 -26.5t3.5 -24.5q-5 -11 -14 -18.5t-20 -15.5l-48 -82l-45 -80q-63 -121 -120 -247t-107 -257q-24 -7 -41 3t-31 30q8 23 18.5 44.5t19.5 43.5q8 18 16.5 33.5t16.5 35.5q28 68 62 142l68 143q32 63 70 125t63 132q5 2 5.5 5t4.5 5q12 8 33.5 11.5 t35.5 -2.5z" />
<glyph unicode="0" horiz-adv-x="687" d="M350 628q32 26 63.5 31t62 -5t58.5 -33t53 -53q38 -45 57.5 -103.5t20.5 -121t-17 -124.5t-55 -114q-44 -59 -100.5 -94.5t-119 -43.5t-125.5 13.5t-120 75.5q-29 28 -54 64.5t-40.5 82.5t-19.5 102.5t10 124.5q3 18 9 41t13.5 46.5t16 45.5t17.5 39q11 19 25 32l29 26 q15 13 30.5 28t29.5 38q54 -5 91 -32.5t65 -65.5zM160 205q16 -28 43.5 -46t60.5 -26t68 -6.5t65 13.5q-30 39 -54 86t-46 96l-43 98q-22 49 -47 92q-20 -35 -36 -74.5t-24.5 -80t-6.5 -79.5t20 -73zM475 205q27 16 45.5 45t26.5 65t4 74.5t-22 72.5q-21 22 -43.5 26.5 t-46.5 4.5t-48 1t-48 18l28 -83q13 -42 28 -82.5t33.5 -76.5t42.5 -65z" />
<glyph unicode="1" horiz-adv-x="357" d="M311 179q3 -23 13 -39l20 -32q9 -14 15.5 -28t3.5 -30q0 -13 -8.5 -26.5t-20.5 -25t-25 -18.5t-22 -7q-23 0 -40 17.5t-29 41.5t-19.5 49.5t-10.5 42.5q-10 32 -12.5 76t-0.5 91.5t7 94.5l8 87l-36 -33q-20 -18 -41 -29.5t-42.5 -11t-40.5 26.5q-29 36 -24 63t30 51 t61 46t69 48q10 9 17 14l13 9l10 9q5 4 10 11q7 7 9 3.5t10 -3.5q5 -8 10.5 -10t5.5 -8q27 -12 45.5 -25.5t31.5 -25.5q10 -39 5.5 -90.5t-12.5 -108.5t-13.5 -116t3.5 -114z" />
<glyph unicode="2" horiz-adv-x="577" d="M258 142q25 -6 53 1l59 17q31 9 64 14.5t68 -4.5q23 -6 39.5 -26.5t21 -45t-6 -48.5t-41.5 -36q-10 -4 -21 -4t-24 1l-26 3q-13 2 -28 0q-34 -3 -62 -7.5t-54 -11t-51.5 -16.5t-55.5 -24q-14 -8 -25.5 -18t-22.5 -18.5t-22 -14.5t-23 -6q-17 0 -33.5 8t-28.5 23t-18 37 t-3 50q2 21 4.5 35.5t13.5 35.5q7 16 16.5 30.5t14.5 24.5q29 47 66 89l74 87q36 44 65.5 94.5t42.5 113.5q-22 15 -38 15t-29.5 -8.5t-25.5 -22.5t-24.5 -26.5t-27 -21t-32.5 -5.5q-13 1 -25 9.5t-21 22.5t-14 31.5t-4 36.5q1 40 24.5 68t59 43.5t78.5 18t83.5 -7t73.5 -32 t49 -56.5q10 -53 6 -97.5t-18 -83.5t-35.5 -73.5t-45.5 -66.5l-47 -64q-24 -31 -43 -64z" />
<glyph unicode="3" d="M391 444q53 -21 88.5 -61t59.5 -94q2 -81 -14.5 -137t-47 -92.5t-74 -57t-95.5 -30t-110.5 -11.5t-119.5 -2q-12 10 -23 22t-19.5 29t-12 39.5t0.5 53.5q23 25 55 28.5t67 -1t71 -10t68 2.5q26 3 45.5 14t34.5 28t27 39t23 46q-18 31 -41.5 39t-51 4.5t-57 -12.5 t-58.5 -13q-11 10 -20 27t-14.5 36t-6.5 39.5t4 38.5q12 17 26 29l28 25q13 13 25.5 27.5t20.5 35.5q-30 16 -64.5 11.5t-72.5 -18.5q-15 -10 -27.5 -21.5t-24 -21t-22 -16t-22.5 -6.5q-14 4 -27 14.5t-23 27.5t-15 41t-3 54q19 31 54 53.5t78 35.5t90 15.5t90 -5t77.5 -26 t52.5 -49t15 -73.5t-35 -98z" />
<glyph unicode="4" horiz-adv-x="496" d="M473 48q-7 -11 -13 -24t-12.5 -24.5t-14 -19t-16.5 -7.5q-21 -2 -35.5 13.5t-23 41.5t-13 61t-6.5 72.5t-2 75.5v69q-24 -10 -50 -14t-52.5 -6.5t-52 -4.5t-47.5 -9q-15 -8 -26 -18.5t-25 -10.5q-14 4 -27.5 18t-24 31.5t-18 36t-10.5 31.5q-2 40 8 80.5t25 79.5l28 76 q14 37 19 70q19 7 33.5 3t26.5 -12.5t24 -19t27 -16.5q2 -36 -4 -60.5t-15 -42.5l-19 -36q-10 -17 -16 -39q20 -7 44.5 -4.5t50 5.5t51.5 2t50 -14q5 26 5.5 59.5t2 67.5t6.5 64t20 50q17 0 35 -5t33 -14t26 -22t16 -29q2 -20 -2 -48.5t-10 -61.5t-12 -70t-9 -74 q-2 -47 -2 -87t3 -76.5t9 -70.5t15 -67z" />
<glyph unicode="5" horiz-adv-x="534" d="M521 599q0 -18 -2.5 -28.5t-9 -17.5t-18 -12t-29.5 -12q-47 1 -82 -2t-67 -7l-68 -9q-36 -4 -84 -7q-3 -8 -3.5 -15.5t-0.5 -16t-1 -17.5t-7 -21q35 -6 65 -7t59 -6q46 -12 91.5 -42t78.5 -71.5t47.5 -90.5t0.5 -98q-17 -59 -62.5 -95t-106.5 -48t-130 -0.5t-132 46.5 q0 12 -3 22.5t-6.5 21.5t-5 23.5t1.5 30.5q36 18 74 12.5t74.5 -15t71 -14t63.5 13.5t36 40t-2 43.5t-30.5 40.5t-49.5 32t-59.5 18t-59.5 -2q-13 -3 -26 -13t-27 -19.5t-29 -16t-33 -3.5q-8 1 -17 10t-17.5 22t-13.5 28.5t-5 31.5q-3 21 0.5 45.5t9.5 49.5l11 51q5 25 5 45 q-1 15 -4.5 32t-4.5 35t2.5 35.5t15.5 33.5q33 0 53.5 -1t40.5 -1.5t45.5 1t68.5 5.5q42 4 84.5 11t80 5t67.5 -18.5t49 -58.5z" />
<glyph unicode="6" horiz-adv-x="547" d="M500 508q-17 -9 -31.5 -11t-27.5 1t-26 8t-27 9q-58 17 -100 12t-71 -25t-46 -51.5t-25 -66.5t-9 -71t3 -64q12 -3 24.5 2.5t26.5 13.5t29 17.5t32 14.5q24 8 56 8.5t64.5 -6.5t63 -22t52 -36.5t32 -50t2.5 -63.5q-5 -28 -29 -55.5t-54.5 -49t-63 -33.5t-54.5 -8 q-65 2 -124.5 31t-104 76.5t-68.5 110t-18 132.5q3 50 13 95.5t26.5 84t39 68t51.5 46.5q21 13 58 23t77 16t76.5 8t56.5 -1q27 -6 51 -19.5t38.5 -34t17.5 -48t-11 -61.5zM267 127q14 0 28 -1t27 0.5t24 7t20 17.5q-12 9 -26.5 11t-29 -2t-26 -12.5t-17.5 -20.5z" />
<glyph unicode="7" horiz-adv-x="434" d="M368 643q12 -35 9.5 -66t-11.5 -60.5t-21 -59t-20 -60.5q40 -4 59 -16.5t22 -29t-7 -34.5t-28.5 -34t-43 -26.5t-49.5 -12.5q-16 -16 -22.5 -42.5t-9.5 -57.5t-5 -62.5t-9 -57.5t-21.5 -42t-41.5 -16q-31 3 -47.5 26.5t-21 55.5t1.5 68t20 65q-16 12 -33.5 23t-30.5 26.5 t-19 38.5t1 58q11 9 23.5 11.5t26 2.5t28 -0.5t29.5 3.5q17 17 27 41.5t18 51.5l16 55q9 28 24 52q-17 3 -24 5t-13 3.5t-16 1.5t-33 -3q-17 0 -34 -6.5t-34 -0.5q-17 3 -32 13.5t-24 27t-9.5 37t11.5 43.5q51 12 97.5 20.5t89 8.5t81.5 -11.5t76 -39.5z" />
<glyph unicode="8" horiz-adv-x="474" d="M354 405q20 -20 40 -48t35 -62t22.5 -72t1.5 -77q-3 -25 -12 -45.5t-22 -37.5t-28 -32l-30 -28q-57 -18 -110 -7t-95 40t-69.5 72t-33 90t15 94t73.5 83q-29 17 -49 42.5t-43 48.5q-3 17 -5.5 36.5t-2.5 38.5t3 36.5t12 30.5q18 9 37 22t41 25t48 19t57 4q3 0 20.5 -3.5 t37.5 -9.5l39 -10q18 -5 24 -8q23 -17 32 -47.5t7 -65t-14 -69t-32 -60.5zM179 504q6 -17 25 -24t36 -14q18 17 30.5 35.5t25.5 41.5q-12 6 -32 7t-38.5 -3.5t-32.5 -15t-14 -27.5zM272 314q-9 -17 -28 -32l-37 -32q-19 -16 -32 -34t-10 -41q5 -29 37.5 -42t85.5 -19 q25 12 36 42.5t8.5 63.5t-17.5 60.5t-43 33.5z" />
<glyph unicode="9" horiz-adv-x="494" d="M462 19l-15 -21q-7 -11 -15.5 -18.5t-19.5 -11t-27 -0.5q-27 4 -44.5 29.5t-27.5 63t-14.5 84t-5 92t1 86t3.5 67.5q-21 3 -42.5 -1t-43 -9t-43 -8t-42.5 2q-29 6 -53.5 27t-38.5 51t-16 66t14 71q16 31 47.5 55.5t69 36.5t77 10t71.5 -24q21 -17 43.5 -39t49.5 -39 q7 -3 17 -9.5t18 -15.5t14 -19.5t6 -20.5q3 -11 1.5 -23t-5 -25t-8 -26t-7.5 -25l-10 -53q-6 -27 -6 -54q0 -24 0.5 -52.5t2.5 -56t6.5 -51.5t13.5 -40q9 -23 16 -45t12 -54zM155 495q16 6 34 9.5t34 8.5t28.5 12.5t18.5 21.5q-13 13 -31.5 14t-36 -7.5t-31 -24t-16.5 -34.5 z" />
<glyph unicode=":" horiz-adv-x="202" d="M164 348q-25 -8 -47.5 0.5t-38.5 26t-24.5 39.5t-5.5 43q18 4 32 3.5t26 -3.5t24 -7t27 -7q16 -20 19.5 -42.5t-12.5 -52.5zM171 103q-5 -16 -7.5 -36.5t-13.5 -31.5q-30 -2 -51 6t-35.5 23t-23 36t-13.5 44q18 20 39 22t41 -7t36.5 -25t27.5 -31z" />
<glyph unicode=";" horiz-adv-x="264" d="M85 433q36 5 66 -2.5t47.5 -23t20 -38t-16.5 -48.5q-29 -2 -53 6.5t-40 24t-22.5 37t-1.5 44.5zM-3 -86q28 11 49.5 32.5t35.5 48.5t19.5 59t1.5 64q27 1 47.5 -2.5t33 -14.5t17 -30t-1.5 -49q-6 -35 -23.5 -68t-35.5 -61q-16 -18 -33 -33.5t-25 -15.5q-17 -4 -30 0.5 t-23 14t-18 24t-14 31.5z" />
<glyph unicode="&#x3c;" horiz-adv-x="538" d="M437 537q-76 -39 -143 -87.5t-130 -107.5q11 -12 23.5 -20t25.5 -15l27 -14q13 -7 27 -17q14 -5 24.5 -13.5t24.5 -18.5l32 -23l30 -22l34 -24l42 -29l27 -19q13 -9 23 -18.5t16 -20.5t6 -25q-1 -9 -7.5 -19.5t-18 -17.5t-26 -8.5t-30.5 6.5q-19 5 -26.5 21.5t-21.5 34.5 q-23 20 -60 41t-79 50l-72 50q-35 25 -67 35q-7 3 -15.5 4t-18 1.5t-18.5 2.5t-16 7q-9 5 -15.5 16t-10 24t-4 26t2.5 22q2 7 11 15.5t20 17.5t23 17l23 16q57 45 111 92t117 92l30 15q13 7 24.5 11.5t23.5 7.5t29 5q13 0 26.5 -6.5t23.5 -16.5t16 -21t6 -20 q0 -23 -20.5 -31t-49.5 -16z" />
<glyph unicode="=" horiz-adv-x="560" d="M524 392q-8 -10 -18 -15t-22 -7t-26 -3l-27 -2q-37 -5 -77.5 -7.5t-82.5 -3.5t-84 0t-81 3q-4 9 -11.5 17t-13.5 16t-9 18t2 24q3 10 22 15.5t47 8t62 2.5t67.5 -0.5t63.5 -0.5t50 2q25 1 54.5 -0.5t52 -8.5t33 -20.5t-1.5 -37.5zM23 288q7 6 16 7.5t18.5 1t20 -2 t19.5 0.5q32 1 64 4.5t65 7.5t69.5 6t77.5 0q14 -1 31.5 -1.5t32 -5t23 -13.5t3.5 -27q-1 -10 -14 -17.5t-32 -13.5t-39 -11l-34 -7q-27 -4 -63.5 -4.5t-78.5 -6.5q-32 -6 -66.5 -11t-61.5 0.5t-42 26t-9 66.5z" />
<glyph unicode="&#x3e;" horiz-adv-x="664" d="M64 91q103 55 199.5 115.5t181.5 132.5q-48 33 -103 59l-110 51q-55 25 -107.5 52t-95.5 62q3 10 1.5 19.5t-2.5 18.5t-1 16.5t6 12.5q21 12 42 9.5t42.5 -12.5t43.5 -25t44 -28q24 -14 54 -30l63 -30l64 -32l59 -28q15 -12 33 -19.5t34 -18.5q14 -6 36 -14.5t41.5 -19.5 t32.5 -26t9 -34q0 -10 -9 -18.5t-22.5 -16t-29 -14.5t-28.5 -14q-36 -23 -75 -53.5t-85 -56.5q-43 -29 -85.5 -52.5t-74.5 -46.5q-14 -10 -26.5 -22t-26.5 -21.5t-31.5 -13.5t-40.5 2q-23 7 -32 34.5t-1 61.5z" />
<glyph unicode="?" horiz-adv-x="400" d="M188 301q6 -6 11 -17t6.5 -23t-1.5 -22.5t-11 -16.5q-27 0 -50 16.5t-34 36.5q-14 22 -17.5 39t1.5 32t17 29.5t30 32.5l50 43q27 24 49.5 52t35 61t4.5 73q-24 10 -54.5 12t-57 -6t-43.5 -26.5t-15 -48.5q-18 0 -30 6t-21 15.5t-17.5 21t-18.5 21.5q4 36 27 58t56 31.5 t71 8.5t73.5 -11.5t64 -28.5t40.5 -42q17 -29 18 -58.5t-8 -53.5q-6 -18 -11.5 -31t-12 -24.5t-15.5 -23.5l-20 -28q-11 -12 -22 -28.5t-19 -25.5q-11 -10 -22 -17l-22 -16q-11 -7 -19.5 -17t-12.5 -24zM236 56q0 -16 -1 -34t-9 -30q-14 -4 -30 2t-29.5 15.5t-22.5 21.5 t-9 20q2 16 13.5 22.5t27 6t32 -7t28.5 -16.5z" />
<glyph unicode="@" horiz-adv-x="717" d="M588 445q24 -21 49.5 -58t42 -80t20 -86.5t-14.5 -79.5q-9 -18 -27 -39.5t-41.5 -41t-50.5 -33t-54 -16.5q-18 -2 -36.5 4.5t-37.5 4.5q-22 0 -45 -7l-48 -13q-24 -7 -50 -11t-54 2q-23 5 -42 24t-29 45t-8.5 55t21.5 55q26 9 50 12t48 3t49 -3t55 -7q7 38 5 64.5 t-28 36.5q-14 5 -35 -0.5t-42 -9.5t-37.5 0t-20.5 29q-3 20 9.5 33.5t33 21t44 9.5t42.5 -1q34 -5 62.5 -25.5t46.5 -52t23 -72t-6 -86.5q31 -4 58 18t42 56t13.5 74.5t-26.5 73.5l-47 41q-24 21 -50.5 36t-57 22t-66.5 2q-40 -6 -79.5 -32.5t-72 -65t-53.5 -85t-23 -92.5 q-1 -31 4.5 -63t17 -59.5t29 -49t41.5 -30.5q21 -9 44 -8.5t46.5 4.5t46.5 8.5t44.5 3.5t40 -10t33.5 -32q5 -7 1.5 -11.5t-9 -9t-11 -9.5t-4.5 -13q-67 -14 -112 -21t-85 -4q-20 2 -41.5 12t-42 23.5t-38 28.5t-28.5 28q-29 34 -49 80.5t-27.5 98t-1.5 104t29 99.5 q12 24 36 52.5t54.5 55.5t63.5 48.5t63 30.5q71 23 137 7.5t123 -50.5q18 -11 33.5 -19.5t29.5 -19.5zM249 73q12 0 27 3t30.5 8t30 12.5t23.5 15.5q-15 10 -35.5 10t-38.5 -6.5t-29 -18t-8 -24.5z" />
<glyph unicode="A" d="M587 10q-41 -22 -72.5 -12.5t-54.5 36.5t-38 63.5t-23 69.5q-25 -5 -52 -13t-54.5 -12.5t-55.5 -3t-55 15.5q-14 -17 -24 -36t-19 -38l-17 -40q-9 -20 -21 -39q-19 -11 -36 -10.5t-32 7t-27 17.5t-20 21q36 81 78 154l83 146q42 73 81 148t69 159q-6 13 -7 23t0.5 19 t4 19.5t2.5 25.5q50 8 82 -8.5t51 -50.5t28 -81t13.5 -99t6.5 -104t8 -97q5 -54 18 -105t24 -83q8 -14 18 -25l19 -20q9 -9 15.5 -20t6.5 -27zM238 240q14 -3 31.5 -1.5t35.5 4.5l36 6q18 3 34 3q0 24 -3.5 50.5t-6.5 53.5t-4.5 52.5t1.5 47.5q-7 0 -11.5 2t-10.5 2 q-26 -53 -55.5 -104.5t-46.5 -115.5z" />
<glyph unicode="B" horiz-adv-x="674" d="M402 472q48 -14 91.5 -32.5t77.5 -47.5l27 -46q14 -24 25 -48.5t17 -51.5t5 -57q-2 -48 -22.5 -82.5t-55.5 -58t-80.5 -36t-97.5 -17t-107.5 -1t-109.5 12.5q-40 26 -72.5 58t-55.5 77q0 9 4 14.5t10 9.5l11 7q5 3 9 9q-14 83 -16 154.5t-4 135.5q-15 1 -18 -6t-1 -16 l3 -18q1 -9 -5 -13q-17 -15 -40.5 -11.5t-44.5 19t-34.5 40t-8.5 53.5q4 24 22 50.5t46 52t64 48t74.5 38.5t77.5 23.5t74 3.5q24 -3 49 -13t46.5 -25.5t37.5 -35t22 -41.5q5 -17 4 -33.5t-5 -34t-9.5 -37.5t-9.5 -44zM139 574l40 -51q20 -25 34 -57q7 19 19 35l23 31 q11 15 20 33t12 42q-21 9 -41 7t-39 -9t-36 -16t-32 -15zM497 176q8 16 11.5 35t3 38t-4.5 35.5t-10 26.5q-15 24 -44 33.5t-63.5 8.5t-69 -11t-59.5 -25l-31 10l-30 10q0 -30 0.5 -59.5t3.5 -57t9.5 -51.5t19.5 -41q33 -12 73 -16t77.5 1t68 20t45.5 43z" />
<glyph unicode="C" horiz-adv-x="613" d="M421 625q-34 4 -73 -16.5t-73.5 -57t-60.5 -84.5t-34 -97q-5 -33 -3 -75t10 -81t22.5 -69t34.5 -39q10 -5 24 -5.5t28.5 1.5t28.5 5l25 7q12 4 23 10.5t21 13.5t20 12.5t22 6.5q18 2 42.5 -2t44.5 -16t30.5 -32t1.5 -50q-6 -20 -30 -33.5t-56.5 -22.5t-68 -14t-63.5 -7 q-77 -7 -136.5 18t-91.5 67q-17 21 -33 50.5t-28.5 62.5t-21 67.5t-9.5 66.5q-5 78 16 147.5t55 122.5q17 27 42.5 54t52.5 49.5t53 38.5t44 22q39 11 77.5 10t74 -12t65.5 -31t52 -46l17 -22q9 -12 16.5 -24t12 -24t3.5 -22q-3 -23 -17.5 -33t-34.5 -10.5t-40.5 7 t-35.5 21.5l-8 16q-7 13 -12 20q-8 9 -13 17.5t-16 11.5z" />
<glyph unicode="D" horiz-adv-x="833" d="M350 7q-14 -7 -20 -17l-13 -21q-6 -11 -14.5 -19.5t-24.5 -12.5q-11 -3 -20 -2.5t-18.5 3t-20.5 4.5t-25 2q-7 18 -16.5 33.5t-20 31t-20 32t-15.5 36.5q-18 57 -27.5 123t-16 135.5t-14 139.5t-20.5 135q-30 -6 -62.5 -17t-63.5 -19.5t-59.5 -11t-49.5 8.5t-34 38.5 t-13 78.5q94 42 202 60t215 12.5t206 -33t176 -77.5q46 -30 88.5 -72.5t75.5 -90.5t54.5 -97t24.5 -93q2 -33 -3.5 -60t-15.5 -52t-22 -49t-22 -50q-32 -27 -77 -44.5t-96.5 -26.5t-107.5 -11t-110 3zM255 156q64 -10 129.5 -12.5t121 8t94 37.5t47.5 77q11 55 -3.5 103 t-47 88t-80 71t-103.5 51.5t-116.5 30t-119.5 7.5q23 -44 34.5 -100t18 -117t11 -123.5t14.5 -120.5z" />
<glyph unicode="E" horiz-adv-x="636" d="M483 598q-28 15 -60 13t-64.5 -16t-63 -37t-56 -50t-44 -55t-26.5 -51q8 -7 28.5 -7.5t44.5 0.5t48 1t39 -7q22 -24 31 -61q-12 -20 -33 -31t-48 -16.5t-58 -6.5t-64 -1q-3 -31 4.5 -59.5t21 -52t33 -40.5t40.5 -26q1 -1 7 -3t13 -4t13.5 -3.5t8.5 -1.5q21 0 42 10t41 22 t39 21.5t38 7.5q15 -2 26.5 -10.5t20.5 -20t16 -23.5l11 -20q-18 -25 -44.5 -47t-59.5 -37t-72 -19.5t-82 5.5q-39 9 -72.5 31.5t-61.5 51t-51 58.5l-43 55q-30 89 -26.5 167t31 142.5t74.5 115t106 86.5q24 14 57 29.5t70 24.5t75.5 7.5t74.5 -19.5q15 -8 39 -29.5 t43 -50.5t24.5 -61.5t-15.5 -61.5q-6 -8 -15.5 -11t-20 -4t-19 0.5t-12.5 3.5q-26 11 -36 36t-13 55z" />
<glyph unicode="F" horiz-adv-x="594" d="M673 740q18 -15 31.5 -34t24.5 -41q-2 -11 -8 -17.5t-13.5 -11.5t-15.5 -9.5t-13 -11.5q-60 -1 -119 -7t-115.5 -14.5t-108.5 -18.5t-97 -17q-4 -13 -6 -32t-3.5 -38.5t-2.5 -35.5t-3 -23q25 -6 50 -2t52 10t55.5 10t61.5 0q17 -15 28.5 -34t21.5 -41q-24 -21 -56.5 -34 t-68.5 -22t-74.5 -15.5t-75.5 -15.5q-3 -41 -1.5 -77t4.5 -70.5t6.5 -68.5t4.5 -71q-16 -9 -34.5 -15.5t-47.5 -2.5q-11 6 -18 15t-12 19l-12 21q-6 11 -13 20q-5 24 -4.5 52t2 57t2 58.5t-5.5 56.5q-3 13 -10 23l-14 21q-7 10 -12 20.5t-3 22.5q2 10 7 16t12 11t14 9.5 t12 11.5q-4 36 0 65.5t6 60.5q-7 14 -23 20l-33 10q-5 26 -12.5 47.5t-12.5 47.5q15 9 33.5 15.5t47.5 2.5q9 39 28.5 52t58.5 5q10 -2 18 -8.5t15 -14t14 -13.5t15 -8q19 -5 42 -2.5t48 7.5t51 11t52 8q62 5 120.5 6.5t109.5 13.5z" />
<glyph unicode="G" horiz-adv-x="666" d="M585 634q-23 -19 -44.5 -19t-44 6t-47 10.5t-54.5 -4.5q-19 -5 -43.5 -19.5t-49.5 -34.5t-47 -43.5t-36 -46.5q-27 -44 -39.5 -91t-11.5 -92t15.5 -86t41.5 -72q9 -9 15.5 -14t12.5 -8.5t12 -5.5l17 -5q25 -7 57.5 -5.5t60.5 10.5t45.5 25.5t12.5 39.5q-24 -6 -52 -8 t-51 7t-36 31.5t-6 64.5q24 8 50 21l55 26q28 13 56 23t54 10.5t50.5 -10t44.5 -39.5q-3 -38 -9.5 -79t-12 -84.5t-7.5 -89.5t3 -93q3 -24 10 -45t16 -39l17 -37q9 -19 14 -38q-13 -12 -24 -26t-26 -24q-10 -1 -17 1l-14 4q-7 2 -14.5 3t-17.5 -1q-20 21 -34 49t-23.5 60.5 t-17.5 67.5l-14 69q-84 -13 -154 -4.5t-124 47.5q-26 20 -44.5 44.5t-36.5 57.5l-27 47q-12 22 -20 48.5t-11.5 58t1.5 73.5q7 69 42.5 134.5t86 116.5t110 83.5t114.5 37.5q29 3 60.5 -1t59.5 -17t48.5 -36t27.5 -59z" />
<glyph unicode="H" horiz-adv-x="589" d="M575 26q-17 0 -22.5 -12t-8.5 -26q-13 1 -24 0l-21 -3q-11 -2 -21.5 -2t-20.5 5q-18 29 -28.5 65.5t-17 77t-10 83.5t-7.5 86q-25 -2 -52.5 -15t-59.5 -23q-32 -9 -65 -16l-65 -15q-4 -21 -1.5 -44t8.5 -46t15 -44l16 -39q-11 -11 -23 -21t-21 -23q-49 -5 -78 20t-40 67 q-9 33 -11 76.5t-0.5 92.5t5.5 100l8 99q4 48 6 91t-1 76q17 16 38.5 18t42 -5.5t37.5 -21.5t24 -29q1 -62 -1.5 -120t-17.5 -104q28 -5 53 1t51 14.5t55 14.5t65 2q0 33 2.5 74.5t4.5 86.5q0 23 -1.5 46.5t-2.5 46t1 43t8 38.5q21 5 44.5 4.5t43.5 -7t35.5 -19.5t20.5 -33 q3 -13 1.5 -31t-4.5 -39l-6 -44q-4 -24 -5 -49q-3 -67 -1.5 -135.5t7.5 -133t17 -123t28 -105.5z" />
<glyph unicode="I" horiz-adv-x="689" d="M354 615l3 -69q1 -40 2 -87t1.5 -97t1.5 -96.5t1.5 -86t1.5 -65.5q17 -3 46 0t63.5 7t70.5 6t66.5 -3t52 -19t26.5 -43q2 -9 -4.5 -13t-11.5 -8q-12 -10 -26 -14t-31.5 -5t-37 -1t-41.5 -1q-56 -4 -121.5 -14.5t-131.5 -18t-128 -8t-110 14.5q-16 21 -26 46.5t5 58.5 q18 9 46 9t58.5 -4t60.5 -8.5t53 -2.5q5 42 5 104.5t-1.5 131t-3.5 135t0 114.5q-20 1 -46.5 -3.5t-54 -8.5t-53.5 -5t-45 8t-28 31t-3 62q53 3 115.5 18.5t129 30t134.5 20t134 -10.5q34 -10 55 -21t40 -37q8 -12 14 -18t1 -19q-6 -23 -22.5 -26t-37 3.5t-42.5 16t-39 12.5 q-42 5 -75.5 -3.5t-66.5 -12.5z" />
<glyph unicode="J" horiz-adv-x="616" d="M716 749q16 -36 11 -58.5t-23.5 -36t-47.5 -21t-60.5 -12.5t-61 -10.5t-50.5 -15.5q36 -37 55 -87.5t23.5 -106.5t-4.5 -114t-28.5 -109.5t-49 -93t-66.5 -64.5q-27 -11 -58.5 -22.5t-65.5 -19t-68.5 -9t-66.5 8.5q-30 9 -58.5 29t-46 49.5t-20 66.5t19.5 79 q38 10 58.5 1.5t34 -24t24.5 -33.5t31 -27q28 -9 54.5 1.5t49.5 25.5q28 19 57 59t46.5 88.5t17.5 100.5t-29 96q-9 13 -21.5 22t-25.5 16l-27 16q-13 9 -24 23q-35 -7 -73 -15.5t-76.5 -13t-75.5 -2.5t-70 17q-6 12 -13 28t-11 33.5t-4 36t7 36.5q63 -6 126 1.5t125 20.5 t123 27.5t122 23.5t121 8t119 -19z" />
<glyph unicode="K" horiz-adv-x="753" d="M172 514l54 29l64 37l69 41l66 41q25 16 44 31.5t40 17.5q21 3 45.5 -3.5t44.5 -20.5t31 -35t5 -47q-3 -14 -22.5 -28t-44.5 -28l-49 -26q-25 -13 -38 -22q-22 -16 -51 -32l-61 -33q-31 -18 -59 -36.5t-47 -39.5q115 -44 225 -91t217 -98q22 -19 31 -40.5t5.5 -42 t-20 -38t-44.5 -27.5l-118 67q-59 32 -122.5 61t-132 52t-146.5 38q-3 -22 -2.5 -50t4 -56.5t8.5 -56t11 -48.5l-18 -20q-9 -10 -20 -17.5t-24 -11t-29 -0.5q-34 6 -51 38.5t-23.5 78.5t-5.5 99t3 100q1 34 3 70.5t3.5 72t1.5 69t-2 61.5q-1 18 -5 37.5t-8 36.5t-7 31t-1 22 q7 33 28 43t45.5 5.5t47.5 -20.5t34 -35q7 -19 10.5 -42.5t5.5 -47t3 -46t2 -40.5z" />
<glyph unicode="L" horiz-adv-x="562" d="M207 671q-30 -126 -47 -269t-7 -294q40 -5 85 2l89 16q45 8 90.5 11t89.5 -11q9 -12 15.5 -25t8.5 -26t-2 -26t-17 -25q-47 -12 -96 -13.5t-102 -11.5q-32 -5 -63.5 -13.5t-62.5 -15t-62 -8t-63 7.5q-12 9 -18 20.5t-9.5 27.5t-5.5 36l-3 48q-3 34 -5 63.5t-2.5 58.5 t-0.5 60.5t2 69.5q3 72 15.5 141t20.5 128q2 15 2 29v27q0 13 2 23t9 16q15 17 36 17t41 -10t36.5 -25.5t23.5 -28.5z" />
<glyph unicode="M" horiz-adv-x="774" d="M783 61q4 -15 9 -27l11 -24q5 -11 8 -20.5t2 -19.5q-2 -24 -19 -40.5t-35 -14.5q-15 1 -30 20.5t-27.5 45t-21.5 51.5t-13 41q-9 39 -13.5 78t-7.5 78l-6 75q-3 37 -9 73q-9 2 -15 -4.5t-11 -15.5q-17 -49 -35.5 -80t-32.5 -49l-9 -9q-4 -4 -10 -8q-5 -5 -8.5 -8t-6.5 -5 q-4 -3 -6 -3q-52 22 -98 50t-88 59.5t-82 65.5l-80 68q2 -27 0 -61t-4.5 -72.5t-3.5 -81.5t2 -89q2 -24 6 -49t3.5 -46t-9 -35t-30.5 -16q-28 -2 -45.5 23t-27 62.5t-13.5 80.5t-6 77q-2 52 1.5 108.5t-1.5 110.5q-5 64 -22.5 126t-31.5 119v12q33 11 58.5 3.5t45 -24.5 t35.5 -39l31 -43q57 -75 131 -142t162 -115q35 29 62 69l52 80l38 70l30 51q14 24 19 29q19 6 37 4.5t34 -8t29 -17t22 -21.5q-7 -59 -9.5 -129.5t1 -143.5t12.5 -143t26 -127z" />
<glyph unicode="N" horiz-adv-x="717" d="M660 28q-20 -29 -44.5 -32t-50 9t-50 34t-44.5 43q-39 39 -79 88l-78 99l-72 98q-35 48 -65 84q0 -24 -5 -59l-9 -76q-5 -41 -8 -85t1 -87q3 -28 7 -58t2.5 -54.5t-12 -41t-38.5 -18.5q-20 -1 -30 5.5t-17.5 17t-15 23t-20.5 22.5q-8 61 -5 120t9 119l12 121q6 61 6 126 q0 15 1 32t-1 29q-5 24 -17 41l-22 34q-11 17 -15.5 34.5t5.5 41.5q37 15 66.5 5.5t53.5 -32.5t44.5 -53.5t41.5 -56.5l79 -108l79 -114q40 -57 82 -109t87 -92q7 52 13 116.5t7 132t-4.5 134.5t-22.5 123q-4 13 -11 25.5t-14.5 24.5t-13.5 23t-8 22q-9 52 9 78.5t66 15.5 q21 -5 38 -28.5t29.5 -56.5t21 -70t12.5 -68q6 -35 9.5 -73t5.5 -75.5t3.5 -73t3.5 -66.5q4 -96 -3 -174.5t-19 -159.5z" />
<glyph unicode="O" horiz-adv-x="662" d="M331 755q48 8 86.5 -8t69.5 -46.5t55 -69.5t43 -78q16 -33 32.5 -76.5t24 -91.5t3.5 -97.5t-28 -95.5q-11 -20 -34.5 -46.5t-56.5 -52.5t-72.5 -50t-82.5 -40t-87 -20.5t-85 7.5q-22 6 -40.5 19.5t-34.5 30.5t-28.5 37t-22.5 39q-26 46 -42.5 105.5t-19.5 122t11.5 123.5 t50.5 111q13 18 26 31.5t28.5 25.5t34.5 24l43 27q19 12 33.5 23t28 20t28.5 16t36 10zM338 521q-16 8 -27 20t-29 18q-4 -8 -9 -9.5t-10.5 -1t-12 0.5t-13.5 -3q-36 -15 -60 -52t-35.5 -83.5t-10.5 -97.5t16 -93.5t43.5 -71.5t72.5 -32q32 -2 76 16.5t85.5 49t72.5 68.5 t37 74q7 45 1 82.5t-21.5 70t-38 60.5t-47.5 54q-4 7 -14 6q-7 -31 -27.5 -48t-48.5 -28z" />
<glyph unicode="P" horiz-adv-x="474" d="M229 342q5 -45 6 -98t12 -107q3 -15 8.5 -27.5t10 -24.5t7 -24t-0.5 -25q-3 -12 -11 -21.5t-17.5 -16t-20 -9.5t-18.5 -2q-29 4 -44.5 30.5t-22.5 66t-9.5 87t-6 93t-11.5 84.5t-27 61q8 27 10 52.5t-3 55.5q-4 5 -12 6t-17.5 0.5t-19.5 -1.5t-18 0q-46 47 -36 93.5 t60 81.5q18 12 40.5 24.5t49.5 21.5t57.5 13t63.5 1q41 -4 79 -22.5t68 -46t50.5 -62.5t28 -71.5t0 -73t-33.5 -67.5q-17 -20 -38.5 -32t-49 -19.5t-61 -12t-73.5 -8.5zM332 606q-16 12 -42.5 17.5t-54 4.5t-51 -7.5t-33.5 -19.5q14 -9 26.5 -19t21 -24t12 -33t0.5 -44 q26 -9 50.5 -8t45.5 8.5t38 20t28 26.5q-5 10 -8.5 20.5t-7.5 21t-9.5 20t-15.5 16.5z" />
<glyph unicode="Q" horiz-adv-x="643" d="M405 711l13 -23q5 -10 11 -25q5 -12 5 -29t7 -31q10 -21 30 -34t36 -32q12 -15 27 -37l27 -41q21 -33 32.5 -71t11 -76.5t-15 -75t-46.5 -66.5q10 -11 26 -23l31 -25q15 -13 28 -27.5t17.5 -30t-1.5 -31.5t-29 -32q-28 1 -48.5 9.5t-36.5 21t-30 27t-29 27.5 q-31 -14 -55 -29.5t-49.5 -28t-56.5 -19t-74 -1.5q-45 5 -83.5 29t-67.5 60t-47 80t-24 89q-10 76 11.5 150.5t60.5 138.5t89 113t97 73q13 7 31 5t36.5 -8.5t36 -14.5t29.5 -12zM308 633q-24 -17 -56.5 -47t-63.5 -70.5t-53 -88.5t-25 -101q-2 -28 1.5 -57t12.5 -54.5 t23 -46.5t35 -34q26 -16 53 -17t53 6t51 19t48 22q-11 18 -28 34.5t-31.5 34.5t-23 39t-2.5 48q30 16 53.5 10t43 -22t38.5 -34.5t40 -25.5q34 47 33 86t-21 72t-50 61t-52 52q-29 -1 -45.5 11.5t-27.5 30.5q2 10 9 16t14.5 11.5t13 12.5t5.5 20q-15 16 -48 12z" />
<glyph unicode="R" horiz-adv-x="632" d="M275 320q6 -17 23.5 -26.5t41.5 -17.5l49 -17q26 -8 50 -21q32 -17 67 -43l66 -50l41 -31q21 -16 35 -32.5t18.5 -33.5t-7.5 -35q-15 -23 -40 -23.5t-49.5 12t-44 33t-25.5 40.5q-79 42 -164 78l-172 72q-1 -14 -4 -28l-6 -28q-3 -14 -4 -30t2 -34q2 -17 9 -30t14 -24 t12 -21.5t4 -22.5q-3 -30 -18.5 -44.5t-37 -16t-45.5 9t-45 31.5q1 16 -3 29t-10 26l-11 26q-5 14 -7 30q-8 54 2 114t22 119.5t18.5 116t-7.5 105.5q-22 -8 -45.5 -18t-46 -13t-43 5.5t-35.5 38.5q-22 43 -6 70t56 42t96.5 19t115 0.5t112.5 -12.5t88 -20q21 -6 40 -16 l38 -20l36 -20q18 -10 37 -16q25 -39 25.5 -70t-15.5 -56.5t-45 -46t-61.5 -38t-64.5 -32.5t-56 -30zM122 567q-8 -1 -8 -13q10 -11 25.5 -18.5t28 -16.5t20 -22.5t2.5 -36.5q25 1 45.5 8t38 17.5t33.5 22.5t34 22q-18 10 -42.5 15.5t-53 9t-60 6t-63.5 6.5z" />
<glyph unicode="S" horiz-adv-x="557" d="M475 485q-16 -6 -34 -14.5t-37.5 -14.5t-39.5 -8t-40 4q3 19 9.5 33.5t12.5 29.5t9.5 33t0.5 43q-15 8 -39 6.5t-51 -11t-54 -25.5t-47.5 -36.5t-32 -44.5t-7.5 -49q3 -21 21 -36.5t43.5 -28t55.5 -23.5l59 -24q25 -10 52 -22.5t52 -26t46 -28t35 -28.5q8 -9 21 -31.5 t22.5 -51.5t12.5 -60t-10 -56q-23 -42 -79.5 -60t-131.5 -13q-55 4 -108.5 16t-100.5 30t-85.5 41.5t-63.5 51.5q8 16 11 36t9 37q22 8 38.5 5t31.5 -10.5t31.5 -14.5t37.5 -7q11 -4 14.5 -15t11.5 -17q25 -7 60.5 -15t72.5 -11t69 3.5t49 29.5q2 18 -3 29.5t-12.5 20.5 t-16 16.5t-14.5 18.5q-39 15 -83 30t-86.5 33t-81.5 39.5t-67 50.5t-42.5 66t-9.5 86q4 34 23.5 68.5t50 65t69 54.5t79.5 36.5t83 12t79 -19.5q12 -6 25 -20.5t27 -25.5q18 -14 32.5 -21t20.5 -19q9 -17 10.5 -32t-0.5 -31t-5.5 -34t-4.5 -41z" />
<glyph unicode="T" horiz-adv-x="752" d="M732 688q2 -17 0 -30t-6.5 -23.5t-10.5 -19.5t-12 -19q-16 -9 -29 -6.5t-26 9.5l-25 13q-12 7 -27 8q-48 2 -76 -2t-53 -10.5t-55.5 -13.5t-82.5 -11q9 -15 28 -22l39 -16q21 -8 38 -21.5t23 -40.5q6 -26 4 -62t-5.5 -77.5t-6.5 -86.5t1 -87q1 -17 6 -36.5t10.5 -38 t9.5 -33.5t3 -22q-2 -12 -8 -21t-13 -17l-14 -15q-6 -7 -8 -15q-41 -8 -78.5 6t-50.5 47q-5 12 -4 24t3 25.5t5 27.5t3 30q0 45 -3.5 97.5t-8 104.5t-7.5 100.5t-2 86.5q5 16 14.5 27t14.5 26q-20 3 -44.5 0t-50.5 -8l-52 -11q-26 -5 -50.5 -5t-45.5 7t-36 26q-8 9 -14.5 26 t-9 37t0.5 39.5t16 33.5q58 -3 119.5 6t123.5 21t123.5 21.5t119.5 7t111 -22t99 -64.5z" />
<glyph unicode="U" horiz-adv-x="657" d="M86 741q28 3 46 -3.5t31 -18.5t23 -27t22 -28q-26 -54 -43.5 -125.5t-19 -144.5t18 -137.5t67.5 -103.5q31 0 59.5 14t53.5 35.5t46 47.5l39 48q12 14 22.5 38t16.5 52.5t6.5 58.5t-7.5 56.5t-26.5 47t-49.5 30.5q0 20 -6 41l-12 42q-6 20 -8.5 39.5t3.5 37.5q-1 4 2 5.5 t6 1.5q29 1 52 -5t42 -19t35 -32t32 -43q14 -24 31.5 -64.5t31 -87t20 -93.5t0.5 -83q-1 -7 -7 -26l-15 -42q-8 -23 -17 -44.5t-15 -32.5q-2 -5 -9 -15.5t-11 -18.5q-7 -9 -13 -14.5t-12 -12.5q-25 -29 -66 -59.5t-90 -49.5t-100 -20t-95 29q-20 14 -38.5 37t-34.5 51.5 t-30.5 60.5t-26.5 65q-10 26 -22 50.5t-16 41.5q-10 56 -8 115.5t13.5 116t32 105t46.5 83.5z" />
<glyph unicode="V" horiz-adv-x="622" d="M283 -30q-15 -2 -25 2.5t-17.5 10.5t-16 12t-20.5 8q-27 78 -58 156.5t-59.5 159t-52 163t-34.5 167.5q53 23 83 9t48 -50t29 -85.5t25 -98.5q17 -61 38.5 -112.5t32.5 -90.5q35 31 65 85.5t56 112.5q23 56 52 111t46 106q8 25 9 49t3 50q29 12 61 6t56.5 -25.5t35.5 -51 t-2 -68.5q-26 -14 -44.5 -38t-33 -53.5t-27.5 -62.5l-25 -63l-49 -108q-24 -54 -51.5 -106.5t-58.5 -102t-66 -92.5z" />
<glyph unicode="W" horiz-adv-x="769" d="M588 0q-56 0 -93.5 19t-65 48t-49 63.5t-46.5 66.5q-14 -9 -25.5 -34.5t-24.5 -57.5l-26 -63q-13 -31 -29.5 -51t-38 -22t-48.5 24q-16 16 -31.5 45.5t-29.5 68.5t-26 83.5t-21 90.5l-23 106l-19 96.5t-15 95.5t-7 102q19 12 38 12.5t36 -6t32 -17.5l27 -20 q10 -52 17 -105l16 -106q8 -52 17 -103.5t21 -100.5q15 13 25.5 30.5t19.5 36.5l18 37q9 19 20 36q28 5 47.5 5.5t34.5 -4t27 -14.5t25 -25q5 -6 15 -21l23 -33l27 -40l25 -38l21 -29q8 -11 11 -11q8 -1 17.5 7.5t19.5 22.5t19.5 31.5t17 35t13 32.5t7.5 24q10 47 10 103.5 t-6 112.5t-16 106.5t-19 85.5q5 1 5 5t1 8q42 12 82.5 -3t66 -44t30 -65t-25.5 -67q7 -93 4.5 -177t-19.5 -155.5t-49 -129.5t-83 -98z" />
<glyph unicode="X" horiz-adv-x="692" d="M709 677v-21q0 -10 -2.5 -18.5t-8.5 -17t-17 -20.5q-32 -45 -64 -83l-66 -75l-65 -72q-33 -36 -65 -75q20 -30 49 -50.5t56 -48.5q19 -15 31 -26.5t21 -21.5t18 -19t23 -19q2 -15 1 -33.5t-7 -34t-17 -25.5t-28 -8q-11 0 -25 10l-33 21q-21 15 -44 35.5t-45 43.5l-44 45 q-21 22 -38 42l-21 -14q-10 -7 -19 -15.5t-18 -19.5t-20 -27q-20 -19 -36 -44l-33 -52q-17 -27 -35 -52t-41 -44q-32 -4 -49.5 1.5t-33.5 24.5q-20 32 -20.5 61.5t7.5 58.5q4 16 16.5 32.5t28.5 32.5l32 32q17 16 31 31l60 66l54 56q-35 69 -74 134t-84 126q-17 32 -19 59 t6 50q40 11 69 0.5t51 -34t39 -56.5l32 -67q15 -33 31.5 -63t38.5 -48l46 42q23 22 43 48q3 3 11 10l17 15q9 7 17 14.5t12 12.5l33 39q15 17 28 35t23.5 39t18.5 52q25 1 43.5 -4.5t33.5 -14.5t27 -21z" />
<glyph unicode="Y" horiz-adv-x="447" d="M228 472l-108 74q-55 36 -100 83q1 12 -3.5 28.5t-6.5 32.5t2 29t23 18q14 3 29.5 -5t31 -21.5t30 -29t27.5 -25.5q13 -11 28 -18.5t32 -18.5l32 -25q15 -11 32 -8q18 3 31.5 21.5t24.5 43.5t19 51t16 44l7 10q3 6 10 8q18 -1 35 -6t31 -13t23.5 -20t12.5 -27 q2 -15 -8.5 -40.5t-25.5 -51.5t-30 -49t-22 -35q-33 -53 -64.5 -98t-59.5 -101q-2 -6 -4 -10.5t-5 -10.5q-4 -6 -6.5 -11.5t-5.5 -11.5q-11 -22 -19 -45t-19 -45l-25 -56q-12 -25 -21.5 -50.5t-17 -54.5t-11.5 -65q-1 -12 -6.5 -36.5t-16.5 -47t-27.5 -37t-40.5 -8.5 q-19 5 -27.5 27t-10 50t2 57t8.5 48q13 51 37 103.5t43 100.5q31 72 61 134.5t62 117.5z" />
<glyph unicode="Z" horiz-adv-x="660" d="M506 388q7 -3 18 -1l24 4q13 2 25.5 1t21.5 -9q12 -22 7 -38.5t-17.5 -29t-29 -22.5t-28.5 -19q-29 -6 -56.5 -7t-53.5 -1t-50.5 -1t-46.5 -7q-14 -4 -28 -13t-26 -20l-25 -23l-24 -21q-26 -23 -47 -48l-41 -46q13 -9 33 -8t39 3q63 7 125 17.5t123 13.5q7 0 10 5.5 t4.5 12t4 12t8.5 7.5q45 -11 83 -28t55 -55q-3 -14 -8 -25.5t-7 -26.5q-36 -11 -82.5 -19t-97.5 -14l-103 -12q-52 -6 -99 -13q-36 -5 -66.5 -7.5t-56 0.5t-45 14.5t-34.5 34.5q-10 51 -3 89t25 67.5t44 54.5l53 48q-8 10 -15 24.5t-11 31t-4.5 34.5t4.5 35q27 6 52 6t48 -1 t44.5 -1t41.5 6q16 5 30.5 14.5t28.5 21.5l28 24q13 12 27 22q29 22 58.5 42t49.5 46q-21 7 -53 13.5t-68.5 12t-74.5 9.5t-72 7q-31 2 -60.5 2t-55 3.5t-44 13t-27.5 32.5q-7 19 -3 42.5t3 45.5l16 8q7 4 15 7q26 -11 58 -17.5t67.5 -11t73.5 -8t76 -9.5l70 -10 q36 -6 69 -13.5t61 -18.5t47 -26q21 -16 30 -38.5t8 -46.5t-12.5 -47.5t-30.5 -42.5q-12 -12 -27 -21l-30 -18q-15 -9 -27.5 -19.5t-18.5 -23.5z" />
<glyph unicode="[" horiz-adv-x="383" d="M339 580q-8 -21 -31 -25.5t-51 -3.5t-56.5 2.5t-47.5 -8.5q-3 -52 -6.5 -105.5t-5 -107.5t0.5 -108t11 -107q24 0 55.5 3.5t62 2t56 -12.5t38.5 -41q-8 -23 -28.5 -38t-48 -26t-59.5 -19l-63 -16q-10 -2 -13.5 -7t-11.5 -6q-16 -2 -29 1t-24 8.5t-22 12.5t-23 13 q-18 73 -24.5 154.5t-7.5 165.5t1.5 169.5t4.5 168.5q-1 14 5 19t14 10q33 -1 67 -0.5t66.5 0t61.5 -5t52 -16.5q3 -12 14 -21t22 -17t18 -17.5t2 -21.5z" />
<glyph unicode="\" horiz-adv-x="543" d="M70 742l87 -190q42 -95 93 -186q51 -90 122.5 -162.5t158.5 -139.5q1 -20 4 -40.5t-14 -37.5q-15 0 -25.5 1.5t-20 7t-21.5 16.5t-30 31q-91 97 -167.5 198t-137.5 215q-23 43 -43 89.5t-46 91.5l-22 46q-12 22 -17 47q8 19 31 18t48 -5z" />
<glyph unicode="]" horiz-adv-x="521" d="M510 602q-12 -61 -22 -129.5t-15 -141t-3 -148t14 -150.5q-14 -11 -30.5 -20t-30.5 -20q-34 11 -71 9.5t-74 -7.5l-70 -12q-33 -6 -61 -3.5t-48.5 18.5t-29.5 54q18 25 47 38t63.5 20.5t72 11.5t72.5 12q4 37 5 86l2 102q1 52 3 104t9 96q-32 5 -69.5 3t-75 -3.5t-72.5 0 t-62.5 12.5t-44.5 35t-18 67q21 15 47.5 18t57.5 1.5t64.5 -4.5t66.5 -1q44 2 85.5 9t77 7.5t64 -12.5t46.5 -52z" />
<glyph unicode="^" horiz-adv-x="409" d="M230 785q40 -143 155 -220q5 -24 2.5 -48t-16.5 -36q-12 0 -25.5 2t-21.5 7q-6 3 -10.5 14.5t-9.5 18.5q-9 12 -18 21l-16 18l-15 18q-8 10 -16 22l-23 35q-12 20 -24 36q-13 -10 -26.5 -25.5t-26.5 -33.5t-23.5 -37t-17.5 -36q-5 -11 -5.5 -20t-2 -16.5t-5.5 -12.5 t-14 -7q-14 -2 -25 6t-18 20t-10.5 26t-2.5 24q0 11 11.5 27.5t20.5 32.5q23 40 53.5 83.5t49.5 85.5q17 12 39.5 6.5t40.5 -11.5z" />
<glyph unicode="_" horiz-adv-x="500" d="M477 -87q-57 4 -112.5 -4.5t-110 -18.5t-109 -17t-109.5 1l-18 32q-10 18 -6 36q18 15 41 15h42q42 6 84.5 14t85.5 15t87 10.5t90 -0.5q19 -11 32 -32.5t3 -50.5z" />
<glyph unicode="`" horiz-adv-x="302" d="M132 722q14 -13 23.5 -25l18.5 -24l18 -25q9 -14 23 -30q12 -16 24.5 -30.5t20.5 -27.5t8.5 -25t-11.5 -23q-15 -13 -32 -8.5t-35.5 20t-38.5 39.5l-38 47l-37 45q-18 21 -34 33q-3 4 -1.5 7t-0.5 5q22 26 45.5 28t46.5 -6z" />
<glyph unicode="a" horiz-adv-x="598" d="M436 181q6 35 -11 74t-49 71t-75 51t-89 13q-21 -2 -36 -13.5t-28.5 -24.5t-27 -23.5t-31.5 -10.5q-16 0 -31 8t-26.5 20.5t-17.5 28t-4 29.5q3 24 27.5 43t59.5 31.5t75.5 18t75.5 1.5q29 -3 58.5 -13t56.5 -24.5t51 -32.5t43 -38q18 -18 29.5 -32.5t20.5 -29t17 -32.5 l20 -43l20 -43q10 -21 16 -45t6.5 -52t-6.5 -62q-11 -9 -24.5 -15.5t-18.5 -20.5h-20q-10 0 -19 0.5t-16 3.5t-10 10l-60 -35q-35 -19 -75 -35t-83 -24t-85 1q-27 6 -53 23.5t-45.5 41.5t-30.5 51t-8 50q3 24 26 50.5t59.5 47t81.5 32t92 6.5q24 -2 43 -9t36 -15l32 -18 q16 -9 34 -15zM198 59q17 0 40 4.5t46 12t44.5 18t35.5 22.5q-21 15 -52 15.5t-58 -9t-44 -26.5t-12 -37z" />
<glyph unicode="b" horiz-adv-x="519" d="M187 400q28 0 57.5 -3.5t58.5 -11t56 -20t50 -30.5q20 -16 37 -41t29 -53.5t17.5 -58t2.5 -54.5q-3 -24 -15.5 -47.5t-33 -43t-46.5 -33.5t-55 -19q-28 -5 -69.5 -5t-84.5 5.5t-81 15.5t-59 26q-11 8 -23.5 29t-16 43t7.5 39.5t47 17.5l-8 32l-6 30l-5 30q-2 15 -4 35 q3 45 2.5 97.5t-2 107.5t-2 110.5t2.5 108.5q19 9 41 10t42 -3.5t36 -13.5t24 -21q15 -22 14 -55.5t-7 -72t-10.5 -78t3.5 -73.5zM359 192q0 25 -16.5 43.5t-41.5 27.5t-53.5 6.5t-53.5 -20.5q-2 -22 -0.5 -40t5 -34.5t8 -31.5t9.5 -30q24 -10 49 -7t46 15t34.5 31t13.5 40z " />
<glyph unicode="c" horiz-adv-x="485" d="M462 352q-8 -8 -14.5 -16.5t-13.5 -16t-14 -13t-17 -6.5q-19 -2 -35 7t-31 21t-30 22.5t-30 9.5q-29 -2 -47 -20t-29.5 -46.5t-17.5 -63.5t-10 -70q17 -28 46.5 -35.5t63 -7t67.5 3.5t60.5 -4.5t41 -31t10.5 -74.5q-51 -26 -106.5 -33t-108 3t-98.5 35.5t-78.5 65t-48 93 t-5.5 118.5q5 33 24 67.5t46.5 63.5t61.5 50t68 27q42 6 83 -2t74.5 -28.5t57 -51t30.5 -67.5z" />
<glyph unicode="d" horiz-adv-x="568" d="M578 64q-14 -33 -47.5 -42.5t-69.5 3.5q-38 -33 -87.5 -50.5t-100.5 -20t-99.5 9.5t-85 38t-56.5 66.5t-14 93.5q3 30 21.5 60t47.5 56.5t65.5 46.5t76 29.5t79.5 6.5t75 -23q-4 52 -5 100.5t-0.5 95t2.5 91.5t3 91q18 11 38.5 10.5t39.5 -8.5t35 -21t24 -26 q4 -79 0.5 -166t-2 -169t13 -153t46.5 -119zM155 91q27 -18 60 -20t67 5t66 19l54 21v46l-48 33q-24 17 -37 45q-69 -9 -112 -43.5t-50 -105.5z" />
<glyph unicode="e" horiz-adv-x="398" d="M341 269q-9 -2 -16 -1l-13 4l-13.5 2t-15.5 0q-3 20 -13 32.5t-18 26.5q-39 -13 -65 -38.5t-46 -56.5q23 -3 38.5 -20t18.5 -36.5t-10 -34.5t-47 -14q1 -12 7.5 -20t15.5 -12.5t18 -7t17 -2.5q17 -2 33 4.5t31.5 13.5t31 10.5t30.5 -3.5q9 -3 13 -9.5t7 -15t6 -16 t11 -11.5q-13 -20 -28 -40t-35 -28q-31 -13 -60.5 -11.5t-56.5 11t-51 24.5t-43 30q-20 12 -35 34t-23 38q-24 51 -16.5 103.5t35 96t69.5 74t86 37.5q29 5 55 -1l55 -14q15 -12 29 -30.5t21 -39t3 -41.5t-26 -38z" />
<glyph unicode="f" horiz-adv-x="404" d="M349 470q-17 21 -31 47t-17 61q-43 12 -70 1t-41.5 -36.5t-17 -60.5t4 -71.5t20.5 -70t33 -54.5q26 1 51 -3t45 -13t32.5 -22.5t12.5 -31.5q-14 -29 -34.5 -35.5t-62.5 -2.5q0 -23 4 -42t9.5 -36.5t10.5 -35t8 -37.5q-14 -20 -30.5 -30.5t-39.5 -7.5q-24 3 -37.5 22 t-21 45t-10.5 53t-7 47q-59 -12 -98 9.5t-48 72.5q11 25 40.5 29.5t67.5 2.5q-18 39 -36 85t-27.5 92.5t-5.5 90t31 78.5q3 4 13 13.5t23 20.5l25 19q12 9 20 12q28 13 59.5 14.5t61.5 -6t56.5 -22.5t44.5 -35q16 -17 28.5 -44t12.5 -53.5t-17 -45.5t-62 -19z" />
<glyph unicode="g" horiz-adv-x="437" d="M441 -255q-11 -11 -18 -25t-19 -22q-8 -4 -14.5 -3.5t-13 2.5t-13.5 4.5t-16 2.5q-10 -24 -24 -41.5t-32.5 -31.5t-42.5 -28l-52 -30q-29 -17 -60.5 -32.5t-63.5 -23t-64 -3t-61 27.5q-12 10 -25 29t-22 43.5t-13 54t2 60.5q7 32 35 72t66 76.5t80.5 63.5t78.5 33 q37 5 66 -6t55 -30q2 29 3 45t2 24.5t2 13.5t2 12t2 20t3 37q-14 1 -26 -3t-24 -10l-24 -12q-12 -5 -25 -6q-5 0 -18 2.5t-29 6.5t-30.5 9t-20.5 9q-16 10 -29 28.5t-21.5 41t-12 47t-1.5 45.5q3 22 22 52.5t48.5 55.5t65.5 36t73 -5q17 -7 27 -24t25 -28q10 -8 22 -13 t23.5 -11.5t20.5 -15t12 -22.5q39 -4 52.5 -22.5t12.5 -46.5t-11 -63t-18 -71q-5 -21 -7.5 -33t-4 -20t-2 -14.5t-1.5 -16.5l-5 -42q-2 -17 -2.5 -31t1 -27.5t6.5 -32.5q4 -16 13 -27l20 -22q9 -10 16.5 -23.5t8.5 -35.5zM143 164q35 -2 68 14.5t47 47.5q-11 1 -17.5 -3.5 t-11.5 -9.5t-11 -9t-17 -3q-8 2 -13 8t-9.5 12.5t-10.5 12.5t-15 8q-9 -15 -13 -36t3 -42zM227 -147q-12 2 -19 7.5t-17 9.5q-21 -7 -40 -19t-35.5 -26t-32.5 -30l-28 -29q-15 -17 -26 -31t-17.5 -29.5t-8.5 -35.5t0 -50q28 -8 52.5 -4t47 14.5t42.5 24.5l41 28q31 19 60 39 t60 32q-8 10 -12.5 24t-7.5 28.5t-5.5 29.5t-7.5 28q-12 -1 -20 -7t-26 -4z" />
<glyph unicode="h" horiz-adv-x="463" d="M147 629q8 -8 12.5 -14.5t7.5 -12.5t4.5 -12t3.5 -13v-43q0 -26 0.5 -53.5t0.5 -53.5v-42q28 6 59.5 5t61.5 -8t54.5 -19.5t38.5 -29.5q24 -29 30.5 -70.5t8 -88t5 -95.5t21.5 -92q9 -11 21 -20t22.5 -19t17.5 -22t4 -29q-1 -6 -7.5 -14t-15 -16t-18 -14t-17.5 -7 q-38 -6 -65 13.5t-47 54.5t-33 81t-21.5 94t-13.5 94l-9 79q-31 -7 -55 -18l-49 -23q-5 -26 -6 -53t2 -53.5t9 -50.5t14 -43q-8 -17 -21.5 -30t-30.5 -20t-37 -6.5t-40 10.5q-15 26 -20 70.5t-6 96t-0.5 106t-3.5 99.5q-7 38 -12 70.5t-7 64.5t-2 66t3 74q11 14 27.5 19 t35 4t38 -5.5t35.5 -10.5z" />
<glyph unicode="i" horiz-adv-x="249" d="M218 555q-17 -11 -37 -21.5t-40.5 -15.5t-41.5 -3t-40 16q-12 8 -21.5 23.5t-16 33t-9.5 32.5t-1 22q5 25 23 36.5t42 11.5t50.5 -9.5t47.5 -27.5t34 -43t10 -55zM218 62q-9 -11 -16.5 -22t-16 -20t-18 -15t-21.5 -7q-29 -3 -49.5 11.5t-34.5 40t-22 59t-11.5 69 t-3.5 69.5t2 61q45 13 76.5 9t51.5 -20t31.5 -42.5t17.5 -58t8.5 -66.5t5.5 -68z" />
<glyph unicode="j" horiz-adv-x="320" d="M223 557q-14 -2 -25 -7l-20 -8q-10 -4 -21 -6t-24 2q-12 4 -25 20t-22 37t-12 45t5 45q142 9 144 -128zM-97 -52q31 7 47.5 -2t26 -25t16 -34.5t19.5 -30.5q17 12 30.5 32t24.5 45t19.5 52.5t15.5 53.5l14 50q8 30 15 62t11 63t3 56q-2 20 -9 38t-12.5 35t-6 34t10.5 35 q18 3 32.5 1t28 -7.5t26 -12t26.5 -11.5q23 -41 30 -85.5t0 -111.5q-3 -23 -8 -52t-12 -60t-16 -63l-18 -62q-11 -33 -23.5 -66t-26.5 -60.5t-29 -48.5t-30 -31q-15 -12 -38 -21t-58 3q-15 5 -37 20t-42.5 35t-35.5 43.5t-17 46.5q-2 20 2 40.5t21 38.5z" />
<glyph unicode="k" horiz-adv-x="534" d="M161 361q55 32 103.5 69.5t91.5 81.5q60 2 95.5 -22.5t30.5 -65.5q-2 -14 -13.5 -27t-27.5 -26t-34 -25l-32 -23q-36 -27 -70 -45.5t-50 -36.5l39 -24l43 -26q17 -11 38 -26t44 -25q26 -10 55 -14.5t55.5 -11.5t46 -20.5t25.5 -41.5q-8 -16 -21 -28t-23 -29 q-64 -2 -117 13.5t-100.5 39t-92.5 50.5t-93 48q0 -18 2.5 -32.5t5.5 -28.5l7 -28q4 -14 5 -30q-11 -1 -17.5 -6t-12.5 -11l-12 -12q-6 -6 -15 -9q-25 0 -43.5 6.5t-38.5 12.5q-17 84 -17 171t2.5 174t1.5 172.5t-19 168.5q6 15 21.5 20.5t32 5t32 -4.5t21.5 -8 q31 -17 41 -57.5t11 -90.5t-2 -103t1 -95z" />
<glyph unicode="l" horiz-adv-x="221" d="M162 281q4 -75 15 -140.5t19 -134.5q-12 -8 -27 -14t-31.5 -7.5t-32.5 2t-29 13.5q-5 14 -7.5 30.5t-7.5 30.5q-10 85 -16 170.5t-9 155.5q-4 82 -6 158q2 29 -1 52.5t-5 44t-1 40t12 41.5q18 5 32 4t26.5 -5.5t24.5 -11t27 -10.5q12 -37 15 -88.5t2.5 -108.5t-2 -114.5 t1.5 -107.5z" />
<glyph unicode="m" horiz-adv-x="587" d="M445 306q-24 13 -36.5 3t-18 -33t-7 -52.5t-4.5 -55.5l-10 -95q-4 -44 -7 -67q-9 -5 -16 -11l-13 -12q-6 -6 -15 -10t-22 -3q-13 9 -20.5 23.5t-12.5 30.5l-10 34q-5 17 -13 31q8 28 15 61t12 66.5t6.5 64.5t-1.5 55q-24 6 -47.5 4t-44.5 -10.5t-38 -21t-28 -27.5 q7 -32 4.5 -71.5t3.5 -83.5q1 -11 5 -22t7 -22t5 -21t0 -19q-4 -20 -24.5 -35.5t-40.5 -12.5q-13 2 -24.5 16.5t-20.5 33t-14.5 38.5t-6.5 33q-5 26 -1.5 53t1.5 54t-6 50t-7 43t-4.5 39t1.5 38q9 2 14 4t9 4.5t9 4t13 2.5q25 21 62 37.5t77.5 23t79.5 -0.5t68 -35 q18 12 38 14.5t40 0t40.5 -8.5t38.5 -12q19 -9 29 -21.5t18 -21.5q20 -32 33.5 -85.5t9.5 -122.5q-2 -28 -5.5 -55.5t-1.5 -54.5q1 -14 4 -35.5t0 -41t-14 -32t-37 -9.5q-11 1 -22 13.5t-20 30t-15.5 36.5t-8.5 33q-5 33 -3.5 67.5t3.5 67.5t2 62t-8 49z" />
<glyph unicode="n" horiz-adv-x="423" d="M271 342q-17 4 -36 2t-37.5 -6.5t-36 -11.5t-30.5 -14q-6 -86 4 -156.5t25 -136.5q-26 -31 -70 -41q-36 24 -52.5 71.5t-22 105t-5 118t-2.5 110.5q3 9 10 14.5t16.5 8.5t19.5 5.5t18 6.5l57 24q33 14 69.5 22t74 5t69.5 -28q12 -9 22 -24t17.5 -32.5t12.5 -36t6 -36.5 q2 -23 -1 -48t-7 -50l-6 -49q-4 -24 -3 -46q0 -23 8 -41.5t3 -34.5q-3 -9 -11 -18.5t-19 -16.5t-23 -10.5t-23 -1.5q-10 2 -18.5 11.5t-15.5 22.5t-11.5 27.5t-6.5 26.5q-5 31 -1.5 65t8 67.5t6 66t-7.5 59.5z" />
<glyph unicode="o" horiz-adv-x="462" d="M128 405q6 1 22.5 2.5t37 2.5t40 1.5t30.5 -1.5q8 -2 23 -10.5t31 -20t31 -23.5l22 -19q8 -9 18.5 -22t20.5 -28.5t18 -31.5t10 -29q8 -45 -2 -75.5t-32 -55.5q-22 -24 -58 -47t-78 -36t-86.5 -12.5t-81.5 23.5q-30 18 -51.5 55t-30.5 82t-5 92t24 85q14 26 36 44t61 24z M223 259q-12 12 -25.5 16.5t-25 3t-20 -9.5t-11.5 -21q-1 -2 -4 -3.5t-4 -3.5q-5 -21 -3.5 -41.5t9.5 -36.5t22 -26t34 -10q17 0 38 6.5t38.5 18.5t28.5 28.5t8 36.5q-3 19 -20.5 29.5t-32.5 23.5q-9 -2 -15 -6t-17 -5z" />
<glyph unicode="p" horiz-adv-x="483" d="M152 74q-11 -38 -9.5 -79.5t7.5 -86t13 -89.5t7 -89q-42 -29 -68 -23t-41.5 35.5t-22 76t-9 98.5t-3.5 104.5t-4 92.5q-2 12 -4 32t-3.5 42t-1.5 44.5t2 40.5q-2 17 7.5 21t17.5 11q-8 14 -20 29.5t-20 32.5t-9 36t12 42q73 16 146 16.5t135 -18t107.5 -58.5t62.5 -106 q4 -14 7.5 -30.5t4.5 -27.5q-4 -20 -16.5 -35t-20.5 -33q-95 -84 -277 -79zM77 305q29 -11 44 -37l31 -55q23 -3 52.5 -0.5t56 10.5t45 21.5t19.5 34.5q-16 18 -47.5 30t-67.5 15.5t-72 -1t-61 -18.5z" />
<glyph unicode="q" horiz-adv-x="385" d="M258 402q12 25 37 33.5t52 3.5t50.5 -20.5t32.5 -37.5l-63 -105q-30 -52 -57 -108.5t-48 -119t-33 -134.5q22 2 46 12.5t49 24.5l51 29q27 15 55 27q12 4 27.5 6.5t30.5 8.5q13 4 31 11.5t37.5 11t39 -0.5t37.5 -22q-3 -19 -13.5 -32t-24 -23t-29 -17.5t-28.5 -14.5 q-39 -24 -82 -47l-88 -46l-89 -46l-86 -49l-6 -78q-2 -36 0.5 -69.5t11.5 -65t30 -61.5q18 9 32.5 21.5t26.5 27.5l24 30q12 15 25 28q28 11 51 2.5t42 -23.5q10 -26 1.5 -51.5t-25.5 -48.5t-39 -44l-37 -35l-32 -29q-17 -14 -36.5 -22t-42 -6.5t-48.5 21.5 q-12 9 -28.5 36.5t-31.5 59.5t-26.5 63.5t-14.5 48.5q-4 29 -0.5 63t0.5 61q-12 -1 -21 -5l-18 -7q-9 -3 -20 -4.5t-26 1.5q-13 10 -24.5 23t-19.5 28.5t-10.5 33t3.5 37.5q37 13 72.5 23t78.5 27q11 76 30 141.5t35 132.5q-3 6 -10.5 7.5t-17.5 1t-20 -1.5t-17 0 q-42 35 -61 81t-16.5 93.5t25.5 92.5t66 78q10 8 32.5 7t47.5 -9t47 -22.5t32 -32.5zM129 266q24 -2 29.5 13t5.5 37q-12 1 -18.5 -3.5t-9.5 -12t-4.5 -16.5t-2.5 -18z" />
<glyph unicode="r" horiz-adv-x="503" d="M496 292q-15 -12 -39.5 -13t-53.5 2t-60.5 7.5t-62 4.5t-58 -7.5t-47.5 -27.5q-7 -39 -9 -69t9 -65q3 -12 10 -22l14 -19l11 -17t5 -17q1 -9 -2 -16t-7 -14.5t-7 -15.5t-3 -17q-26 -14 -48 -11.5t-41 13.5t-34 28t-25 33q-7 29 -11 61t-7 67l-6 72q-4 37 -10 78 q-2 16 -5 30t-3 26.5t4.5 25t17.5 24.5q40 -13 91 -14.5t104 -2t103.5 -6t91.5 -26.5q23 -13 46 -35.5t32 -56.5z" />
<glyph unicode="s" horiz-adv-x="404" d="M199 357q-23 -2 -39.5 -9t-36.5 -10q13 -23 40.5 -41t58.5 -35l63 -36q32 -18 53 -41q5 -5 12 -13l12 -15q7 -8 9.5 -13t5.5 -10q23 -43 14 -80.5t-40 -71.5q-20 -12 -50 -16t-65 -2.5t-72 8t-70.5 15t-59.5 19t-39 20.5q-14 10 -24 25t-14.5 31.5t-2 33.5t14.5 31 q28 1 53 -6t48 -17l46 -22q22 -11 45 -16.5t48 -3t53 19.5q-20 27 -52 48t-67 40.5t-68 40t-55.5 47.5t-29 63t10.5 86q22 18 52.5 36t63.5 28.5t67.5 10t65.5 -17.5q10 -6 17 -14l13 -16q6 -9 13.5 -16t19.5 -11l7 -35q3 -19 3.5 -36t-4.5 -31.5t-19 -24.5 q-19 -5 -36.5 -4.5t-33.5 11.5q-9 1 -12 7.5t-5 15t-4.5 16.5t-9.5 11z" />
<glyph unicode="t" horiz-adv-x="383" d="M265 644q5 -25 -0.5 -47.5t-16 -43.5t-22.5 -40.5t-20 -38.5l53 -10q27 -4 49.5 -12.5t40.5 -21.5t27 -35q-5 -22 -19.5 -34t-35 -18t-44.5 -8.5t-47 -6t-43 -10t-33 -20.5q1 -40 -0.5 -82.5t6.5 -74.5q10 -2 16 0l13 4q7 2 14 3.5t17 -0.5q10 -8 18 -18t15 -20l15 -22 q8 -10 17 -19q-8 -32 -24.5 -55t-40.5 -30q-37 -9 -67.5 1.5t-54.5 33t-41 55t-26.5 68t-11.5 71t4 65.5q-19 15 -41.5 26.5t-42.5 26.5v52q0 25 13 39q23 5 47.5 7.5t50.5 5.5q18 69 43.5 132t47.5 129q19 5 36.5 1t32.5 -12.5t29 -20.5z" />
<glyph unicode="u" horiz-adv-x="494" d="M447 382q10 -53 18.5 -105t-0.5 -103q-9 -63 -47 -109.5t-92 -68.5t-116.5 -16t-120.5 50q-23 30 -42 75t-29 96.5t-8.5 105.5t20.5 101q27 4 46 -1t32.5 -14.5t23.5 -23.5l21 -27q-2 -30 -5.5 -65t-2 -66t11.5 -54t36 -29q17 -4 42.5 6.5t49.5 29t42.5 42t21.5 46.5 q3 24 -3 44.5t-13.5 39.5t-12 38t1.5 40q15 11 32 10t33.5 -8.5t31.5 -17.5t28 -16z" />
<glyph unicode="v" horiz-adv-x="532" d="M230 -6q-32 6 -54 28.5t-39 52.5t-31.5 62.5t-31.5 58.5q-10 17 -21 33.5t-20.5 35.5t-15 40.5t-3.5 48.5q8 8 18.5 12t16.5 12q25 -14 49.5 -24t41.5 -30q12 -14 19 -32l14 -35q7 -18 16 -34t24 -27q24 13 43.5 33t37.5 42l36 43q19 21 41.5 37t51 24t65.5 3 q21 -21 24.5 -42.5t-4.5 -42.5t-25.5 -41t-37.5 -38l-39 -36q-20 -16 -33 -30q-45 -48 -78 -87t-65 -67z" />
<glyph unicode="w" horiz-adv-x="577" d="M155 234q14 5 21.5 13t14 16t14 14t21.5 7t25 -4t22 -13l23 -16q11 -8 25 -11q6 -13 11.5 -27.5t12.5 -27.5t17.5 -22t28.5 -11q15 21 19 50.5t2.5 61t-5 62t-3.5 53.5q10 18 34 18.5t49 -10.5t45 -30t24 -41q1 -8 -4.5 -16.5t-8.5 -28.5q-8 -45 -10.5 -96.5t-12 -96 t-32 -74.5t-71.5 -31q-30 0 -51.5 11.5t-39.5 29t-34 37.5t-35 37q-18 -6 -31 -18t-24 -26l-22 -28q-10 -14 -25 -24q-17 3 -31.5 8.5t-31.5 10.5q-24 37 -41 83t-27 96.5t-13.5 103.5t-0.5 104q37 7 67.5 -1t50 -29t27 -55t0.5 -79z" />
<glyph unicode="x" horiz-adv-x="507" d="M313 216q5 -28 31 -45l58 -37l28 -21l16 -12l14 -10l23 -15q-1 -28 -11 -46l-19 -39q-41 1 -69.5 15.5t-51.5 33.5l-46 39q-22 20 -51 34q-35 -35 -64 -73.5t-45 -90.5q-23 -9 -36 -7.5t-21 11t-12.5 26t-9.5 37.5q-5 15 -9.5 27t-2.5 26q3 24 16.5 44.5t29.5 37.5 t29.5 29.5t15.5 21.5q-23 28 -53 48t-57 44q-29 38 -29 66t24 55q37 0 62 -11t44.5 -27.5t36.5 -36t38 -34.5q21 9 39.5 29.5t36.5 43t36.5 42.5t39.5 30q22 11 39 1.5t40 -25.5q16 -28 16.5 -49.5t-8.5 -39.5t-25 -32l-35 -29l-34 -29.5t-24 -31.5z" />
<glyph unicode="y" horiz-adv-x="523" d="M227 71q-29 16 -54.5 36t-49.5 42l-47 44q-23 22 -49 42q-2 16 -6 33t-7.5 34t-4 34t5.5 34q22 3 37.5 0t27.5 -9t22 -14t22 -14q18 -35 43.5 -60.5t54.5 -48.5q20 -23 38 -14.5t35 31.5q13 15 23 32.5t19 36.5l17 38q9 18 20 34q15 9 35.5 5t39.5 -16.5t32.5 -31 t13.5 -37.5q2 -27 -13 -43t-29 -35q-23 -34 -45 -74t-41 -85q-28 -72 -51 -142t-52 -138q-14 -33 -24.5 -63.5t-19.5 -62t-16 -66t-13 -76.5q-1 -11 -0.5 -36.5t-3 -51.5t-14.5 -45.5t-36 -18.5q-23 0 -37 22.5t-22 55.5t-9.5 69.5t1.5 65.5q7 67 26.5 132t43.5 128l47 120 q24 59 40 113z" />
<glyph unicode="z" horiz-adv-x="463" d="M403 313q1 -13 4 -21.5t5 -20.5q-20 -32 -46 -50t-70 -28q-19 -5 -40 -6.5t-38 -7.5q-32 -12 -60.5 -40t-50.5 -52q23 -2 48 1t51 7t53.5 7t55.5 3q7 0 10 4t5 9l4 9q2 4 8 5q18 -3 30 -11t22 -18t18.5 -22t17.5 -22q-5 -38 -23 -61q-34 2 -70 -2t-73 -9.5t-73 -10 t-69 -3.5t-61.5 9.5t-50.5 29.5q-10 44 -7.5 86.5t25.5 71.5q-9 9 -15.5 22.5t-9 29.5t0 32.5t11.5 30.5q69 -10 131 2.5t95 48.5q-21 6 -47 3.5t-53.5 -6t-54 -4.5t-48.5 7q-19 37 -19 93q35 14 84.5 17t99.5 5q32 1 65 4t62 3t53 -4t38 -17q5 -4 9.5 -12.5t9.5 -14.5 q23 -30 10.5 -54.5t-47.5 -42.5z" />
<glyph unicode="{" horiz-adv-x="360" d="M202 579q-14 -28 -17.5 -57.5t0 -57.5t13.5 -52.5t23 -41.5q1 -11 -3.5 -15.5t-10 -7.5t-11 -6.5t-6.5 -11.5q-2 -7 0.5 -10t7 -4.5t8.5 -3t4 -6.5l-20 -42l-17.5 -42.5t-13.5 -44.5t-6 -50q13 -5 27 -4t28.5 4.5t29 7.5t29.5 4q10 -10 23 -17t23.5 -14.5t17 -17 t5.5 -25.5q0 -11 -6.5 -22.5t-17 -22t-22 -18t-20.5 -9.5q-5 -2 -22 -3t-38 -1t-41.5 1.5t-32.5 4.5q-40 9 -62 32.5t-30.5 58.5t-5 79t15.5 94q-10 11 -21 21t-25 18q5 27 -1 46.5t-7 42.5q4 13 14 18.5t21 9.5l23 8q12 4 19 13q0 21 -3 44t-4.5 47t-0.5 47.5t9 45.5 q4 12 12.5 21t17.5 17t16.5 16t10.5 18q15 2 31.5 6t34 7t34.5 3t34 -6q12 -5 23.5 -15t20 -21.5t13.5 -23t4 -18.5q-3 -21 -16 -28.5t-31.5 -9t-40 -1.5t-40.5 -5z" />
<glyph unicode="|" horiz-adv-x="170" d="M55 763q30 4 46.5 -5.5t23.5 -29t6.5 -47.5t-4 -60.5t-8 -68.5t-5.5 -72q-2 -61 -4.5 -127t-0.5 -126q3 -47 10 -85l15 -74q7 -35 11 -68t-2 -68q-17 -14 -31 -11t-26 15t-22 28l-17 29q1 31 -2.5 64t-8.5 67t-9.5 69t-5.5 71q-2 51 2 109.5t6 118.5q1 35 1 72t0.5 71.5 t4 64.5t12.5 51q4 2 3.5 7t4.5 5z" />
<glyph unicode="}" horiz-adv-x="407" d="M258 418q12 -6 30 -11.5t34.5 -12.5t29.5 -18t16 -29q3 -24 -8.5 -39t-29 -28.5t-35 -29t-26.5 -38.5q-6 -18 -5.5 -37.5t1.5 -40t0.5 -41t-7.5 -39.5q-10 -30 -30.5 -46t-46 -23t-54 -7.5t-54.5 0.5q-24 22 -30 48t-13 60q5 10 17.5 13t28.5 3t31.5 0.5t26.5 5.5 q6 37 8 76t2 87q-11 10 -15.5 22t-6.5 25t-3.5 27t-7.5 29q9 23 16 49l14 50q7 25 15 49t20 44q-9 4 -18 1.5t-18.5 -5.5t-20 -5t-23.5 3q-15 20 -24 47t-10 62q36 19 78 28.5t74 -1.5q40 -13 58.5 -45t21.5 -72.5t-7.5 -83.5t-28.5 -77z" />
<glyph unicode="~" horiz-adv-x="623" d="M605 333q-2 -18 -12 -28.5t-23.5 -17.5t-28.5 -10.5t-27 -7.5q-32 -6 -62.5 -5t-59.5 7t-58 16l-57 19l-36 17q-17 8 -33.5 15t-32 10.5t-31.5 1.5q-17 -2 -29.5 -12t-23.5 -21t-23 -19.5t-28 -6.5q-26 2 -33.5 18.5t-3.5 37t16 40t26 28.5q8 5 19.5 10t22.5 8.5t20.5 6 t14.5 2.5q36 4 68 -8t64 -28l68 -34q36 -16 79 -22q34 -5 64.5 1t56 10t46.5 0t37 -28z" />
<glyph unicode="&#xa1;" horiz-adv-x="245" d="M126 -69q-4 29 -8.5 74.5t-8.5 97.5l-8 109l-8 108q-3 52 -7 95t-7 69q20 28 40.5 31.5t42.5 -26.5q10 -14 19.5 -56.5t18 -99t15.5 -121.5t12 -123.5t8.5 -104t3.5 -64.5q-8 -16 -24 -19t-33 1.5t-32.5 13t-23.5 15.5zM22 685q9 1 15.5 4.5t13 8t13.5 8t16 5.5l23 -18 q14 -10 25.5 -22t17.5 -26.5t3 -30.5q-3 -18 -16.5 -26.5t-31 -9.5t-35.5 6t-31 21t-18 34t5 46z" />
<glyph unicode="&#xa2;" horiz-adv-x="485" d="M462 352q-8 -8 -14.5 -16.5t-13.5 -16t-14 -13t-17 -6.5q-19 -2 -35 7t-31 21t-30 22.5t-30 9.5q-29 -2 -47 -20t-29.5 -46.5t-17.5 -63.5t-10 -70q17 -28 46.5 -35.5t63 -7t67.5 3.5t60.5 -4.5t41 -31t10.5 -74.5q-51 -26 -106.5 -33t-108 3t-98.5 35.5t-78.5 65t-48 93 t-5.5 118.5q5 33 24 67.5t46.5 63.5t61.5 50t68 27q42 6 83 -2t74.5 -28.5t57 -51t30.5 -67.5zM201 763q30 4 46.5 -5.5t23.5 -29t6.5 -47.5t-4 -60.5t-8 -68.5t-5.5 -72q-2 -61 -4.5 -127t-0.5 -126q3 -47 10 -85l15 -74q7 -35 11 -68t-2 -68q-17 -14 -31 -11t-26 15 t-22 28l-17 29q1 31 -2.5 64t-8.5 67t-9.5 69t-5.5 71q-2 51 2 109.5t6 118.5q1 35 1 72t0.5 71.5t4 64.5t12.5 51q4 2 3.5 7t4.5 5z" />
<glyph unicode="&#xa3;" horiz-adv-x="562" d="M207 671q-30 -126 -47 -269t-7 -294q40 -5 85 2l89 16q45 8 90.5 11t89.5 -11q9 -12 15.5 -25t8.5 -26t-2 -26t-17 -25q-47 -12 -96 -13.5t-102 -11.5q-32 -5 -63.5 -13.5t-62.5 -15t-62 -8t-63 7.5q-12 9 -18 20.5t-9.5 27.5t-5.5 36l-3 48q-3 34 -5 63.5t-2.5 58.5 t-0.5 60.5t2 69.5q3 72 15.5 141t20.5 128q2 15 2 29v27q0 13 2 23t9 16q15 17 36 17t41 -10t36.5 -25.5t23.5 -28.5zM326 431q-7 -4 -4.5 -12.5t-4.5 -19.5q-8 -8 -14.5 -12t-15.5 -5.5t-21.5 -1t-32.5 0.5q-78 -3 -147.5 -7t-130.5 3q-3 7 -8.5 14t-9 14.5t-4.5 16t4 18.5 q14 17 37.5 19.5t43.5 2.5q34 3 61 3.5t52.5 0.5t51.5 1t58 4q12 1 25.5 1t25.5 -4.5t21.5 -13t12.5 -23.5z" />
<glyph unicode="&#xa5;" horiz-adv-x="447" d="M228 472l-108 74q-55 36 -100 83q1 12 -3.5 28.5t-6.5 32.5t2 29t23 18q14 3 29.5 -5t31 -21.5t30 -29t27.5 -25.5q13 -11 28 -18.5t32 -18.5l32 -25q15 -11 32 -8q18 3 31.5 21.5t24.5 43.5t19 51t16 44l7 10q3 6 10 8q18 -1 35 -6t31 -13t23.5 -20t12.5 -27 q2 -15 -8.5 -40.5t-25.5 -51.5t-30 -49t-22 -35q-33 -53 -64.5 -98t-59.5 -101q-2 -6 -4 -10.5t-5 -10.5q-4 -6 -6.5 -11.5t-5.5 -11.5q-11 -22 -19 -45t-19 -45l-25 -56q-12 -25 -21.5 -50.5t-17 -54.5t-11.5 -65q-1 -12 -6.5 -36.5t-16.5 -47t-27.5 -37t-40.5 -8.5 q-19 5 -27.5 27t-10 50t2 57t8.5 48q13 51 37 103.5t43 100.5q31 72 61 134.5t62 117.5zM467 392q-8 -10 -18 -15t-22 -7t-25 -3l-28 -2q-37 -5 -77.5 -7.5t-82.5 -3.5t-84 0t-81 3q-4 9 -11.5 17t-13.5 16t-9 18t2 24q3 10 22 15.5t47 8t62 2.5t67.5 -0.5t63.5 -0.5t50 2 q25 1 54.5 -0.5t52 -8.5t33 -20.5t-1.5 -37.5zM-34 288q7 6 16 7.5t18.5 1t20 -2t19.5 0.5q32 1 64 4.5t65 7.5t69.5 6t77.5 0q14 -1 31.5 -1.5t32 -5t23 -13.5t3.5 -27q-1 -10 -14 -17.5t-32 -13.5t-39 -11l-34 -7q-27 -4 -63.5 -4.5t-78.5 -6.5q-32 -6 -66.5 -11 t-61.5 0.5t-42 26t-9 66.5z" />
<glyph unicode="&#xa8;" horiz-adv-x="371" d="M48 746q12 5 23.5 11t23 9t23.5 2t25 -8q15 -10 21 -27t6.5 -36.5t-2 -39t-5.5 -35.5q-14 -19 -30.5 -23t-33 2.5t-30.5 21.5t-22 35t-8.5 43t9.5 45zM321 623q-13 -5 -24.5 -10t-23.5 -7.5t-23.5 -1.5t-24.5 9q-15 11 -20 28t-4.5 36.5t4.5 39.5l7 35q22 27 48.5 22 t45.5 -27.5t25.5 -57t-10.5 -66.5z" />
<glyph unicode="&#xaa;" horiz-adv-x="366" d="M267 488q3 21 -7 43.5t-28.5 41t-43.5 30t-52 7.5q-12 -1 -20.5 -7.5t-16.5 -14.5t-16 -14t-18 -6t-18.5 4.5t-15 12t-10 16.5t-2.5 17q2 14 16 25t34.5 18.5t44 10.5t43.5 1q17 -2 34 -7.5t33 -14t30 -19t25 -22.5q10 -10 17 -18.5t12 -17t10 -19.5l11 -25l12 -24 q6 -13 9.5 -27t3.5 -30.5t-4 -35.5q-6 -6 -14 -9.5t-11 -11.5h-11h-11.5t-9.5 2t-6 6l-35 -20q-20 -12 -43 -21t-48 -14t-50 1q-15 3 -30.5 13.5t-26.5 24.5t-17.5 29.5t-4.5 28.5q1 14 14.5 29.5t35 27.5t47.5 18.5t53 4.5q14 -2 25 -6t21 -9l19 -10q9 -5 20 -9zM128 417 q10 0 23.5 3t27 7t26 10.5t20.5 13.5q-13 8 -31 8.5t-33.5 -5t-25.5 -15.5t-7 -22z" />
<glyph unicode="&#xad;" horiz-adv-x="446" d="M419 262q-7 -4 -4.5 -12.5t-4.5 -19.5q-8 -8 -14.5 -12t-15.5 -5.5t-21.5 -1t-32.5 0.5q-78 -3 -147.5 -7t-130.5 3q-3 7 -8.5 14t-9 14.5t-4.5 16t4 18.5q14 17 37.5 19.5t43.5 2.5q34 3 61 3.5t52.5 0.5t51.5 1t58 4q12 1 25.5 1t25.5 -4.5t21.5 -13t12.5 -23.5z" />
<glyph unicode="&#xb2;" horiz-adv-x="577" d="M258 142q25 -6 53 2l59 16q31 9 64 14.5t68 -4.5q23 -6 39.5 -26.5t21 -45t-6 -48.5t-41.5 -36q-10 -4 -21 -4t-24 2l-26 2q-13 2 -28 0q-34 -3 -62 -7.5t-54 -11t-51.5 -16.5t-55.5 -24q-14 -8 -25.5 -18t-22.5 -18.5t-22 -14.5t-23 -6q-17 0 -33.5 8t-28.5 23t-18 37 t-3 50q2 21 4.5 35.5t13.5 35.5q7 16 16.5 30.5t14.5 24.5q29 47 66 90l74 86q36 44 65.5 94.5t42.5 113.5q-22 15 -38 15t-29.5 -8.5t-25.5 -22.5t-24.5 -26.5t-27 -21t-32.5 -5.5q-13 1 -25 9.5t-21 22.5t-14 31.5t-4 36.5q1 40 24.5 68t59 43.5t78.5 18t83.5 -7t73.5 -32 t49 -56.5q10 -53 6 -97.5t-18 -83.5t-35.5 -73.5t-45.5 -66.5l-47 -64q-24 -31 -43 -64z" />
<glyph unicode="&#xb3;" d="M391 444q53 -21 88.5 -61t59.5 -94q2 -81 -14.5 -137t-47 -92.5t-74 -57t-95.5 -30t-110.5 -11.5t-119.5 -2q-12 10 -23 22t-19.5 29t-12 39.5t0.5 53.5q23 25 55 28.5t67 -1t71 -10t68 2.5q26 3 45.5 14t34.5 28t27 39t23 46q-18 31 -41.5 39t-51 4.5t-57 -12.5 t-58.5 -13q-11 10 -20 27t-14.5 36t-6.5 39.5t4 38.5q12 17 26 29l28 26q13 12 25.5 26.5t20.5 35.5q-30 16 -64.5 11.5t-72.5 -18.5q-15 -10 -27.5 -21.5t-24 -21t-22 -16t-22.5 -6.5q-14 4 -27 14.5t-23 27.5t-15 41t-3 54q19 31 54 53.5t78 35.5t90 15.5t90 -5t77.5 -26 t52.5 -49t15 -73.5t-35 -98z" />
<glyph unicode="&#xb4;" horiz-adv-x="250" d="M224 669q-11 -15 -22 -26l-23 -20l-24 -21q-12 -10 -27 -25q-15 -13 -28.5 -27t-25.5 -23.5t-24 -11t-24 9.5q-21 21 -5.5 49.5t46.5 59.5l65 64q34 32 50 58q4 3 7 1.5t5 1.5q28 -20 31.5 -43t-1.5 -47z" />
<glyph unicode="&#xb9;" horiz-adv-x="357" d="M311 179q3 -23 13 -39l20 -32q9 -14 15.5 -28t3.5 -30q0 -13 -8.5 -26.5t-20.5 -25t-25 -18.5t-22 -7q-23 0 -40 17.5t-29 41.5t-19.5 49.5t-10.5 42.5q-10 32 -12.5 76t-0.5 91.5t7 94.5l8 87l-36 -33q-20 -18 -41 -29.5t-42.5 -11t-40.5 26.5q-29 36 -24 63t30 51 t61 46t69 48q10 9 17 14t13 10l10 8q5 4 10 11q7 7 9 3.5t10 -3.5q5 -8 10.5 -10t5.5 -8q27 -12 45.5 -25.5t31.5 -25.5q10 -39 5.5 -90.5t-12.5 -108.5t-13.5 -116t3.5 -114z" />
<glyph unicode="&#xba;" horiz-adv-x="462" d="M128 405q6 1 22.5 2.5t37 2.5t40 1.5t30.5 -1.5q8 -2 23 -10.5t31 -20t30 -23.5l23 -19q8 -9 18.5 -22t20.5 -28.5t18 -31.5t10 -29q8 -45 -2 -75.5t-32 -55.5q-22 -24 -58 -47t-78 -36t-86.5 -12.5t-81.5 23.5q-30 18 -51.5 55t-30.5 82t-5 92t24 85q14 26 36 44t61 24z M223 259q-12 12 -25.5 16.5t-25 3t-20 -9.5t-11.5 -21q-1 -2 -4 -3.5t-4 -3.5q-5 -21 -3.5 -41.5t9.5 -36.5t22 -26t34 -10q17 0 38 6.5t38.5 18.5t28.5 28.5t8 36.5q-3 19 -20.5 29.5t-32.5 23.5q-9 -2 -15 -6t-17 -5z" />
<glyph unicode="&#xbc;" horiz-adv-x="677" d="M206 378q2 -14 8 -24l12 -19q6 -9 9.5 -17.5t2.5 -18.5q0 -8 -5.5 -16.5t-13 -15.5t-15 -11.5t-13.5 -4.5q-14 0 -24.5 11t-18 25.5t-12 30.5t-6.5 26q-6 20 -7.5 47t0 56t3.5 58l6 54l-23 -20q-12 -12 -25 -19t-26 -6.5t-25 16.5q-17 22 -14 38.5t18 31t37.5 28.5 t42.5 29q6 6 10.5 9t7.5 6l6 5q3 3 6 7q5 4 6 2t6 -2q3 -5 6.5 -6t3.5 -5q17 -8 28 -16t19 -15q6 -24 3.5 -56t-7.5 -67t-8.5 -71t2.5 -70zM543 714q8 -14 9.5 -26.5t3.5 -24.5q-5 -11 -14 -18.5t-20 -15.5l-48 -83l-45 -79q-63 -121 -120 -247t-107 -257q-24 -7 -41 3 t-31 30q8 23 18.5 44.5t19.5 43.5q8 18 16.5 33.5t16.5 35.5q28 68 61 141l69 144q32 63 70 125t63 132q5 2 5.5 5t4.5 5q12 8 33.5 11.5t35.5 -2.5zM636 16q-4 -7 -7.5 -14.5t-7.5 -14.5t-8.5 -11.5t-10.5 -4.5q-12 -1 -21 8t-14 24.5t-7.5 37t-4 44t-1.5 44.5v42 q-14 -6 -29.5 -8.5t-31.5 -4t-31.5 -2.5t-28.5 -5q-9 -5 -15.5 -11.5t-15.5 -6.5q-8 3 -16 11t-14.5 19t-11 22t-6.5 19q-1 24 5 48t15 48l17 46q8 22 11 42q12 4 20.5 1.5t16 -7.5t14.5 -11.5t16 -9.5q1 -22 -2.5 -36.5t-9.5 -26.5l-11 -21q-6 -10 -9 -23q12 -5 26.5 -3.5 t30 3.5t31 1.5t29.5 -8.5q3 16 3.5 36t1.5 40.5t4 38.5t12 30q10 0 21 -3t20 -8.5t15.5 -13.5t9.5 -17q1 -12 -1.5 -29t-6 -37t-7 -42.5t-5.5 -44.5q-1 -28 -1 -52t1.5 -46t5.5 -42.5t9 -40.5z" />
<glyph unicode="&#xbd;" horiz-adv-x="692" d="M503 53q14 -3 31 1l34 9q17 6 36.5 9t39.5 -3q13 -3 22.5 -15t12 -26t-3.5 -28t-24 -21q-5 -2 -11.5 -2t-13.5 1l-15 1q-8 1 -17 0q-19 -2 -35.5 -4.5t-31.5 -6t-29.5 -9.5l-32.5 -14q-8 -5 -14.5 -10.5l-13 -10.5t-12.5 -8.5t-13 -3.5q-10 0 -19.5 4.5t-16.5 13.5 t-10.5 21.5t-1.5 28.5q1 12 2.5 20.5t7.5 20.5q4 9 9.5 17.5t8.5 14.5q17 27 38 52l43 50q21 25 38 54t24 66q-12 9 -21.5 9t-17 -5t-14.5 -13t-14.5 -15.5t-16 -12.5t-18.5 -3q-7 1 -14 5.5t-12.5 13t-8 18.5t-2.5 21q1 23 14.5 39t34 25t45 10.5t48 -4t42.5 -18.5t29 -33 q5 -30 3 -56t-10 -48.5t-20.5 -42.5t-26.5 -38l-27 -37q-14 -18 -25 -37zM206 378q2 -14 8 -24l12 -19q6 -9 9.5 -17.5t2.5 -18.5q0 -8 -5.5 -16.5t-13 -15.5t-15 -11.5t-13.5 -4.5q-14 0 -24.5 11t-18 25.5t-12 30.5t-6.5 26q-6 20 -7.5 47t0 56t3.5 58l6 54l-23 -20 q-12 -12 -25 -19t-26 -6.5t-25 16.5q-17 22 -14 38.5t18 31t37.5 28.5t42.5 29q6 6 10.5 9t7.5 6l6 5q3 3 6 7q5 4 6 2t6 -2q3 -5 6.5 -6t3.5 -5q17 -8 28 -16t19 -15q6 -24 3.5 -56t-7.5 -67t-8.5 -71t2.5 -70zM543 714q8 -14 9.5 -26.5t3.5 -24.5q-5 -11 -14 -18.5 t-20 -15.5l-48 -83l-45 -79q-63 -121 -120 -247t-107 -257q-24 -7 -41 3t-31 30q8 23 18.5 44.5t19.5 43.5q8 18 16.5 33.5t16.5 35.5q28 68 61 141l69 144q32 63 70 125t63 132q5 2 5.5 5t4.5 5q12 8 33.5 11.5t35.5 -2.5z" />
<glyph unicode="&#xbe;" horiz-adv-x="677" d="M221 554q27 -10 45.5 -31t31.5 -49q1 -43 -7.5 -72t-24.5 -48t-38.5 -29.5t-50 -15.5t-58 -6t-61.5 -1q-7 5 -12.5 11t-10 15t-6.5 21t1 28q11 13 28 14.5t35 -0.5t37 -5t35 1q14 2 24 7.5t18 14.5t14 20.5l12 23.5q-9 16 -21.5 20.5t-26.5 2.5t-29.5 -6.5t-30.5 -6.5 q-6 5 -10.5 14t-7.5 18.5t-3.5 20.5t2.5 20q6 9 13 16l14 13q7 6 13.5 13.5t11.5 18.5q-16 9 -34 6.5t-38 -9.5q-8 -6 -14.5 -12t-12.5 -11t-11 -8t-12 -3q-7 2 -14 7.5t-12 14t-7.5 21t-1.5 28.5q10 16 28 28t40.5 18.5t47 8t47 -2.5t40.5 -13.5t27 -25.5t7.5 -38.5 t-17.5 -51.5zM543 714q8 -14 9.5 -26.5t3.5 -24.5q-5 -11 -14 -18.5t-20 -15.5l-48 -83l-45 -79q-63 -121 -120 -247t-107 -257q-24 -7 -41 3t-31 30q8 23 18.5 44.5t19.5 43.5q8 18 16.5 33.5t16.5 35.5q28 68 61 141l69 144q32 63 70 125t63 132q5 2 5.5 5t4.5 5 q12 8 33.5 11.5t35.5 -2.5zM636 16q-4 -7 -7.5 -14.5t-7.5 -14.5t-8.5 -11.5t-10.5 -4.5q-12 -1 -21 8t-14 24.5t-7.5 37t-4 44t-1.5 44.5v42q-14 -6 -29.5 -8.5t-31.5 -4t-31.5 -2.5t-28.5 -5q-9 -5 -15.5 -11.5t-15.5 -6.5q-8 3 -16 11t-14.5 19t-11 22t-6.5 19 q-1 24 5 48t15 48l17 46q8 22 11 42q12 4 20.5 1.5t16 -7.5t14.5 -11.5t16 -9.5q1 -22 -2.5 -36.5t-9.5 -26.5l-11 -21q-6 -10 -9 -23q12 -5 26.5 -3.5t30 3.5t31 1.5t29.5 -8.5q3 16 3.5 36t1.5 40.5t4 38.5t12 30q10 0 21 -3t20 -8.5t15.5 -13.5t9.5 -17q1 -12 -1.5 -29 t-6 -37t-7 -42.5t-5.5 -44.5q-1 -28 -1 -52t1.5 -46t5.5 -42.5t9 -40.5z" />
<glyph unicode="&#xbf;" horiz-adv-x="387" d="M205 361q-6 6 -11 17t-6.5 23t1.5 22.5t11 16.5q27 0 50 -16.5t34 -36.5q14 -22 17.5 -39t-1.5 -32t-17 -29.5t-30 -32.5l-49 -43q-28 -24 -50.5 -52t-35 -61t-4.5 -73q24 -10 54.5 -12t57 6t43.5 26.5t15 48.5q18 0 30 -6t21 -15.5t17 -21t19 -21.5q-4 -36 -27 -58 t-56 -31.5t-71 -8.5t-73.5 11.5t-64 28.5t-40.5 42q-17 29 -18 58.5t8 53.5q6 18 11.5 31t12 24.5t15.5 23.5l20 28q11 12 22 28.5t19 25.5q10 10 22 17.5t22.5 15t19 17.5t12.5 24zM157 606q0 16 1 34t9 30q14 4 30 -2t29.5 -15.5t22.5 -21.5t9 -20q-2 -16 -13.5 -22.5 t-27 -6t-32 7t-28.5 16.5z" />
<glyph unicode="&#xc0;" d="M587 10q-41 -22 -72.5 -12.5t-54.5 36.5t-38 63.5t-23 69.5q-25 -5 -52 -13t-54.5 -12.5t-55.5 -3t-55 15.5q-14 -17 -24 -36t-19 -38l-17 -40q-9 -20 -21 -39q-19 -11 -36 -10.5t-32 7t-27 17.5t-20 21q36 81 78 154l83 146q42 73 81 148t69 159q-6 13 -7 23t0.5 19 t4 19.5t2.5 25.5q50 8 82 -8.5t51 -50.5t28 -81t13.5 -99t6.5 -104t8 -97q5 -54 18 -105t24 -83q8 -14 18 -24l19 -20q9 -10 15.5 -21t6.5 -27zM238 240q14 -3 31.5 -1.5t35.5 4.5l36 6q18 3 34 3q0 24 -3.5 50.5t-6.5 53.5t-4.5 52.5t1.5 47.5q-7 0 -11.5 2t-10.5 2 q-26 -53 -55.5 -104.5t-46.5 -115.5zM250 922q14 -13 23.5 -25l18.5 -24l18 -25q9 -14 23 -30q12 -16 24.5 -30.5t20.5 -27.5t8.5 -25t-11.5 -23q-15 -13 -32 -8.5t-35.5 20t-37.5 38.5l-39 48l-37 44q-18 22 -34 34q-3 4 -1.5 7t-0.5 5q22 26 45.5 28t46.5 -6z" />
<glyph unicode="&#xc1;" d="M587 10q-41 -22 -72.5 -12.5t-54.5 36.5t-38 63.5t-23 69.5q-25 -5 -52 -13t-54.5 -12.5t-55.5 -3t-55 15.5q-14 -17 -24 -36t-19 -38l-17 -40q-9 -20 -21 -39q-19 -11 -36 -10.5t-32 7t-27 17.5t-20 21q36 81 78 154l83 146q42 73 81 148t69 159q-6 13 -7 23t0.5 19 t4 19.5t2.5 25.5q50 8 82 -8.5t51 -50.5t28 -81t13.5 -99t6.5 -104t8 -97q5 -54 18 -105t24 -83q8 -14 18 -24l19 -20q9 -10 15.5 -21t6.5 -27zM238 240q14 -3 31.5 -1.5t35.5 4.5l36 6q18 3 34 3q0 24 -3.5 50.5t-6.5 53.5t-4.5 52.5t1.5 47.5q-7 0 -11.5 2t-10.5 2 q-26 -53 -55.5 -104.5t-46.5 -115.5zM406 869q-11 -15 -22 -25l-22 -21l-24 -21q-13 -10 -28 -25q-15 -13 -28.5 -27t-25.5 -23.5t-24 -11t-24 9.5q-21 21 -5.5 49.5t46.5 59.5l65 64q34 32 50 58q4 3 7 1.5t5 1.5q28 -20 31.5 -43t-1.5 -47z" />
<glyph unicode="&#xc2;" d="M587 10q-41 -22 -72.5 -12.5t-54.5 36.5t-38 63.5t-23 69.5q-25 -5 -52 -13t-54.5 -12.5t-55.5 -3t-55 15.5q-14 -17 -24 -36t-19 -38l-17 -40q-9 -20 -21 -39q-19 -11 -36 -10.5t-32 7t-27 17.5t-20 21q36 81 78 154l83 146q42 73 81 148t69 159q-6 13 -7 23t0.5 19 t4 19.5t2.5 25.5q50 8 82 -8.5t51 -50.5t28 -81t13.5 -99t6.5 -104t8 -97q5 -54 18 -105t24 -83q8 -14 18 -24l19 -20q9 -10 15.5 -21t6.5 -27zM238 240q14 -3 31.5 -1.5t35.5 4.5l36 6q18 3 34 3q0 24 -3.5 50.5t-6.5 53.5t-4.5 52.5t1.5 47.5q-7 0 -11.5 2t-10.5 2 q-26 -53 -55.5 -104.5t-46.5 -115.5zM237 863q-10 -14 -17 -22l-12 -15l-11 -16t-13 -25q-5 -11 -6 -20t-2.5 -16.5t-5 -12.5t-13.5 -7q-14 -2 -25 6t-18 20t-10.5 26t-2.5 24q0 11 11.5 27.5t20.5 32.5q11 20 19 33l14 24l13 24q7 13 16 34q16 9 31 -2t23 -30.5t6.5 -43.5 t-18.5 -41zM399 907q5 -17 7 -27t4 -18.5t5.5 -18.5t11.5 -26q5 -11 11.5 -17.5t11.5 -12t6.5 -11.5t-3.5 -15q-7 -12 -20 -16t-27 -1.5t-27 8.5t-20 13q-9 7 -14.5 26t-12.5 36l-13 35q-5 14 -10 26.5t-11 26t-16 33.5q3 18 21 23t38.5 -1.5t37.5 -22.5t20 -40z" />
<glyph unicode="&#xc3;" d="M587 10q-41 -22 -72.5 -12.5t-54.5 36.5t-38 63.5t-23 69.5q-25 -5 -52 -13t-54.5 -12.5t-55.5 -3t-55 15.5q-14 -17 -24 -36t-19 -38l-17 -40q-9 -20 -21 -39q-19 -11 -36 -10.5t-32 7t-27 17.5t-20 21q36 81 78 154l83 146q42 73 81 148t69 159q-6 13 -7 23t0.5 19 t4 19.5t2.5 25.5q50 8 82 -8.5t51 -50.5t28 -81t13.5 -99t6.5 -104t8 -97q5 -54 18 -105t24 -83q8 -14 18 -24l19 -20q9 -10 15.5 -21t6.5 -27zM238 240q14 -3 31.5 -1.5t35.5 4.5l36 6q18 3 34 3q0 24 -3.5 50.5t-6.5 53.5t-4.5 52.5t1.5 47.5q-7 0 -11.5 2t-10.5 2 q-26 -53 -55.5 -104.5t-46.5 -115.5zM529 773q-2 -14 -9.5 -22t-18 -13.5t-22.5 -8.5t-21 -6q-50 -10 -95 1.5t-90 27.5l-54 25q-25 12 -50 9q-13 -1 -22.5 -9t-18.5 -16.5t-18.5 -15t-21.5 -5.5q-20 1 -26 14t-3 29t12.5 31.5t20.5 22.5q13 8 32.5 14.5t27.5 6.5 q28 3 53 -6t50.5 -22.5t53.5 -26.5t61 -17q27 -3 50.5 1.5t43.5 7.5t36.5 0t28.5 -22z" />
<glyph unicode="&#xc4;" d="M587 10q-41 -22 -72.5 -12.5t-54.5 36.5t-38 63.5t-23 69.5q-25 -5 -52 -13t-54.5 -12.5t-55.5 -3t-55 15.5q-14 -17 -24 -36t-19 -38l-17 -40q-9 -20 -21 -39q-19 -11 -36 -10.5t-32 7t-27 17.5t-20 21q36 81 78 154l83 146q42 73 81 148t69 159q-6 13 -7 23t0.5 19 t4 19.5t2.5 25.5q50 8 82 -8.5t51 -50.5t28 -81t13.5 -99t6.5 -104t8 -97q5 -54 18 -105t24 -83q8 -14 18 -24l19 -20q9 -10 15.5 -21t6.5 -27zM238 240q14 -3 31.5 -1.5t35.5 4.5l36 6q18 3 34 3q0 24 -3.5 50.5t-6.5 53.5t-4.5 52.5t1.5 47.5q-7 0 -11.5 2t-10.5 2 q-26 -53 -55.5 -104.5t-46.5 -115.5zM143 946q12 5 23.5 11t23 9t23.5 2t25 -8q15 -10 21 -27t6.5 -36.5t-2 -39t-5.5 -35.5q-14 -19 -30.5 -23t-33 2.5t-30.5 21.5t-22 35t-8.5 43t9.5 45zM416 823q-13 -5 -24.5 -10t-23.5 -7.5t-23.5 -1.5t-24.5 9q-15 11 -20 28 t-4.5 36.5t4.5 39.5l7 35q22 27 48.5 22t45.5 -27.5t25.5 -57t-10.5 -66.5z" />
<glyph unicode="&#xc6;" horiz-adv-x="1200" d="M587 10q-41 -22 -72.5 -12.5t-54.5 36.5t-38 63.5t-23 69.5q-25 -5 -52 -13t-54.5 -12.5t-55.5 -3t-55 15.5q-14 -17 -24 -36t-19 -38l-17 -40q-9 -20 -21 -39q-19 -11 -36 -10.5t-32 7t-27 17.5t-20 21q36 81 78 154l83 146q42 73 81 148t69 159q-6 13 -7 23t0.5 19 t4 19.5t2.5 25.5q50 8 82 -8.5t51 -50.5t28 -81t13.5 -99t6.5 -104t8 -97q5 -54 18 -105t24 -83q8 -14 18 -24l19 -20q9 -10 15.5 -21t6.5 -27zM238 240q14 -3 31.5 -1.5t35.5 4.5l36 6q18 3 34 3q0 24 -3.5 50.5t-6.5 53.5t-4.5 52.5t1.5 47.5q-7 0 -11.5 2t-10.5 2 q-26 -53 -55.5 -104.5t-46.5 -115.5zM851 600q-28 15 -60 13t-64.5 -16t-63 -37t-56 -50t-44 -55t-26.5 -51q8 -7 28.5 -7.5t44.5 0.5t48 1t39 -7q22 -24 31 -61q-12 -20 -33 -31t-48 -16.5t-58 -6.5t-64 -1q-3 -31 4.5 -59.5t21 -52t33 -40.5t40.5 -26q1 -1 7 -3t13 -4 t13.5 -3.5t8.5 -1.5q21 0 42 10t41 22t39 21.5t38 7.5q15 -2 26.5 -10.5t20.5 -20t15 -23.5l12 -20q-18 -25 -44.5 -47t-59.5 -37t-72 -19.5t-82 5.5q-39 9 -72.5 31.5t-61.5 51t-52 59.5l-42 54q-30 89 -26.5 167t31 142.5t74.5 115t106 86.5q24 14 57 29.5t70 24.5 t75.5 7.5t74.5 -19.5q15 -8 39 -29.5t43 -50.5t24.5 -61.5t-15.5 -61.5q-6 -8 -15.5 -11t-20 -4t-19 0.5t-12.5 3.5q-26 11 -36 36t-13 55z" />
<glyph unicode="&#xc8;" horiz-adv-x="636" d="M483 598q-28 15 -60 13t-64.5 -16t-63 -37t-56 -50t-44 -55t-26.5 -51q8 -7 28.5 -7.5t44.5 0.5t48 1t39 -7q22 -24 31 -61q-12 -20 -33 -31t-48 -16.5t-58 -6.5t-64 -1q-3 -31 4.5 -59.5t21 -52t33 -40.5t40.5 -26q1 -1 7 -3t13 -4t13.5 -3.5t8.5 -1.5q21 0 42 10t41 22 t39 21.5t38 7.5q15 -2 26.5 -10.5t20.5 -20t15 -23.5l12 -20q-18 -25 -44.5 -47t-59.5 -37t-72 -19.5t-82 5.5q-39 9 -72.5 31.5t-61.5 51t-52 59.5l-42 54q-30 89 -26.5 167t31 142.5t74.5 115t106 86.5q24 14 57 29.5t70 24.5t75.5 7.5t74.5 -19.5q15 -8 39 -29.5 t43 -50.5t24.5 -61.5t-15.5 -61.5q-6 -8 -15.5 -11t-20 -4t-19 0.5t-12.5 3.5q-26 11 -36 36t-13 55zM286 922q14 -13 23.5 -25l18.5 -24l18 -25q9 -14 23 -30q12 -16 24.5 -30.5t20.5 -27.5t8.5 -25t-11.5 -23q-15 -13 -32 -8.5t-35.5 20t-37.5 38.5l-39 48l-37 44 q-18 22 -34 34q-3 4 -1.5 7t-0.5 5q22 26 45.5 28t46.5 -6z" />
<glyph unicode="&#xc9;" horiz-adv-x="636" d="M483 598q-28 15 -60 13t-64.5 -16t-63 -37t-56 -50t-44 -55t-26.5 -51q8 -7 28.5 -7.5t44.5 0.5t48 1t39 -7q22 -24 31 -61q-12 -20 -33 -31t-48 -16.5t-58 -6.5t-64 -1q-3 -31 4.5 -59.5t21 -52t33 -40.5t40.5 -26q1 -1 7 -3t13 -4t13.5 -3.5t8.5 -1.5q21 0 42 10t41 22 t39 21.5t38 7.5q15 -2 26.5 -10.5t20.5 -20t15 -23.5l12 -20q-18 -25 -44.5 -47t-59.5 -37t-72 -19.5t-82 5.5q-39 9 -72.5 31.5t-61.5 51t-52 59.5l-42 54q-30 89 -26.5 167t31 142.5t74.5 115t106 86.5q24 14 57 29.5t70 24.5t75.5 7.5t74.5 -19.5q15 -8 39 -29.5 t43 -50.5t24.5 -61.5t-15.5 -61.5q-6 -8 -15.5 -11t-20 -4t-19 0.5t-12.5 3.5q-26 11 -36 36t-13 55zM442 869q-11 -15 -22 -25l-22 -21l-24 -21q-13 -10 -28 -25q-15 -13 -28.5 -27t-25.5 -23.5t-24 -11t-24 9.5q-21 21 -5.5 49.5t46.5 59.5l65 64q34 32 50 58q4 3 7 1.5 t5 1.5q28 -20 31.5 -43t-1.5 -47z" />
<glyph unicode="&#xca;" horiz-adv-x="636" d="M483 598q-28 15 -60 13t-64.5 -16t-63 -37t-56 -50t-44 -55t-26.5 -51q8 -7 28.5 -7.5t44.5 0.5t48 1t39 -7q22 -24 31 -61q-12 -20 -33 -31t-48 -16.5t-58 -6.5t-64 -1q-3 -31 4.5 -59.5t21 -52t33 -40.5t40.5 -26q1 -1 7 -3t13 -4t13.5 -3.5t8.5 -1.5q21 0 42 10t41 22 t39 21.5t38 7.5q15 -2 26.5 -10.5t20.5 -20t15 -23.5l12 -20q-18 -25 -44.5 -47t-59.5 -37t-72 -19.5t-82 5.5q-39 9 -72.5 31.5t-61.5 51t-52 59.5l-42 54q-30 89 -26.5 167t31 142.5t74.5 115t106 86.5q24 14 57 29.5t70 24.5t75.5 7.5t74.5 -19.5q15 -8 39 -29.5 t43 -50.5t24.5 -61.5t-15.5 -61.5q-6 -8 -15.5 -11t-20 -4t-19 0.5t-12.5 3.5q-26 11 -36 36t-13 55zM273 863q-10 -14 -17 -22l-12 -15l-11 -16t-13 -25q-5 -11 -6 -20t-2.5 -16.5t-5 -12.5t-13.5 -7q-14 -2 -25 6t-18 20t-10.5 26t-2.5 24q0 11 11.5 27.5t20.5 32.5 q11 20 19 33l14 24l13 24q7 13 16 34q16 9 31 -2t23 -30.5t6.5 -43.5t-18.5 -41zM435 907q5 -17 7 -27t4 -18.5t5.5 -18.5t11.5 -26q5 -11 11.5 -17.5t11.5 -12t6.5 -11.5t-3.5 -15q-7 -12 -20 -16t-27 -1.5t-27 8.5t-20 13q-9 7 -14.5 26t-12.5 36l-13 35q-5 14 -10 26.5 t-11 26t-16 33.5q3 18 21 23t38.5 -1.5t37.5 -22.5t20 -40z" />
<glyph unicode="&#xcb;" horiz-adv-x="636" d="M483 598q-28 15 -60 13t-64.5 -16t-63 -37t-56 -50t-44 -55t-26.5 -51q8 -7 28.5 -7.5t44.5 0.5t48 1t39 -7q22 -24 31 -61q-12 -20 -33 -31t-48 -16.5t-58 -6.5t-64 -1q-3 -31 4.5 -59.5t21 -52t33 -40.5t40.5 -26q1 -1 7 -3t13 -4t13.5 -3.5t8.5 -1.5q21 0 42 10t41 22 t39 21.5t38 7.5q15 -2 26.5 -10.5t20.5 -20t15 -23.5l12 -20q-18 -25 -44.5 -47t-59.5 -37t-72 -19.5t-82 5.5q-39 9 -72.5 31.5t-61.5 51t-52 59.5l-42 54q-30 89 -26.5 167t31 142.5t74.5 115t106 86.5q24 14 57 29.5t70 24.5t75.5 7.5t74.5 -19.5q15 -8 39 -29.5 t43 -50.5t24.5 -61.5t-15.5 -61.5q-6 -8 -15.5 -11t-20 -4t-19 0.5t-12.5 3.5q-26 11 -36 36t-13 55zM179 946q12 5 23.5 11t23 9t23.5 2t25 -8q15 -10 21 -27t6.5 -36.5t-2 -39t-5.5 -35.5q-14 -19 -30.5 -23t-33 2.5t-30.5 21.5t-22 35t-8.5 43t9.5 45zM452 823 q-13 -5 -24.5 -10t-23.5 -7.5t-23.5 -1.5t-24.5 9q-15 11 -20 28t-4.5 36.5t4.5 39.5l7 35q22 27 48.5 22t45.5 -27.5t25.5 -57t-10.5 -66.5z" />
<glyph unicode="&#xcc;" horiz-adv-x="689" d="M354 615l2 -69q2 -40 3 -87t1.5 -97t1.5 -96.5t1.5 -86t1.5 -65.5q17 -3 46 0t63.5 7t70.5 6t66.5 -3t52 -19t26.5 -43q2 -9 -4.5 -13t-11.5 -8q-12 -10 -26 -14t-31.5 -5t-37 -1t-41.5 -1q-56 -4 -121.5 -14.5t-131.5 -18t-128 -8t-110 14.5q-16 21 -26 46.5t5 58.5 q18 9 46 9t58.5 -4t60.5 -8.5t53 -2.5q5 42 5 104.5t-1.5 131t-3.5 135t0 114.5q-20 1 -46.5 -3.5t-54 -8.5t-53.5 -5t-45 8t-28 31t-3 62q53 3 115.5 18.5t129 30t134.5 20t134 -10.5q34 -10 55 -21t40 -37q8 -12 14 -18t1 -19q-6 -23 -22.5 -26t-37 3.5t-42.5 16t-39 12.5 q-42 5 -75.5 -3.5t-66.5 -12.5zM312 922q14 -13 23.5 -25l18.5 -24l18 -25q9 -14 23 -30q12 -16 24.5 -30.5t20.5 -27.5t8.5 -25t-11.5 -23q-15 -13 -32 -8.5t-35.5 20t-37.5 38.5l-39 48l-37 44q-18 22 -34 34q-3 4 -1.5 7t-0.5 5q22 26 45.5 28t46.5 -6z" />
<glyph unicode="&#xcd;" horiz-adv-x="689" d="M354 615l2 -69q2 -40 3 -87t1.5 -97t1.5 -96.5t1.5 -86t1.5 -65.5q17 -3 46 0t63.5 7t70.5 6t66.5 -3t52 -19t26.5 -43q2 -9 -4.5 -13t-11.5 -8q-12 -10 -26 -14t-31.5 -5t-37 -1t-41.5 -1q-56 -4 -121.5 -14.5t-131.5 -18t-128 -8t-110 14.5q-16 21 -26 46.5t5 58.5 q18 9 46 9t58.5 -4t60.5 -8.5t53 -2.5q5 42 5 104.5t-1.5 131t-3.5 135t0 114.5q-20 1 -46.5 -3.5t-54 -8.5t-53.5 -5t-45 8t-28 31t-3 62q53 3 115.5 18.5t129 30t134.5 20t134 -10.5q34 -10 55 -21t40 -37q8 -12 14 -18t1 -19q-6 -23 -22.5 -26t-37 3.5t-42.5 16t-39 12.5 q-42 5 -75.5 -3.5t-66.5 -12.5zM468 869q-11 -15 -22 -25l-22 -21l-24 -21q-13 -10 -28 -25q-15 -13 -28.5 -27t-25.5 -23.5t-24 -11t-24 9.5q-21 21 -5.5 49.5t46.5 59.5l65 64q34 32 50 58q4 3 7 1.5t5 1.5q28 -20 31.5 -43t-1.5 -47z" />
<glyph unicode="&#xce;" horiz-adv-x="689" d="M354 615l2 -69q2 -40 3 -87t1.5 -97t1.5 -96.5t1.5 -86t1.5 -65.5q17 -3 46 0t63.5 7t70.5 6t66.5 -3t52 -19t26.5 -43q2 -9 -4.5 -13t-11.5 -8q-12 -10 -26 -14t-31.5 -5t-37 -1t-41.5 -1q-56 -4 -121.5 -14.5t-131.5 -18t-128 -8t-110 14.5q-16 21 -26 46.5t5 58.5 q18 9 46 9t58.5 -4t60.5 -8.5t53 -2.5q5 42 5 104.5t-1.5 131t-3.5 135t0 114.5q-20 1 -46.5 -3.5t-54 -8.5t-53.5 -5t-45 8t-28 31t-3 62q53 3 115.5 18.5t129 30t134.5 20t134 -10.5q34 -10 55 -21t40 -37q8 -12 14 -18t1 -19q-6 -23 -22.5 -26t-37 3.5t-42.5 16t-39 12.5 q-42 5 -75.5 -3.5t-66.5 -12.5zM299 863q-10 -14 -17 -22l-12 -15l-11 -16t-13 -25q-5 -11 -6 -20t-2.5 -16.5t-5 -12.5t-13.5 -7q-14 -2 -25 6t-18 20t-10.5 26t-2.5 24q0 11 11.5 27.5t20.5 32.5q11 20 19 33l14 24l13 24q7 13 16 34q16 9 31 -2t23 -30.5t6.5 -43.5 t-18.5 -41zM461 907q5 -17 7 -27t4 -18.5t5.5 -18.5t11.5 -26q5 -11 11.5 -17.5t11.5 -12t6.5 -11.5t-3.5 -15q-7 -12 -20 -16t-27 -1.5t-27 8.5t-20 13q-9 7 -14.5 26t-12.5 36l-13 35q-5 14 -10 26.5t-11 26t-16 33.5q3 18 21 23t38.5 -1.5t37.5 -22.5t20 -40z" />
<glyph unicode="&#xcf;" horiz-adv-x="689" d="M354 615l2 -69q2 -40 3 -87t1.5 -97t1.5 -96.5t1.5 -86t1.5 -65.5q17 -3 46 0t63.5 7t70.5 6t66.5 -3t52 -19t26.5 -43q2 -9 -4.5 -13t-11.5 -8q-12 -10 -26 -14t-31.5 -5t-37 -1t-41.5 -1q-56 -4 -121.5 -14.5t-131.5 -18t-128 -8t-110 14.5q-16 21 -26 46.5t5 58.5 q18 9 46 9t58.5 -4t60.5 -8.5t53 -2.5q5 42 5 104.5t-1.5 131t-3.5 135t0 114.5q-20 1 -46.5 -3.5t-54 -8.5t-53.5 -5t-45 8t-28 31t-3 62q53 3 115.5 18.5t129 30t134.5 20t134 -10.5q34 -10 55 -21t40 -37q8 -12 14 -18t1 -19q-6 -23 -22.5 -26t-37 3.5t-42.5 16t-39 12.5 q-42 5 -75.5 -3.5t-66.5 -12.5zM206 946q12 5 23.5 11t23 9t23.5 2t25 -8q15 -10 21 -27t6.5 -36.5t-2 -39t-5.5 -35.5q-14 -19 -30.5 -23t-33 2.5t-30.5 21.5t-22 35t-8.5 43t9.5 45zM479 823q-13 -5 -24.5 -10t-23.5 -7.5t-23.5 -1.5t-24.5 9q-15 11 -20 28t-4.5 36.5 t4.5 39.5l7 35q22 27 48.5 22t45.5 -27.5t25.5 -57t-10.5 -66.5z" />
<glyph unicode="&#xd0;" horiz-adv-x="833" d="M350 7q-14 -7 -20 -17l-13 -21q-6 -11 -14.5 -19.5t-24.5 -12.5q-11 -3 -20 -2.5t-18.5 3t-20.5 4.5t-25 2q-7 18 -16.5 33.5t-20 31t-20 32t-15.5 36.5q-18 57 -27.5 123t-16 135.5t-14 139.5t-20.5 135q-30 -6 -62.5 -17t-63.5 -19.5t-59.5 -11t-49.5 8.5t-34 38.5 t-13 78.5q94 42 202 60t215 12.5t206 -33t176 -77.5q46 -30 88.5 -72.5t75.5 -90.5t54.5 -97t24.5 -93q2 -33 -3.5 -60t-15.5 -52t-22 -49t-22 -50q-32 -27 -77 -44.5t-96.5 -26.5t-107.5 -11t-110 3zM255 156q64 -10 129.5 -12.5t121 8t94 37.5t47.5 77q11 55 -3.5 103 t-47 88t-80 71t-103.5 51.5t-116.5 30t-119.5 7.5q23 -44 34.5 -100t18 -117t11 -123.5t14.5 -120.5zM374 366q-7 -4 -4.5 -12.5t-4.5 -19.5q-8 -8 -14.5 -12t-15.5 -5.5t-21.5 -1t-32.5 0.5q-78 -3 -147.5 -7t-130.5 3q-3 7 -8.5 14t-9 14.5t-4.5 16t4 18.5 q14 17 37.5 19.5t43.5 2.5q34 3 61 3.5t52.5 0.5t51.5 1t58 4q12 1 25.5 1t25.5 -4.5t21.5 -13t12.5 -23.5z" />
<glyph unicode="&#xd1;" horiz-adv-x="717" d="M660 28q-20 -29 -44.5 -32t-50 9t-50 34t-44.5 43q-39 39 -79 88l-78 100l-72 98q-35 47 -65 83q0 -24 -5 -59l-9 -76q-5 -41 -8 -85t1 -87q3 -28 7 -58t2.5 -54.5t-12 -41t-38.5 -18.5q-20 -1 -30 5.5t-17.5 17t-15 23t-20.5 22.5q-8 61 -5 120t9 119l12 121q6 61 6 126 q0 15 1 32t-1 29q-5 24 -17 41l-23 34q-10 17 -14.5 34.5t5.5 41.5q37 15 66.5 5.5t53.5 -32.5t44.5 -53.5t41.5 -56.5q39 -51 79 -109l79 -114q40 -56 82 -108t87 -92q7 52 13 116.5t7 132t-4.5 134.5t-22.5 123q-4 13 -11 25.5t-14.5 24.5t-13.5 23t-8 22q-9 52 9 78.5 t66 15.5q21 -5 38 -28.5t29.5 -56.5t21 -70t12.5 -68q6 -35 9.5 -73t5.5 -75.5t3.5 -73t3.5 -66.5q4 -96 -3 -174.5t-19 -159.5zM606 773q-2 -14 -9.5 -22t-18 -13.5t-22.5 -8.5t-21 -6q-50 -10 -95 1.5t-90 27.5l-54 25q-25 12 -50 9q-13 -1 -22.5 -9t-18.5 -16.5 t-18.5 -15t-21.5 -5.5q-20 1 -26 14t-3 29t12.5 31.5t20.5 22.5q13 8 32.5 14.5t27.5 6.5q28 3 53 -6t50.5 -22.5t53.5 -26.5t61 -17q27 -3 50.5 1.5t43.5 7.5t36.5 0t28.5 -22z" />
<glyph unicode="&#xd2;" horiz-adv-x="662" d="M331 755q48 8 86.5 -8t69.5 -46.5t55 -69.5t43 -78q16 -33 32.5 -76.5t24 -91.5t3.5 -97.5t-28 -95.5q-11 -20 -34.5 -46.5t-56.5 -52.5t-72.5 -50t-82.5 -40t-87 -20.5t-85 7.5q-22 6 -40.5 19.5t-34.5 30.5t-28.5 37t-22.5 39q-26 46 -42.5 105.5t-19.5 122t11.5 123.5 t50.5 111q13 18 26 31.5t28.5 25.5t34.5 24l43 27q19 12 33.5 23t28 20t28.5 16t36 10zM338 521q-16 8 -27 20t-29 18q-4 -8 -9 -9.5t-10.5 -1t-12 0.5t-13.5 -3q-36 -15 -60 -52t-35.5 -83.5t-10.5 -97.5t16 -93.5t43.5 -71.5t72.5 -32q32 -2 76 16.5t85.5 49t72.5 68.5 t37 74q7 45 1 82.5t-21.5 70t-38 60.5t-47.5 54q-4 7 -14 6q-7 -31 -27.5 -48t-48.5 -28zM299 922q14 -13 23.5 -25t17.5 -24l18 -25q10 -14 24 -30q12 -16 24.5 -30.5t20.5 -27.5t8.5 -25t-11.5 -23q-15 -13 -32 -8.5t-35.5 20t-38.5 38.5l-38 48l-37 44q-18 22 -34 34 q-3 4 -1.5 7t-0.5 5q22 26 45.5 28t46.5 -6z" />
<glyph unicode="&#xd3;" horiz-adv-x="662" d="M331 755q48 8 86.5 -8t69.5 -46.5t55 -69.5t43 -78q16 -33 32.5 -76.5t24 -91.5t3.5 -97.5t-28 -95.5q-11 -20 -34.5 -46.5t-56.5 -52.5t-72.5 -50t-82.5 -40t-87 -20.5t-85 7.5q-22 6 -40.5 19.5t-34.5 30.5t-28.5 37t-22.5 39q-26 46 -42.5 105.5t-19.5 122t11.5 123.5 t50.5 111q13 18 26 31.5t28.5 25.5t34.5 24l43 27q19 12 33.5 23t28 20t28.5 16t36 10zM338 521q-16 8 -27 20t-29 18q-4 -8 -9 -9.5t-10.5 -1t-12 0.5t-13.5 -3q-36 -15 -60 -52t-35.5 -83.5t-10.5 -97.5t16 -93.5t43.5 -71.5t72.5 -32q32 -2 76 16.5t85.5 49t72.5 68.5 t37 74q7 45 1 82.5t-21.5 70t-38 60.5t-47.5 54q-4 7 -14 6q-7 -31 -27.5 -48t-48.5 -28zM455 869q-11 -15 -22 -25l-23 -21l-24 -21q-12 -10 -27 -25q-15 -13 -28.5 -27t-25.5 -23.5t-24 -11t-24 9.5q-21 21 -5.5 49.5t46.5 59.5l65 64q34 32 50 58q4 3 7 1.5t5 1.5 q28 -20 31.5 -43t-1.5 -47z" />
<glyph unicode="&#xd4;" horiz-adv-x="662" d="M331 755q48 8 86.5 -8t69.5 -46.5t55 -69.5t43 -78q16 -33 32.5 -76.5t24 -91.5t3.5 -97.5t-28 -95.5q-11 -20 -34.5 -46.5t-56.5 -52.5t-72.5 -50t-82.5 -40t-87 -20.5t-85 7.5q-22 6 -40.5 19.5t-34.5 30.5t-28.5 37t-22.5 39q-26 46 -42.5 105.5t-19.5 122t11.5 123.5 t50.5 111q13 18 26 31.5t28.5 25.5t34.5 24l43 27q19 12 33.5 23t28 20t28.5 16t36 10zM338 521q-16 8 -27 20t-29 18q-4 -8 -9 -9.5t-10.5 -1t-12 0.5t-13.5 -3q-36 -15 -60 -52t-35.5 -83.5t-10.5 -97.5t16 -93.5t43.5 -71.5t72.5 -32q32 -2 76 16.5t85.5 49t72.5 68.5 t37 74q7 45 1 82.5t-21.5 70t-38 60.5t-47.5 54q-4 7 -14 6q-7 -31 -27.5 -48t-48.5 -28zM286 863l-16 -22l-12 -15q-6 -7 -12 -16t-13 -25q-5 -11 -6 -20t-2.5 -16.5t-5 -12.5t-13.5 -7q-14 -2 -25 6t-18 20t-10.5 26t-2.5 24q0 11 11.5 27.5t20.5 32.5l18 33l14 24l14 24 q7 13 16 34q16 9 31 -2t23 -30.5t6.5 -43.5t-18.5 -41zM448 907q5 -17 7 -27t4 -18.5t5.5 -18.5t11.5 -26q5 -11 11.5 -17.5t11.5 -12t6.5 -11.5t-3.5 -15q-7 -12 -20 -16t-27 -1.5t-27 8.5t-20 13q-9 7 -14.5 26t-12.5 36l-13 35q-5 14 -10 26.5t-11 26t-16 33.5 q3 18 21 23t38.5 -1.5t37.5 -22.5t20 -40z" />
<glyph unicode="&#xd5;" horiz-adv-x="662" d="M331 755q48 8 86.5 -8t69.5 -46.5t55 -69.5t43 -78q16 -33 32.5 -76.5t24 -91.5t3.5 -97.5t-28 -95.5q-11 -20 -34.5 -46.5t-56.5 -52.5t-72.5 -50t-82.5 -40t-87 -20.5t-85 7.5q-22 6 -40.5 19.5t-34.5 30.5t-28.5 37t-22.5 39q-26 46 -42.5 105.5t-19.5 122t11.5 123.5 t50.5 111q13 18 26 31.5t28.5 25.5t34.5 24l43 27q19 12 33.5 23t28 20t28.5 16t36 10zM338 521q-16 8 -27 20t-29 18q-4 -8 -9 -9.5t-10.5 -1t-12 0.5t-13.5 -3q-36 -15 -60 -52t-35.5 -83.5t-10.5 -97.5t16 -93.5t43.5 -71.5t72.5 -32q32 -2 76 16.5t85.5 49t72.5 68.5 t37 74q7 45 1 82.5t-21.5 70t-38 60.5t-47.5 54q-4 7 -14 6q-7 -31 -27.5 -48t-48.5 -28zM578 773q-2 -14 -9.5 -22t-18 -13.5t-22.5 -8.5t-21 -6q-50 -10 -95 1.5t-90 27.5l-54 25q-25 12 -50 9q-13 -1 -22.5 -9t-18.5 -16.5t-18.5 -15t-21.5 -5.5q-20 1 -26 14t-3 29 t12.5 31.5t20.5 22.5q13 8 32.5 14.5t27.5 6.5q28 3 53 -6t50.5 -22.5t53.5 -26.5t61 -17q27 -3 50.5 1.5t43.5 7.5t36.5 0t28.5 -22z" />
<glyph unicode="&#xd6;" horiz-adv-x="662" d="M331 755q48 8 86.5 -8t69.5 -46.5t55 -69.5t43 -78q16 -33 32.5 -76.5t24 -91.5t3.5 -97.5t-28 -95.5q-11 -20 -34.5 -46.5t-56.5 -52.5t-72.5 -50t-82.5 -40t-87 -20.5t-85 7.5q-22 6 -40.5 19.5t-34.5 30.5t-28.5 37t-22.5 39q-26 46 -42.5 105.5t-19.5 122t11.5 123.5 t50.5 111q13 18 26 31.5t28.5 25.5t34.5 24l43 27q19 12 33.5 23t28 20t28.5 16t36 10zM338 521q-16 8 -27 20t-29 18q-4 -8 -9 -9.5t-10.5 -1t-12 0.5t-13.5 -3q-36 -15 -60 -52t-35.5 -83.5t-10.5 -97.5t16 -93.5t43.5 -71.5t72.5 -32q32 -2 76 16.5t85.5 49t72.5 68.5 t37 74q7 45 1 82.5t-21.5 70t-38 60.5t-47.5 54q-4 7 -14 6q-7 -31 -27.5 -48t-48.5 -28zM192 946q12 5 23.5 11t23 9t23.5 2t25 -8q15 -10 21 -27t6.5 -36.5t-2 -39t-5.5 -35.5q-14 -19 -30.5 -23t-33 2.5t-30.5 21.5t-22 35t-8.5 43t9.5 45zM465 823q-13 -5 -24.5 -10 t-23.5 -7.5t-23.5 -1.5t-24.5 9q-15 11 -20 28t-4.5 36.5t4.5 39.5l7 35q22 27 48.5 22t45.5 -27.5t25.5 -57t-10.5 -66.5z" />
<glyph unicode="&#xd7;" horiz-adv-x="489" d="M165 321q1 14 -5 26t-16 24t-23 24t-26 26l-24 25l-13 15l-11 12l-18 20q6 27 19 44l27 35q40 -11 64.5 -30.5t43.5 -43.5l37 -48q18 -24 44 -43q40 27 77 58.5t63 78.5q24 5 36.5 0.5t18 -15.5t6.5 -28.5t2 -38.5q2 -15 3.5 -28t-3.5 -27q-8 -23 -25.5 -40t-36.5 -30 l-35 -23q-15 -10 -19 -18q17 -32 42 -58t48 -55q20 -42 14 -69.5t-35 -49.5q-36 7 -58.5 23.5t-38.5 37t-28.5 43t-29.5 41.5q-22 -5 -44 -21l-45 -34l-45 -34q-22 -17 -44 -22q-13 -3 -22 -1t-17.5 7.5t-16 14.5t-17.5 19q-10 30 -6 51.5t17 37t32 26.5t39 21t38.5 21 t30.5 26z" />
<glyph unicode="&#xd8;" horiz-adv-x="662" d="M331 755q48 8 86.5 -8t69.5 -46.5t55 -69.5t43 -78q16 -33 32.5 -76.5t24 -91.5t3.5 -97.5t-28 -95.5q-11 -20 -34.5 -46.5t-56.5 -52.5t-72.5 -50t-82.5 -40t-87 -20.5t-85 7.5q-22 6 -40.5 19.5t-34.5 30.5t-28.5 37t-22.5 39q-26 46 -42.5 105.5t-19.5 122t11.5 123.5 t50.5 111q13 18 26 31.5t28.5 25.5t34.5 24l43 27q19 12 33.5 23t28 20t28.5 16t36 10zM338 521q-16 8 -27 20t-29 18q-4 -8 -9 -9.5t-10.5 -1t-12 0.5t-13.5 -3q-36 -15 -60 -52t-35.5 -83.5t-10.5 -97.5t16 -93.5t43.5 -71.5t72.5 -32q32 -2 76 16.5t85.5 49t72.5 68.5 t37 74q7 45 1 82.5t-21.5 70t-38 60.5t-47.5 54q-4 7 -14 6q-7 -31 -27.5 -48t-48.5 -28zM531 720q8 -14 9.5 -26.5t3.5 -24.5q-5 -11 -14 -18.5t-20 -15.5l-48 -83l-45 -79q-63 -121 -120 -247t-107 -257q-24 -7 -41 3t-31 30q8 23 18.5 44.5t19.5 43.5q8 18 16.5 33.5 t16.5 35.5q28 68 61 141l69 144q32 63 70 125t63 132q5 2 5.5 5t4.5 5q12 8 33.5 11.5t35.5 -2.5z" />
<glyph unicode="&#xd9;" horiz-adv-x="657" d="M86 741q28 3 46 -3.5t31 -18.5t23 -27t22 -28q-26 -54 -43.5 -125.5t-19 -144.5t18 -137.5t67.5 -103.5q31 0 59.5 14t53.5 35.5t46 47.5l39 48q12 14 22.5 38t16.5 52.5t6.5 58.5t-7.5 56.5t-26.5 47t-49.5 30.5q0 20 -6 41l-12 42q-6 20 -8.5 39.5t3.5 37.5q-1 4 2 5.5 t6 1.5q29 1 52 -5t42 -19t35 -32t32 -43q14 -24 31.5 -64.5t31 -87t20 -93.5t0.5 -83q-1 -7 -8 -27l-14 -42q-8 -22 -17 -43.5t-15 -32.5q-2 -5 -9 -15.5t-11 -18.5q-7 -9 -13 -14.5t-12 -12.5q-25 -29 -66 -59.5t-90 -49.5t-100 -20t-95 29q-20 14 -38.5 37t-34.5 51.5 t-30.5 60.5t-26.5 65q-10 26 -22 50.5t-16 41.5q-10 56 -8 115.5t13.5 116t32 105t46.5 83.5zM296 922q14 -13 23.5 -25l18.5 -24l18 -25q9 -14 23 -30q12 -16 24.5 -30.5t20.5 -27.5t8.5 -25t-11.5 -23q-15 -13 -32 -8.5t-35.5 20t-37.5 38.5l-39 48l-37 44q-18 22 -34 34 q-3 4 -1.5 7t-0.5 5q22 26 45.5 28t46.5 -6z" />
<glyph unicode="&#xda;" horiz-adv-x="657" d="M86 741q28 3 46 -3.5t31 -18.5t23 -27t22 -28q-26 -54 -43.5 -125.5t-19 -144.5t18 -137.5t67.5 -103.5q31 0 59.5 14t53.5 35.5t46 47.5l39 48q12 14 22.5 38t16.5 52.5t6.5 58.5t-7.5 56.5t-26.5 47t-49.5 30.5q0 20 -6 41l-12 42q-6 20 -8.5 39.5t3.5 37.5q-1 4 2 5.5 t6 1.5q29 1 52 -5t42 -19t35 -32t32 -43q14 -24 31.5 -64.5t31 -87t20 -93.5t0.5 -83q-1 -7 -8 -27l-14 -42q-8 -22 -17 -43.5t-15 -32.5q-2 -5 -9 -15.5t-11 -18.5q-7 -9 -13 -14.5t-12 -12.5q-25 -29 -66 -59.5t-90 -49.5t-100 -20t-95 29q-20 14 -38.5 37t-34.5 51.5 t-30.5 60.5t-26.5 65q-10 26 -22 50.5t-16 41.5q-10 56 -8 115.5t13.5 116t32 105t46.5 83.5zM452 869q-11 -15 -22 -25l-22 -21l-24 -21q-13 -10 -28 -25q-15 -13 -28.5 -27t-25.5 -23.5t-24 -11t-24 9.5q-21 21 -5.5 49.5t46.5 59.5l65 64q34 32 50 58q4 3 7 1.5t5 1.5 q28 -20 31.5 -43t-1.5 -47z" />
<glyph unicode="&#xdb;" horiz-adv-x="657" d="M86 741q28 3 46 -3.5t31 -18.5t23 -27t22 -28q-26 -54 -43.5 -125.5t-19 -144.5t18 -137.5t67.5 -103.5q31 0 59.5 14t53.5 35.5t46 47.5l39 48q12 14 22.5 38t16.5 52.5t6.5 58.5t-7.5 56.5t-26.5 47t-49.5 30.5q0 20 -6 41l-12 42q-6 20 -8.5 39.5t3.5 37.5q-1 4 2 5.5 t6 1.5q29 1 52 -5t42 -19t35 -32t32 -43q14 -24 31.5 -64.5t31 -87t20 -93.5t0.5 -83q-1 -7 -8 -27l-14 -42q-8 -22 -17 -43.5t-15 -32.5q-2 -5 -9 -15.5t-11 -18.5q-7 -9 -13 -14.5t-12 -12.5q-25 -29 -66 -59.5t-90 -49.5t-100 -20t-95 29q-20 14 -38.5 37t-34.5 51.5 t-30.5 60.5t-26.5 65q-10 26 -22 50.5t-16 41.5q-10 56 -8 115.5t13.5 116t32 105t46.5 83.5zM283 863q-10 -14 -17 -22l-12 -15l-11 -16t-13 -25q-5 -11 -6 -20t-2.5 -16.5t-5 -12.5t-13.5 -7q-14 -2 -25 6t-18 20t-10.5 26t-2.5 24q0 11 11.5 27.5t20.5 32.5q11 20 19 33 l14 24l13 24q7 13 16 34q16 9 31 -2t23 -30.5t6.5 -43.5t-18.5 -41zM445 907q5 -17 7 -27t4 -18.5t5.5 -18.5t11.5 -26q5 -11 11.5 -17.5t11.5 -12t6.5 -11.5t-3.5 -15q-7 -12 -20 -16t-27 -1.5t-27 8.5t-20 13q-9 7 -14.5 26t-12.5 36l-13 35q-5 14 -10 26.5t-11 26 t-16 33.5q3 18 21 23t38.5 -1.5t37.5 -22.5t20 -40z" />
<glyph unicode="&#xdc;" horiz-adv-x="657" d="M86 741q28 3 46 -3.5t31 -18.5t23 -27t22 -28q-26 -54 -43.5 -125.5t-19 -144.5t18 -137.5t67.5 -103.5q31 0 59.5 14t53.5 35.5t46 47.5l39 48q12 14 22.5 38t16.5 52.5t6.5 58.5t-7.5 56.5t-26.5 47t-49.5 30.5q0 20 -6 41l-12 42q-6 20 -8.5 39.5t3.5 37.5q-1 4 2 5.5 t6 1.5q29 1 52 -5t42 -19t35 -32t32 -43q14 -24 31.5 -64.5t31 -87t20 -93.5t0.5 -83q-1 -7 -8 -27l-14 -42q-8 -22 -17 -43.5t-15 -32.5q-2 -5 -9 -15.5t-11 -18.5q-7 -9 -13 -14.5t-12 -12.5q-25 -29 -66 -59.5t-90 -49.5t-100 -20t-95 29q-20 14 -38.5 37t-34.5 51.5 t-30.5 60.5t-26.5 65q-10 26 -22 50.5t-16 41.5q-10 56 -8 115.5t13.5 116t32 105t46.5 83.5zM190 946q12 5 23.5 11t23 9t23.5 2t25 -8q15 -10 21 -27t6.5 -36.5t-2 -39t-5.5 -35.5q-14 -19 -30.5 -23t-33 2.5t-30.5 21.5t-22 35t-8.5 43t9.5 45zM463 823q-13 -5 -24.5 -10 t-23.5 -7.5t-23.5 -1.5t-24.5 9q-15 11 -20 28t-4.5 36.5t4.5 39.5l7 35q22 27 48.5 22t45.5 -27.5t25.5 -57t-10.5 -66.5z" />
<glyph unicode="&#xdd;" horiz-adv-x="447" d="M228 472l-108 74q-55 36 -100 83q1 12 -3.5 28.5t-6.5 32.5t2 29t23 18q14 3 29.5 -5t31 -21.5t30 -29t27.5 -25.5q13 -11 28 -18.5t32 -18.5l32 -25q15 -11 32 -8q18 3 31.5 21.5t24.5 43.5t19 51t16 44l6 10q4 6 11 8q18 -1 35 -6t31 -13t23.5 -20t12.5 -27 q2 -15 -8.5 -40.5t-25.5 -51.5t-30 -49t-22 -35q-33 -53 -64.5 -98t-59.5 -101q-2 -6 -4 -10.5t-5 -10.5q-4 -6 -6.5 -11.5t-5.5 -11.5q-11 -22 -19 -45t-19 -45l-25 -55q-12 -26 -21.5 -51.5t-17 -54.5t-11.5 -65q-1 -12 -6.5 -36.5t-16.5 -47t-27.5 -37t-40.5 -8.5 q-19 5 -27.5 27t-10 50t2 57t8.5 48q13 51 37 103.5t43 100.5q31 72 61 134.5t62 117.5zM347 869q-11 -15 -22 -25l-23 -21l-24 -21q-12 -10 -27 -25q-15 -13 -28.5 -27t-25.5 -23.5t-24 -11t-24 9.5q-21 21 -5.5 49.5t46.5 59.5l65 64q34 32 50 58q4 3 7 1.5t5 1.5 q28 -20 31.5 -43t-1.5 -47z" />
<glyph unicode="&#xe0;" horiz-adv-x="598" d="M436 181q6 35 -11 74t-49 71t-75 51t-89 13q-21 -2 -36 -13.5t-28.5 -24.5t-27 -23.5t-31.5 -10.5q-16 0 -31 8t-26.5 20.5t-17.5 28t-4 29.5q3 24 27.5 43t59.5 31.5t75.5 18t75.5 1.5q29 -3 58.5 -13t56.5 -24.5t51 -32.5t43 -38q18 -18 29.5 -32.5t20.5 -29t17 -32.5 l20 -43l20 -43q10 -21 16 -45t6.5 -52t-6.5 -62q-11 -9 -24.5 -15.5t-18.5 -20.5h-20q-10 0 -19 0.5t-16 3.5t-10 10l-60 -35q-35 -19 -75 -35t-83 -24t-85 1q-27 6 -53 23.5t-45.5 41.5t-30.5 51t-8 50q3 24 26 50.5t59.5 47t81.5 32t92 6.5q24 -2 43 -9t36 -15l32 -18 q16 -9 34 -15zM198 59q17 0 40 4.5t46 12t44.5 18t35.5 22.5q-21 15 -52 15.5t-58 -9t-44 -26.5t-12 -37zM267 722q14 -13 23.5 -25t17.5 -24l18 -25q10 -14 24 -30q12 -16 24.5 -30.5t20.5 -27.5t8.5 -25t-11.5 -23q-15 -13 -32 -8.5t-35.5 20t-38.5 38.5l-38 48l-37 44 q-18 22 -34 34q-3 4 -1.5 7t-0.5 5q22 26 45.5 28t46.5 -6z" />
<glyph unicode="&#xe1;" horiz-adv-x="598" d="M436 181q6 35 -11 74t-49 71t-75 51t-89 13q-21 -2 -36 -13.5t-28.5 -24.5t-27 -23.5t-31.5 -10.5q-16 0 -31 8t-26.5 20.5t-17.5 28t-4 29.5q3 24 27.5 43t59.5 31.5t75.5 18t75.5 1.5q29 -3 58.5 -13t56.5 -24.5t51 -32.5t43 -38q18 -18 29.5 -32.5t20.5 -29t17 -32.5 l20 -43l20 -43q10 -21 16 -45t6.5 -52t-6.5 -62q-11 -9 -24.5 -15.5t-18.5 -20.5h-20q-10 0 -19 0.5t-16 3.5t-10 10l-60 -35q-35 -19 -75 -35t-83 -24t-85 1q-27 6 -53 23.5t-45.5 41.5t-30.5 51t-8 50q3 24 26 50.5t59.5 47t81.5 32t92 6.5q24 -2 43 -9t36 -15l32 -18 q16 -9 34 -15zM198 59q17 0 40 4.5t46 12t44.5 18t35.5 22.5q-21 15 -52 15.5t-58 -9t-44 -26.5t-12 -37zM423 669q-11 -15 -22 -25l-23 -21l-24 -21q-12 -10 -27 -25q-15 -13 -28.5 -27t-25.5 -23.5t-24 -11t-24 9.5q-21 21 -5.5 49.5t46.5 59.5l65 64q34 32 50 58 q4 3 7 1.5t5 1.5q28 -20 31.5 -43t-1.5 -47z" />
<glyph unicode="&#xe2;" horiz-adv-x="598" d="M436 181q6 35 -11 74t-49 71t-75 51t-89 13q-21 -2 -36 -13.5t-28.5 -24.5t-27 -23.5t-31.5 -10.5q-16 0 -31 8t-26.5 20.5t-17.5 28t-4 29.5q3 24 27.5 43t59.5 31.5t75.5 18t75.5 1.5q29 -3 58.5 -13t56.5 -24.5t51 -32.5t43 -38q18 -18 29.5 -32.5t20.5 -29t17 -32.5 l20 -43l20 -43q10 -21 16 -45t6.5 -52t-6.5 -62q-11 -9 -24.5 -15.5t-18.5 -20.5h-20q-10 0 -19 0.5t-16 3.5t-10 10l-60 -35q-35 -19 -75 -35t-83 -24t-85 1q-27 6 -53 23.5t-45.5 41.5t-30.5 51t-8 50q3 24 26 50.5t59.5 47t81.5 32t92 6.5q24 -2 43 -9t36 -15l32 -18 q16 -9 34 -15zM198 59q17 0 40 4.5t46 12t44.5 18t35.5 22.5q-21 15 -52 15.5t-58 -9t-44 -26.5t-12 -37zM254 663l-16 -22l-12 -15q-6 -7 -12 -16t-13 -25q-5 -11 -6 -20t-2.5 -16.5t-5 -12.5t-13.5 -7q-14 -2 -25 6t-18 20t-10.5 26t-2.5 24q0 11 11.5 27.5t20.5 32.5 l18 33l14 24l14 24q7 13 16 34q16 9 31 -2t23 -30.5t6.5 -43.5t-18.5 -41zM416 707q5 -17 7 -27t4 -18.5t5.5 -18.5t11.5 -26q5 -11 11.5 -17.5t11.5 -12t6.5 -11.5t-3.5 -15q-7 -12 -20 -16t-27 -1.5t-27 8.5t-20 13q-9 7 -14.5 26t-12.5 36l-13 35q-5 14 -10 26.5t-11 26 t-16 33.5q3 18 21 23t38.5 -1.5t37.5 -22.5t20 -40z" />
<glyph unicode="&#xe3;" horiz-adv-x="598" d="M436 181q6 35 -11 74t-49 71t-75 51t-89 13q-21 -2 -36 -13.5t-28.5 -24.5t-27 -23.5t-31.5 -10.5q-16 0 -31 8t-26.5 20.5t-17.5 28t-4 29.5q3 24 27.5 43t59.5 31.5t75.5 18t75.5 1.5q29 -3 58.5 -13t56.5 -24.5t51 -32.5t43 -38q18 -18 29.5 -32.5t20.5 -29t17 -32.5 l20 -43l20 -43q10 -21 16 -45t6.5 -52t-6.5 -62q-11 -9 -24.5 -15.5t-18.5 -20.5h-20q-10 0 -19 0.5t-16 3.5t-10 10l-60 -35q-35 -19 -75 -35t-83 -24t-85 1q-27 6 -53 23.5t-45.5 41.5t-30.5 51t-8 50q3 24 26 50.5t59.5 47t81.5 32t92 6.5q24 -2 43 -9t36 -15l32 -18 q16 -9 34 -15zM198 59q17 0 40 4.5t46 12t44.5 18t35.5 22.5q-21 15 -52 15.5t-58 -9t-44 -26.5t-12 -37zM546 573q-2 -14 -9.5 -22t-18 -13.5t-22.5 -8.5t-21 -6q-50 -10 -95 1.5t-90 27.5l-54 25q-25 12 -50 9q-13 -1 -22.5 -9t-18.5 -16.5t-18.5 -15t-21.5 -5.5 q-20 1 -26 14t-3 29t12.5 31.5t20.5 22.5q13 8 32.5 14.5t27.5 6.5q28 3 53 -6t50.5 -22.5t53.5 -26.5t61 -17q27 -3 50.5 1.5t43.5 7.5t36.5 0t28.5 -22z" />
<glyph unicode="&#xe4;" horiz-adv-x="598" d="M436 181q6 35 -11 74t-49 71t-75 51t-89 13q-21 -2 -36 -13.5t-28.5 -24.5t-27 -23.5t-31.5 -10.5q-16 0 -31 8t-26.5 20.5t-17.5 28t-4 29.5q3 24 27.5 43t59.5 31.5t75.5 18t75.5 1.5q29 -3 58.5 -13t56.5 -24.5t51 -32.5t43 -38q18 -18 29.5 -32.5t20.5 -29t17 -32.5 l20 -43l20 -43q10 -21 16 -45t6.5 -52t-6.5 -62q-11 -9 -24.5 -15.5t-18.5 -20.5h-20q-10 0 -19 0.5t-16 3.5t-10 10l-60 -35q-35 -19 -75 -35t-83 -24t-85 1q-27 6 -53 23.5t-45.5 41.5t-30.5 51t-8 50q3 24 26 50.5t59.5 47t81.5 32t92 6.5q24 -2 43 -9t36 -15l32 -18 q16 -9 34 -15zM198 59q17 0 40 4.5t46 12t44.5 18t35.5 22.5q-21 15 -52 15.5t-58 -9t-44 -26.5t-12 -37zM160 746q12 5 23.5 11t23 9t23.5 2t25 -8q15 -10 21 -27t6.5 -36.5t-2 -39t-5.5 -35.5q-14 -19 -30.5 -23t-33 2.5t-30.5 21.5t-22 35t-8.5 43t9.5 45zM433 623 q-13 -5 -24.5 -10t-23.5 -7.5t-23.5 -1.5t-24.5 9q-15 11 -20 28t-4.5 36.5t4.5 39.5l7 35q22 27 48.5 22t45.5 -27.5t25.5 -57t-10.5 -66.5z" />
<glyph unicode="&#xe6;" horiz-adv-x="996" d="M436 181q6 35 -11 74t-49 71t-75 51t-89 13q-21 -2 -36 -13.5t-28.5 -24.5t-27 -23.5t-31.5 -10.5q-16 0 -31 8t-26.5 20.5t-17.5 28t-4 29.5q3 24 27.5 43t59.5 31.5t75.5 18t75.5 1.5q29 -3 58.5 -13t56.5 -24.5t51 -32.5t43 -38q18 -18 29.5 -32.5t20.5 -29t17 -32.5 l20 -43l20 -43q10 -21 16 -45t6.5 -52t-6.5 -62q-11 -9 -24.5 -15.5t-18.5 -20.5h-20q-10 0 -19 0.5t-16 3.5t-10 10l-60 -35q-35 -19 -75 -35t-83 -24t-85 1q-27 6 -53 23.5t-45.5 41.5t-30.5 51t-8 50q3 24 26 50.5t59.5 47t81.5 32t92 6.5q24 -2 43 -9t36 -15l32 -18 q16 -9 34 -15zM198 59q17 0 40 4.5t46 12t44.5 18t35.5 22.5q-21 15 -52 15.5t-58 -9t-44 -26.5t-12 -37zM837 264q-9 -2 -16 0l-13 2q-7 2 -13.5 3t-15.5 0q-3 20 -13 32.5t-18 26.5q-39 -13 -65 -38.5t-46 -56.5q23 -3 38.5 -20t18.5 -36.5t-10 -34.5t-47 -14 q1 -12 7.5 -20t15.5 -12.5t18 -7t17 -2.5q17 -2 33 4.5t31.5 13.5t31 10.5t30.5 -3.5q9 -3 13 -9.5t7 -15t6 -16t11 -11.5q-13 -20 -28 -40t-35 -28q-31 -13 -60.5 -11.5t-56.5 11t-51 24.5t-43 30q-20 12 -35 34t-23 38q-24 51 -16.5 103.5t35 96t69.5 74t86 37.5 q29 5 55 -2l55 -13q15 -12 29 -30.5t21 -39t3 -41.5t-26 -38z" />
<glyph unicode="&#xe8;" horiz-adv-x="398" d="M341 269q-9 -2 -16 -1l-13 4l-13.5 2t-15.5 0q-3 20 -13 32.5t-18 26.5q-39 -13 -65 -38.5t-46 -56.5q23 -3 38.5 -20t18.5 -36.5t-10 -34.5t-47 -14q1 -12 7.5 -20t15.5 -12.5t18 -7t17 -2.5q17 -2 33 4.5t31.5 13.5t31 10.5t30.5 -3.5q9 -3 13 -9.5t7 -15t6 -16 t11 -11.5q-13 -20 -28 -40t-35 -28q-31 -13 -60.5 -11.5t-56.5 11t-51 24.5t-43 30q-20 12 -35 34t-23 38q-24 51 -16.5 103.5t35 96t69.5 74t86 37.5q29 5 55 -1l55 -14q15 -12 29 -30.5t21 -39t3 -41.5t-26 -38zM167 722q14 -13 23.5 -25t17.5 -24l18 -25q10 -14 24 -30 q12 -16 24.5 -30.5t20.5 -27.5t8.5 -25t-11.5 -23q-15 -13 -32 -8.5t-35.5 20t-38.5 38.5l-38 48l-37 44q-18 22 -34 34q-3 4 -1.5 7t-0.5 5q22 26 45.5 28t46.5 -6z" />
<glyph unicode="&#xe9;" horiz-adv-x="398" d="M341 269q-9 -2 -16 -1l-13 4l-13.5 2t-15.5 0q-3 20 -13 32.5t-18 26.5q-39 -13 -65 -38.5t-46 -56.5q23 -3 38.5 -20t18.5 -36.5t-10 -34.5t-47 -14q1 -12 7.5 -20t15.5 -12.5t18 -7t17 -2.5q17 -2 33 4.5t31.5 13.5t31 10.5t30.5 -3.5q9 -3 13 -9.5t7 -15t6 -16 t11 -11.5q-13 -20 -28 -40t-35 -28q-31 -13 -60.5 -11.5t-56.5 11t-51 24.5t-43 30q-20 12 -35 34t-23 38q-24 51 -16.5 103.5t35 96t69.5 74t86 37.5q29 5 55 -1l55 -14q15 -12 29 -30.5t21 -39t3 -41.5t-26 -38zM323 669q-11 -15 -22 -25l-23 -21l-24 -21q-12 -10 -27 -25 q-15 -13 -28.5 -27t-25.5 -23.5t-24 -11t-24 9.5q-21 21 -5.5 49.5t46.5 59.5l65 64q34 32 50 58q4 3 7 1.5t5 1.5q28 -20 31.5 -43t-1.5 -47z" />
<glyph unicode="&#xea;" horiz-adv-x="398" d="M341 269q-9 -2 -16 -1l-13 4l-13.5 2t-15.5 0q-3 20 -13 32.5t-18 26.5q-39 -13 -65 -38.5t-46 -56.5q23 -3 38.5 -20t18.5 -36.5t-10 -34.5t-47 -14q1 -12 7.5 -20t15.5 -12.5t18 -7t17 -2.5q17 -2 33 4.5t31.5 13.5t31 10.5t30.5 -3.5q9 -3 13 -9.5t7 -15t6 -16 t11 -11.5q-13 -20 -28 -40t-35 -28q-31 -13 -60.5 -11.5t-56.5 11t-51 24.5t-43 30q-20 12 -35 34t-23 38q-24 51 -16.5 103.5t35 96t69.5 74t86 37.5q29 5 55 -1l55 -14q15 -12 29 -30.5t21 -39t3 -41.5t-26 -38zM154 663l-16 -22l-12 -15q-6 -7 -12 -16t-13 -25 q-5 -11 -6 -20t-2.5 -16.5t-5 -12.5t-13.5 -7q-14 -2 -25 6t-18 20t-10.5 26t-2.5 24q0 11 11.5 27.5t20.5 32.5l18 33l14 24l14 24q7 13 16 34q16 9 31 -2t23 -30.5t6.5 -43.5t-18.5 -41zM316 707q5 -17 7 -27t4 -18.5t5.5 -18.5t11.5 -26q5 -11 11.5 -17.5t11.5 -12 t6.5 -11.5t-3.5 -15q-7 -12 -20 -16t-27 -1.5t-27 8.5t-20 13q-9 7 -14.5 26t-12.5 36l-13 35q-5 14 -10 26.5t-11 26t-16 33.5q3 18 21 23t38.5 -1.5t37.5 -22.5t20 -40z" />
<glyph unicode="&#xeb;" horiz-adv-x="398" d="M341 269q-9 -2 -16 -1l-13 4l-13.5 2t-15.5 0q-3 20 -13 32.5t-18 26.5q-39 -13 -65 -38.5t-46 -56.5q23 -3 38.5 -20t18.5 -36.5t-10 -34.5t-47 -14q1 -12 7.5 -20t15.5 -12.5t18 -7t17 -2.5q17 -2 33 4.5t31.5 13.5t31 10.5t30.5 -3.5q9 -3 13 -9.5t7 -15t6 -16 t11 -11.5q-13 -20 -28 -40t-35 -28q-31 -13 -60.5 -11.5t-56.5 11t-51 24.5t-43 30q-20 12 -35 34t-23 38q-24 51 -16.5 103.5t35 96t69.5 74t86 37.5q29 5 55 -1l55 -14q15 -12 29 -30.5t21 -39t3 -41.5t-26 -38zM60 746q12 5 23.5 11t23 9t23.5 2t25 -8q15 -10 21 -27 t6.5 -36.5t-2 -39t-5.5 -35.5q-14 -19 -30.5 -23t-33 2.5t-30.5 21.5t-22 35t-8.5 43t9.5 45zM333 623q-13 -5 -24.5 -10t-23.5 -7.5t-23.5 -1.5t-24.5 9q-15 11 -20 28t-4.5 36.5t4.5 39.5l7 35q22 27 48.5 22t45.5 -27.5t25.5 -57t-10.5 -66.5z" />
<glyph unicode="&#xec;" horiz-adv-x="249" d="M210 546q-17 -11 -37 -21.5t-40.5 -15.5t-41.5 -3t-40 16q-12 8 -21.5 23.5t-16 33t-9.5 32.5t-1 22q5 25 23 36.5t42 11.5t50.5 -9.5t47.5 -27.5t34 -43t10 -55zM210 53q-9 -11 -16.5 -22t-16 -20t-18 -15t-21.5 -7q-29 -3 -49.5 11.5t-34.5 40t-22 59t-11.5 69 t-3.5 69.5t2 61q45 13 76.5 9t51.5 -20t31.5 -42.5t17.5 -58t8.5 -66.5t5.5 -68zM118 830q14 -13 23.5 -25l18.5 -24l18 -25q9 -14 23 -30q12 -16 24.5 -30.5t20.5 -27.5t8.5 -25t-11.5 -23q-15 -13 -32 -8.5t-35.5 20t-37.5 38.5l-39 48l-37 44q-18 22 -34 34q-3 4 -1.5 7 t-0.5 5q22 26 45.5 28t46.5 -6z" />
<glyph unicode="&#xed;" horiz-adv-x="249" d="M218 555q-17 -11 -37 -21.5t-40.5 -15.5t-41.5 -3t-40 16q-12 8 -21.5 23.5t-16 33t-9.5 32.5t-1 22q5 25 23 36.5t42 11.5t50.5 -9.5t47.5 -27.5t34 -43t10 -55zM218 62q-9 -11 -16.5 -22t-16 -20t-18 -15t-21.5 -7q-29 -3 -49.5 11.5t-34.5 40t-22 59t-11.5 69 t-3.5 69.5t2 61q45 13 76.5 9t51.5 -20t31.5 -42.5t17.5 -58t8.5 -66.5t5.5 -68zM215 798q-11 -15 -22 -26l-23 -20l-24 -20l-27 -26q-15 -13 -28.5 -27t-25.5 -23.5t-24 -11t-24 9.5q-21 21 -5.5 49.5t46.5 60.5l65 63q34 32 50 58q4 3 7 1.5t5 1.5q28 -20 31.5 -43 t-1.5 -47z" />
<glyph unicode="&#xee;" horiz-adv-x="249" d="M218 555q-17 -11 -37 -21.5t-40.5 -15.5t-41.5 -3t-40 16q-12 8 -21.5 23.5t-16 33t-9.5 32.5t-1 22q5 25 23 36.5t42 11.5t50.5 -9.5t47.5 -27.5t34 -43t10 -55zM218 62q-9 -11 -16.5 -22t-16 -20t-18 -15t-21.5 -7q-29 -3 -49.5 11.5t-34.5 40t-22 59t-11.5 69 t-3.5 69.5t2 61q45 13 76.5 9t51.5 -20t31.5 -42.5t17.5 -58t8.5 -66.5t5.5 -68zM75 773q-10 -14 -17 -22l-12 -15l-11 -16t-13 -25q-5 -11 -6 -20t-2.5 -16.5t-5 -12.5t-13.5 -7q-14 -2 -25 6t-18 20t-10.5 26t-2.5 24q0 11 11.5 27.5t20.5 32.5q11 20 19 33l14 24l13 24 q7 13 16 34q16 9 31 -2t23 -30.5t6.5 -43.5t-18.5 -41zM237 817q5 -17 7 -27t4 -18.5t5.5 -18.5t11.5 -26q5 -11 11.5 -17.5t11.5 -12t6.5 -11.5t-3.5 -15q-7 -12 -20 -16t-27 -1.5t-27 8.5t-20 13q-9 7 -14.5 26t-12.5 36l-13 35q-5 14 -10 26.5t-11 26t-16 33.5 q3 18 21 23t38.5 -1.5t37.5 -22.5t20 -40z" />
<glyph unicode="&#xef;" horiz-adv-x="249" d="M218 555q-17 -11 -37 -21.5t-40.5 -15.5t-41.5 -3t-40 16q-12 8 -21.5 23.5t-16 33t-9.5 32.5t-1 22q5 25 23 36.5t42 11.5t50.5 -9.5t47.5 -27.5t34 -43t10 -55zM218 62q-9 -11 -16.5 -22t-16 -20t-18 -15t-21.5 -7q-29 -3 -49.5 11.5t-34.5 40t-22 59t-11.5 69 t-3.5 69.5t2 61q45 13 76.5 9t51.5 -20t31.5 -42.5t17.5 -58t8.5 -66.5t5.5 -68zM-13 841q12 5 23.5 11t23 9t23.5 2t25 -8q15 -10 21 -27t6.5 -36.5t-2 -39t-5.5 -35.5q-14 -19 -30.5 -23t-33 2.5t-30.5 21.5t-22 35t-8.5 43t9.5 45zM260 718q-13 -5 -24.5 -10t-23.5 -7.5 t-23.5 -1.5t-24.5 9q-15 11 -20 28t-4.5 36.5t4.5 39.5l7 35q22 27 48.5 22t45.5 -27.5t25.5 -57t-10.5 -66.5z" />
<glyph unicode="&#xf1;" horiz-adv-x="423" d="M271 342q-17 4 -36 2t-37.5 -6.5t-36 -11.5t-30.5 -14q-6 -86 4 -156.5t25 -136.5q-26 -31 -70 -41q-36 24 -52.5 71.5t-22 105t-5 118t-2.5 110.5q3 9 10 14.5t16.5 8.5t19.5 5.5t18 6.5l56 24q34 14 70.5 22t74 5t69.5 -28q12 -9 22 -24t17.5 -32.5t12.5 -36t6 -36.5 q2 -23 -1 -48t-7 -50l-6 -48q-4 -25 -3 -47q0 -23 8 -41.5t3 -34.5q-3 -9 -11 -18.5t-19 -16.5t-23 -10.5t-23 -1.5q-10 2 -18.5 11.5t-15.5 22.5t-11.5 27.5t-6.5 26.5q-5 31 -1.5 65t8 67.5t6 66t-7.5 59.5zM460 573q-2 -14 -9.5 -22t-18 -13.5t-22.5 -8.5t-21 -6 q-50 -10 -95 1.5t-90 27.5l-54 25q-25 12 -50 9q-13 -1 -22.5 -9t-18.5 -16.5t-18.5 -15t-21.5 -5.5q-20 1 -26 14t-3 29t12.5 31.5t20.5 22.5q13 8 32.5 14.5t27.5 6.5q28 3 53 -6t50.5 -22.5t53.5 -26.5t61 -17q27 -3 50.5 1.5t43.5 7.5t36.5 0t28.5 -22z" />
<glyph unicode="&#xf2;" horiz-adv-x="462" d="M128 405q6 1 22.5 2.5t37 2.5t40 1.5t30.5 -1.5q8 -2 23 -10.5t31 -20t30 -23.5l23 -19q8 -9 18.5 -22t20.5 -28.5t18 -31.5t10 -29q8 -45 -2 -75.5t-32 -55.5q-22 -24 -58 -47t-78 -36t-86.5 -12.5t-81.5 23.5q-30 18 -51.5 55t-30.5 82t-5 92t24 85q14 26 36 44t61 24z M223 259q-12 12 -25.5 16.5t-25 3t-20 -9.5t-11.5 -21q-1 -2 -4 -3.5t-4 -3.5q-5 -21 -3.5 -41.5t9.5 -36.5t22 -26t34 -10q17 0 38 6.5t38.5 18.5t28.5 28.5t8 36.5q-3 19 -20.5 29.5t-32.5 23.5q-9 -2 -15 -6t-17 -5zM199 722q14 -13 23.5 -25t17.5 -24l18 -25 q10 -14 24 -30q12 -16 24.5 -30.5t20.5 -27.5t8.5 -25t-11.5 -23q-15 -13 -32 -8.5t-35.5 20t-38.5 38.5l-38 48l-37 44q-18 22 -34 34q-3 4 -1.5 7t-0.5 5q22 26 45.5 28t46.5 -6z" />
<glyph unicode="&#xf3;" horiz-adv-x="462" d="M128 405q6 1 22.5 2.5t37 2.5t40 1.5t30.5 -1.5q8 -2 23 -10.5t31 -20t30 -23.5l23 -19q8 -9 18.5 -22t20.5 -28.5t18 -31.5t10 -29q8 -45 -2 -75.5t-32 -55.5q-22 -24 -58 -47t-78 -36t-86.5 -12.5t-81.5 23.5q-30 18 -51.5 55t-30.5 82t-5 92t24 85q14 26 36 44t61 24z M223 259q-12 12 -25.5 16.5t-25 3t-20 -9.5t-11.5 -21q-1 -2 -4 -3.5t-4 -3.5q-5 -21 -3.5 -41.5t9.5 -36.5t22 -26t34 -10q17 0 38 6.5t38.5 18.5t28.5 28.5t8 36.5q-3 19 -20.5 29.5t-32.5 23.5q-9 -2 -15 -6t-17 -5zM355 669q-11 -15 -22 -25l-23 -21l-24 -21 q-12 -10 -27 -25q-15 -13 -28.5 -27t-25.5 -23.5t-24 -11t-24 9.5q-21 21 -5.5 49.5t46.5 59.5l65 64q34 32 50 58q4 3 7 1.5t5 1.5q28 -20 31.5 -43t-1.5 -47z" />
<glyph unicode="&#xf4;" horiz-adv-x="462" d="M128 405q6 1 22.5 2.5t37 2.5t40 1.5t30.5 -1.5q8 -2 23 -10.5t31 -20t30 -23.5l23 -19q8 -9 18.5 -22t20.5 -28.5t18 -31.5t10 -29q8 -45 -2 -75.5t-32 -55.5q-22 -24 -58 -47t-78 -36t-86.5 -12.5t-81.5 23.5q-30 18 -51.5 55t-30.5 82t-5 92t24 85q14 26 36 44t61 24z M223 259q-12 12 -25.5 16.5t-25 3t-20 -9.5t-11.5 -21q-1 -2 -4 -3.5t-4 -3.5q-5 -21 -3.5 -41.5t9.5 -36.5t22 -26t34 -10q17 0 38 6.5t38.5 18.5t28.5 28.5t8 36.5q-3 19 -20.5 29.5t-32.5 23.5q-9 -2 -15 -6t-17 -5zM186 663l-16 -22l-12 -15q-6 -7 -12 -16t-13 -25 q-5 -11 -6 -20t-2.5 -16.5t-5 -12.5t-13.5 -7q-14 -2 -25 6t-18 20t-10.5 26t-2.5 24q0 11 11.5 27.5t20.5 32.5l18 33l14 24l14 24q7 13 16 34q16 9 31 -2t23 -30.5t6.5 -43.5t-18.5 -41zM348 707q5 -17 7 -27t4 -18.5t5.5 -18.5t11.5 -26q5 -11 11.5 -17.5t11.5 -12 t6.5 -11.5t-3.5 -15q-7 -12 -20 -16t-27 -1.5t-27 8.5t-20 13q-9 7 -14.5 26t-12.5 36l-13 35q-5 14 -10 26.5t-11 26t-16 33.5q3 18 21 23t38.5 -1.5t37.5 -22.5t20 -40z" />
<glyph unicode="&#xf5;" horiz-adv-x="462" d="M128 405q6 1 22.5 2.5t37 2.5t40 1.5t30.5 -1.5q8 -2 23 -10.5t31 -20t30 -23.5l23 -19q8 -9 18.5 -22t20.5 -28.5t18 -31.5t10 -29q8 -45 -2 -75.5t-32 -55.5q-22 -24 -58 -47t-78 -36t-86.5 -12.5t-81.5 23.5q-30 18 -51.5 55t-30.5 82t-5 92t24 85q14 26 36 44t61 24z M223 259q-12 12 -25.5 16.5t-25 3t-20 -9.5t-11.5 -21q-1 -2 -4 -3.5t-4 -3.5q-5 -21 -3.5 -41.5t9.5 -36.5t22 -26t34 -10q17 0 38 6.5t38.5 18.5t28.5 28.5t8 36.5q-3 19 -20.5 29.5t-32.5 23.5q-9 -2 -15 -6t-17 -5zM480 573q-2 -14 -9.5 -22t-18 -13.5t-22.5 -8.5 t-21 -6q-50 -10 -95 1.5t-90 27.5l-54 25q-25 12 -50 9q-13 -1 -22.5 -9t-18.5 -16.5t-18.5 -15t-21.5 -5.5q-20 1 -26 14t-3 29t12.5 31.5t20.5 22.5q13 8 32.5 14.5t27.5 6.5q28 3 53 -6t50.5 -22.5t53.5 -26.5t61 -17q27 -3 50.5 1.5t43.5 7.5t36.5 0t28.5 -22z" />
<glyph unicode="&#xf6;" horiz-adv-x="462" d="M128 405q6 1 22.5 2.5t37 2.5t40 1.5t30.5 -1.5q8 -2 23 -10.5t31 -20t30 -23.5l23 -19q8 -9 18.5 -22t20.5 -28.5t18 -31.5t10 -29q8 -45 -2 -75.5t-32 -55.5q-22 -24 -58 -47t-78 -36t-86.5 -12.5t-81.5 23.5q-30 18 -51.5 55t-30.5 82t-5 92t24 85q14 26 36 44t61 24z M223 259q-12 12 -25.5 16.5t-25 3t-20 -9.5t-11.5 -21q-1 -2 -4 -3.5t-4 -3.5q-5 -21 -3.5 -41.5t9.5 -36.5t22 -26t34 -10q17 0 38 6.5t38.5 18.5t28.5 28.5t8 36.5q-3 19 -20.5 29.5t-32.5 23.5q-9 -2 -15 -6t-17 -5zM92 746q12 5 23.5 11t23 9t23.5 2t25 -8 q15 -10 21 -27t6.5 -36.5t-2 -39t-5.5 -35.5q-14 -19 -30.5 -23t-33 2.5t-30.5 21.5t-22 35t-8.5 43t9.5 45zM365 623q-13 -5 -24.5 -10t-23.5 -7.5t-23.5 -1.5t-24.5 9q-15 11 -20 28t-4.5 36.5t4.5 39.5l7 35q22 27 48.5 22t45.5 -27.5t25.5 -57t-10.5 -66.5z" />
<glyph unicode="&#xf7;" horiz-adv-x="454" d="M426 281q-7 -4 -4.5 -12.5t-4.5 -19.5q-8 -8 -14.5 -12t-15.5 -5.5t-21.5 -1t-32.5 0.5q-78 -3 -147.5 -7t-130.5 3q-3 7 -8.5 14t-9 14.5t-4.5 16t4 18.5q14 17 37.5 19.5t43.5 2.5q34 3 61 3.5t52.5 0.5t51.5 1t58 4q12 1 25.5 1t25.5 -4.5t21.5 -13t12.5 -23.5z M273 363q-25 -8 -47.5 0.5t-38.5 26t-24.5 39.5t-5.5 43q18 4 32 3.5t26 -3.5t24 -7t27 -7q16 -20 19.5 -42.5t-12.5 -52.5zM280 118q-5 -16 -7.5 -36.5t-13.5 -31.5q-30 -2 -51 6t-35.5 23t-23 36t-13.5 44q18 20 39 22t41 -7t36.5 -25t27.5 -31z" />
<glyph unicode="&#xf8;" horiz-adv-x="462" d="M128 405q6 1 22.5 2.5t37 2.5t40 1.5t30.5 -1.5q8 -2 23 -10.5t31 -20t30 -23.5l23 -19q8 -9 18.5 -22t20.5 -28.5t18 -31.5t10 -29q8 -45 -2 -75.5t-32 -55.5q-22 -24 -58 -47t-78 -36t-86.5 -12.5t-81.5 23.5q-30 18 -51.5 55t-30.5 82t-5 92t24 85q14 26 36 44t61 24z M223 259q-12 12 -25.5 16.5t-25 3t-20 -9.5t-11.5 -21q-1 -2 -4 -3.5t-4 -3.5q-5 -21 -3.5 -41.5t9.5 -36.5t22 -26t34 -10q17 0 38 6.5t38.5 18.5t28.5 28.5t8 36.5q-3 19 -20.5 29.5t-32.5 23.5q-9 -2 -15 -6t-17 -5zM431 720q8 -14 9.5 -26.5t3.5 -24.5q-5 -11 -14 -18.5 t-20 -15.5l-48 -83l-45 -79q-63 -121 -120 -247t-107 -257q-24 -7 -41 3t-31 30q8 23 18.5 44.5t19.5 43.5q8 18 16.5 33.5t16.5 35.5q28 68 61 141l69 144q32 63 70 125t63 132q5 2 5.5 5t4.5 5q12 8 33.5 11.5t35.5 -2.5z" />
<glyph unicode="&#xf9;" horiz-adv-x="494" d="M447 382q10 -53 18.5 -105t-0.5 -103q-9 -63 -47 -109.5t-92 -68.5t-116.5 -16t-120.5 50q-23 30 -42 75t-29 96.5t-8.5 105.5t20.5 101q27 4 46 -1t32.5 -14.5t23.5 -22.5l21 -28q-2 -30 -5.5 -65t-2 -66t11.5 -54t36 -29q17 -4 42.5 6.5t49.5 29t42.5 42t21.5 46.5 q3 24 -3 44.5t-13.5 39.5t-12 38t1.5 40q15 11 32 10t33.5 -8.5t31.5 -17.5t28 -16zM215 722q14 -13 23.5 -25t17.5 -24l18 -25q10 -14 24 -30q12 -16 24.5 -30.5t20.5 -27.5t8.5 -25t-11.5 -23q-15 -13 -32 -8.5t-35.5 20t-38.5 38.5l-38 48l-37 44q-18 22 -34 34 q-3 4 -1.5 7t-0.5 5q22 26 45.5 28t46.5 -6z" />
<glyph unicode="&#xfa;" horiz-adv-x="494" d="M447 382q10 -53 18.5 -105t-0.5 -103q-9 -63 -47 -109.5t-92 -68.5t-116.5 -16t-120.5 50q-23 30 -42 75t-29 96.5t-8.5 105.5t20.5 101q27 4 46 -1t32.5 -14.5t23.5 -22.5l21 -28q-2 -30 -5.5 -65t-2 -66t11.5 -54t36 -29q17 -4 42.5 6.5t49.5 29t42.5 42t21.5 46.5 q3 24 -3 44.5t-13.5 39.5t-12 38t1.5 40q15 11 32 10t33.5 -8.5t31.5 -17.5t28 -16zM371 669q-11 -15 -22 -25l-23 -21l-24 -21q-12 -10 -27 -25q-15 -13 -28.5 -27t-25.5 -23.5t-24 -11t-24 9.5q-21 21 -5.5 49.5t46.5 59.5l65 64q34 32 50 58q4 3 7 1.5t5 1.5 q28 -20 31.5 -43t-1.5 -47z" />
<glyph unicode="&#xfb;" horiz-adv-x="494" d="M447 382q10 -53 18.5 -105t-0.5 -103q-9 -63 -47 -109.5t-92 -68.5t-116.5 -16t-120.5 50q-23 30 -42 75t-29 96.5t-8.5 105.5t20.5 101q27 4 46 -1t32.5 -14.5t23.5 -22.5l21 -28q-2 -30 -5.5 -65t-2 -66t11.5 -54t36 -29q17 -4 42.5 6.5t49.5 29t42.5 42t21.5 46.5 q3 24 -3 44.5t-13.5 39.5t-12 38t1.5 40q15 11 32 10t33.5 -8.5t31.5 -17.5t28 -16zM202 663l-16 -22l-12 -15q-6 -7 -12 -16t-13 -25q-5 -11 -6 -20t-2.5 -16.5t-5 -12.5t-13.5 -7q-14 -2 -25 6t-18 20t-10.5 26t-2.5 24q0 11 11.5 27.5t20.5 32.5l18 33l14 24l14 24 q7 13 16 34q16 9 31 -2t23 -30.5t6.5 -43.5t-18.5 -41zM364 707q5 -17 7 -27t4 -18.5t5.5 -18.5t11.5 -26q5 -11 11.5 -17.5t11.5 -12t6.5 -11.5t-3.5 -15q-7 -12 -20 -16t-27 -1.5t-27 8.5t-20 13q-9 7 -14.5 26t-12.5 36l-13 35q-5 14 -10 26.5t-11 26t-16 33.5 q3 18 21 23t38.5 -1.5t37.5 -22.5t20 -40z" />
<glyph unicode="&#xfc;" horiz-adv-x="494" d="M447 382q10 -53 18.5 -105t-0.5 -103q-9 -63 -47 -109.5t-92 -68.5t-116.5 -16t-120.5 50q-23 30 -42 75t-29 96.5t-8.5 105.5t20.5 101q27 4 46 -1t32.5 -14.5t23.5 -22.5l21 -28q-2 -30 -5.5 -65t-2 -66t11.5 -54t36 -29q17 -4 42.5 6.5t49.5 29t42.5 42t21.5 46.5 q3 24 -3 44.5t-13.5 39.5t-12 38t1.5 40q15 11 32 10t33.5 -8.5t31.5 -17.5t28 -16zM108 746q12 5 23.5 11t23 9t23.5 2t25 -8q15 -10 21 -27t6.5 -36.5t-2 -39t-5.5 -35.5q-14 -19 -30.5 -23t-33 2.5t-30.5 21.5t-22 35t-8.5 43t9.5 45zM381 623q-13 -5 -24.5 -10 t-23.5 -7.5t-23.5 -1.5t-24.5 9q-15 11 -20 28t-4.5 36.5t4.5 39.5l7 35q22 27 48.5 22t45.5 -27.5t25.5 -57t-10.5 -66.5z" />
<glyph unicode="&#xfd;" horiz-adv-x="523" d="M227 71q-29 16 -54.5 36t-48.5 42l-48 44q-23 22 -49 42q-2 16 -6 33t-7.5 34t-4 34t5.5 34q22 3 37.5 0t27.5 -9t22 -14t22 -14q18 -35 43.5 -60.5t54.5 -48.5q20 -23 38 -14.5t35 31.5q13 15 23 32.5t19 36.5l17 38q9 18 20 34q15 9 35.5 5t39.5 -16.5t32.5 -31 t13.5 -37.5q2 -27 -13 -43t-29 -35q-23 -34 -45 -74t-41 -85q-28 -72 -51 -142t-52 -138q-14 -33 -24.5 -63.5t-19.5 -62t-16 -66t-13 -76.5q-1 -11 -0.5 -36.5t-3 -51.5t-14.5 -45.5t-36 -18.5q-23 0 -37 22.5t-22 55.5t-9.5 69.5t1.5 65.5q7 67 26.5 132t43.5 128l47 120 q24 59 40 113zM385 669q-11 -15 -22 -25l-23 -21l-24 -21q-12 -10 -27 -25q-15 -13 -28.5 -27t-25.5 -23.5t-24 -11t-24 9.5q-21 21 -5.5 49.5t46.5 59.5l65 64q34 32 50 58q4 3 7 1.5t5 1.5q28 -20 31.5 -43t-1.5 -47z" />
<glyph unicode="&#xff;" horiz-adv-x="523" d="M227 71q-29 16 -54.5 36t-48.5 42l-48 44q-23 22 -49 42q-2 16 -6 33t-7.5 34t-4 34t5.5 34q22 3 37.5 0t27.5 -9t22 -14t22 -14q18 -35 43.5 -60.5t54.5 -48.5q20 -23 38 -14.5t35 31.5q13 15 23 32.5t19 36.5l17 38q9 18 20 34q15 9 35.5 5t39.5 -16.5t32.5 -31 t13.5 -37.5q2 -27 -13 -43t-29 -35q-23 -34 -45 -74t-41 -85q-28 -72 -51 -142t-52 -138q-14 -33 -24.5 -63.5t-19.5 -62t-16 -66t-13 -76.5q-1 -11 -0.5 -36.5t-3 -51.5t-14.5 -45.5t-36 -18.5q-23 0 -37 22.5t-22 55.5t-9.5 69.5t1.5 65.5q7 67 26.5 132t43.5 128l47 120 q24 59 40 113zM123 746q12 5 23.5 11t23 9t23.5 2t25 -8q15 -10 21 -27t6.5 -36.5t-2 -39t-5.5 -35.5q-14 -19 -30.5 -23t-33 2.5t-30.5 21.5t-22 35t-8.5 43t9.5 45zM396 623q-13 -5 -24.5 -10t-23.5 -7.5t-23.5 -1.5t-24.5 9q-15 11 -20 28t-4.5 36.5t4.5 39.5l7 35 q22 27 48.5 22t45.5 -27.5t25.5 -57t-10.5 -66.5z" />
<glyph unicode="&#x152;" horiz-adv-x="1298" d="M331 755q48 8 86.5 -8t69.5 -46.5t55 -69.5t43 -78q16 -33 32.5 -76.5t24 -91.5t3.5 -97.5t-28 -95.5q-11 -20 -34.5 -46.5t-56.5 -52.5t-72.5 -50t-82.5 -40t-87 -20.5t-85 7.5q-22 6 -40.5 19.5t-34.5 30.5t-28.5 37t-22.5 39q-26 46 -42.5 105.5t-19.5 122t11.5 123.5 t50.5 111q13 18 26 31.5t28.5 25.5t34.5 24l43 27q19 12 33.5 23t28 20t28.5 16t36 10zM338 521q-16 8 -27 20t-29 18q-4 -8 -9 -9.5t-10.5 -1t-12 0.5t-13.5 -3q-36 -15 -60 -52t-35.5 -83.5t-10.5 -97.5t16 -93.5t43.5 -71.5t72.5 -32q32 -2 76 16.5t85.5 49t72.5 68.5 t37 74q7 45 1 82.5t-21.5 70t-38 60.5t-47.5 54q-4 7 -14 6q-7 -31 -27.5 -48t-48.5 -28zM892 598q-28 15 -60 13t-64.5 -16t-63 -37t-56 -50t-44 -55t-26.5 -51q8 -7 28.5 -7.5t44.5 0.5t48 1t39 -7q22 -24 31 -61q-12 -20 -33 -31t-48 -16.5t-58 -6.5t-64 -1 q-3 -31 4.5 -59.5t21 -52t33 -40.5t40.5 -26q1 -1 7 -3t13 -4t13.5 -3.5t8.5 -1.5q21 0 42 10t41 22t39 21.5t38 7.5q15 -2 26.5 -10.5t20.5 -20t16 -23.5l11 -20q-18 -25 -44.5 -47t-59.5 -37t-72 -19.5t-82 5.5q-39 9 -72.5 31.5t-61.5 51t-51 59.5l-43 54 q-30 89 -26.5 167t31 142.5t74.5 115t106 86.5q24 14 57 29.5t70 24.5t75.5 7.5t74.5 -19.5q15 -8 39 -29.5t43 -50.5t24.5 -61.5t-15.5 -61.5q-6 -8 -15.5 -11t-20 -4t-19 0.5t-12.5 3.5q-26 11 -36 36t-13 55z" />
<glyph unicode="&#x153;" horiz-adv-x="860" d="M803 269q-9 -2 -16 -1l-13 4l-13.5 2t-15.5 0q-3 20 -13 32.5t-18 26.5q-39 -13 -65 -38.5t-46 -56.5q23 -3 38.5 -20t18.5 -36.5t-10 -34.5t-47 -14q1 -12 7.5 -20t15.5 -12.5t18 -7t17 -2.5q17 -2 33 4.5t31.5 13.5t31 10.5t30.5 -3.5q9 -3 13 -9.5t7 -15t6 -16 t11 -11.5q-13 -20 -28 -40t-35 -28q-31 -13 -60.5 -11.5t-56.5 11t-51 24.5t-43 30q-20 12 -35 34t-23 38q-24 51 -16.5 103.5t35 96t69.5 74t86 37.5q29 5 55 -1l55 -14q15 -12 29 -30.5t21 -39t3 -41.5t-26 -38zM128 405q6 1 22.5 2.5t37 2.5t40 1.5t30.5 -1.5 q8 -2 23 -10.5t31 -20t30 -23.5l23 -19q8 -9 18.5 -22t20.5 -28.5t18 -31.5t10 -29q8 -45 -2 -75.5t-32 -55.5q-22 -24 -58 -47t-78 -36t-86.5 -12.5t-81.5 23.5q-30 18 -51.5 55t-30.5 82t-5 92t24 85q14 26 36 44t61 24zM223 259q-12 12 -25.5 16.5t-25 3t-20 -9.5 t-11.5 -21q-1 -2 -4 -3.5t-4 -3.5q-5 -21 -3.5 -41.5t9.5 -36.5t22 -26t34 -10q17 0 38 6.5t38.5 18.5t28.5 28.5t8 36.5q-3 19 -20.5 29.5t-32.5 23.5q-9 -2 -15 -6t-17 -5z" />
<glyph unicode="&#x178;" horiz-adv-x="447" d="M228 472l-108 74q-55 36 -100 83q1 12 -3.5 28.5t-6.5 32.5t2 29t23 18q14 3 29.5 -5t31 -21.5t30 -29t27.5 -25.5q13 -11 28 -18.5t32 -18.5l32 -25q15 -11 32 -8q18 3 31.5 21.5t24.5 43.5t19 51t16 44l6 10q4 6 11 8q18 -1 35 -6t31 -13t23.5 -20t12.5 -27 q2 -15 -8.5 -40.5t-25.5 -51.5t-30 -49t-22 -35q-33 -53 -64.5 -98t-59.5 -101q-2 -6 -4 -10.5t-5 -10.5q-4 -6 -6.5 -11.5t-5.5 -11.5q-11 -22 -19 -45t-19 -45l-25 -55q-12 -26 -21.5 -51.5t-17 -54.5t-11.5 -65q-1 -12 -6.5 -36.5t-16.5 -47t-27.5 -37t-40.5 -8.5 q-19 5 -27.5 27t-10 50t2 57t8.5 48q13 51 37 103.5t43 100.5q31 72 61 134.5t62 117.5zM85 946q12 5 23.5 11t23 9t23.5 2t25 -8q15 -10 21 -27t6.5 -36.5t-2 -39t-5.5 -35.5q-14 -19 -30.5 -23t-33 2.5t-30.5 21.5t-22 35t-8.5 43t9.5 45zM358 823q-13 -5 -24.5 -10 t-23.5 -7.5t-23.5 -1.5t-24.5 9q-15 11 -20 28t-4.5 36.5t4.5 39.5l7 35q22 27 48.5 22t45.5 -27.5t25.5 -57t-10.5 -66.5z" />
<glyph unicode="&#x2c6;" horiz-adv-x="407" d="M153 663q-10 -14 -17 -22l-12 -15l-11 -16t-13 -25q-5 -11 -6 -20t-2.5 -16.5t-5 -12.5t-13.5 -7q-14 -2 -25 6t-18 20t-10.5 26t-2.5 24q0 11 11.5 27.5t20.5 32.5q11 20 19 33l14 24l13 24q7 13 16 34q16 9 31 -2t23 -30.5t6.5 -43.5t-18.5 -41zM315 707q5 -17 7 -27 t4 -18.5t5.5 -18.5t11.5 -26q5 -11 11.5 -17.5t11.5 -12t6.5 -11.5t-3.5 -15q-7 -12 -20 -16t-27 -1.5t-27 8.5t-20 13q-9 7 -14.5 26t-12.5 36l-13 35q-5 14 -10 26.5t-11 26t-16 33.5q3 18 21 23t38.5 -1.5t37.5 -22.5t20 -40z" />
<glyph unicode="&#x2dc;" horiz-adv-x="500" d="M483 573q-2 -14 -9.5 -22t-18 -13.5t-22.5 -8.5t-21 -6q-50 -10 -95 1.5t-90 27.5l-54 25q-25 12 -50 9q-13 -1 -22.5 -9t-18.5 -16.5t-18.5 -15t-21.5 -5.5q-20 1 -26 14t-3 29t12.5 31.5t20.5 22.5q13 8 32.5 14.5t27.5 6.5q28 3 53 -6t50.5 -22.5t53.5 -26.5t61 -17 q27 -3 50.5 1.5t43.5 7.5t36.5 0t28.5 -22z" />
<glyph unicode="&#x2013;" horiz-adv-x="436" d="M419 262q-7 -4 -4.5 -12.5t-4.5 -19.5q-8 -8 -14.5 -12t-15.5 -5.5t-21.5 -1t-32.5 0.5q-78 -3 -147.5 -7t-130.5 3q-3 7 -8.5 14t-9 14.5t-4.5 16t4 18.5q14 17 37.5 19.5t43.5 2.5q34 3 61 3.5t52.5 0.5t51.5 1t58 4q12 1 25.5 1t25.5 -4.5t21.5 -13t12.5 -23.5z" />
<glyph unicode="&#x2014;" horiz-adv-x="547" d="M523 262q-7 -4 -4.5 -12.5t-4.5 -19.5q-8 -8 -14.5 -12t-15.5 -5.5t-21.5 -1t-32.5 0.5q-39 -2 -92 -4t-107.5 -3t-103.5 -0.5t-79 3.5q-3 7 -8.5 14t-9 14.5t-4.5 16t4 18.5q14 17 37.5 19.5t43.5 2.5q34 3 77 3.5t88 0.5t87.5 1t74.5 4q12 1 25.5 1t25.5 -4.5t21.5 -13 t12.5 -23.5z" />
<glyph unicode="&#x2018;" horiz-adv-x="170" d="M144 692q-2 -16 -11 -28.5t-14 -26.5q-6 -26 -4 -51t8 -48t13.5 -45.5t11.5 -44.5q-19 -12 -39 -3t-31 22q-19 19 -29 51.5t-12 70.5t2.5 77.5t15.5 73.5q16 10 30 8.5t25 -10t19.5 -21.5t14.5 -25z" />
<glyph unicode="&#x2019;" horiz-adv-x="147" d="M100 491q-16 -4 -28.5 -3.5t-27.5 7.5q-5 20 -3.5 40.5t4.5 40.5l6 40q3 19 2 38q-1 14 -6 26l-9 24q-4 11 -7 23t-3 25q7 10 17.5 11.5t21 -1.5t19 -8t12.5 -9q18 -17 24.5 -51t4.5 -72t-10 -74t-17 -57z" />
<glyph unicode="&#x201c;" horiz-adv-x="321" d="M137 734q4 -17 -6.5 -34t-14.5 -37q-4 -16 -6.5 -36t-3.5 -40t0.5 -38t6.5 -30q4 -12 13 -19l16 -13q8 -6 13 -12.5t2 -18.5q-4 -18 -19 -20.5t-32 -0.5q-24 3 -40 24.5t-25.5 53.5t-11.5 70.5t1.5 75.5t12.5 68.5t23 49.5q26 -4 42.5 -15.5t28.5 -27.5zM281 715 q1 -11 -5.5 -19t-15 -15t-16.5 -15t-11 -19q-7 -26 1 -50l15 -49q11 -12 26 -21t19 -28q-13 -5 -24 -23q-35 -2 -60.5 18.5t-40 52.5t-18.5 69.5t4 70t28 54.5t53 23q10 -14 23.5 -23.5t21.5 -25.5z" />
<glyph unicode="&#x201d;" horiz-adv-x="329" d="M177 773q13 10 28 10t29 -7t25.5 -17t17.5 -19q8 -13 15 -36.5t11.5 -51.5t5 -56.5t-3.5 -51.5q-2 -12 -8.5 -26.5t-15 -28t-17.5 -23t-16 -10.5q-24 -3 -39.5 14.5t-16.5 40.5q0 14 4 27l10 25l10 26q5 13 6 28q1 27 -5.5 46t-15 35.5t-16 33.5t-8.5 41zM48 765 q12 7 23 6t21 -6t20 -12.5t20 -11.5q-3 -4 -1.5 -7.5t4.5 -6.5t6.5 -5.5t4.5 -4.5q9 -23 12 -60t-0.5 -73t-13.5 -64t-26 -33q-12 -3 -23 3.5t-20 18.5t-14 26.5t-5 28.5q0 9 2.5 18.5t6 18.5t6.5 18.5t4 19.5q0 19 -5 35t-10.5 30.5t-9.5 29t-2 31.5z" />
<glyph unicode="&#x2022;" horiz-adv-x="323" d="M247 195q-26 -6 -50 -12.5t-47 -8.5t-45.5 3.5t-44.5 24.5q-26 24 -31.5 58.5t0 72t17.5 74t23 66.5q33 30 66.5 32.5t62.5 -15.5t50.5 -51.5t30.5 -75t2.5 -85.5t-34.5 -83z" />
<glyph unicode="&#x2026;" horiz-adv-x="543" d="M35 107q12 5 23.5 11t23 9t23.5 2t25 -8q15 -10 21 -27t6.5 -36.5t-2 -39t-5.5 -35.5q-14 -19 -30.5 -23t-33 2.5t-30.5 21.5t-22 35t-9 43t10 45zM216 107q12 5 23.5 11t23 9t23.5 2t25 -8q15 -10 21 -27t6.5 -36.5t-2 -39t-5.5 -35.5q-14 -19 -30.5 -23t-33 2.5 t-30.5 21.5t-22 35t-8.5 43t9.5 45zM397 107q12 5 23.5 11t23 9t23.5 2t25 -8q15 -10 21 -27t6.5 -36.5t-2 -39t-5.5 -35.5q-14 -19 -30.5 -23t-33 2.5t-30.5 21.5t-22 35t-8.5 43t9.5 45z" />
<glyph unicode="&#x2039;" horiz-adv-x="538" d="M437 537q-76 -39 -143 -87.5t-130 -107.5q11 -12 23.5 -20t25.5 -15l27 -14q13 -7 27 -17q14 -5 24.5 -13.5t24.5 -18.5l32 -22l30 -22l34 -24l42 -30l27 -19q13 -9 23 -18.5t16 -20.5t6 -25q-1 -9 -7.5 -19.5t-18 -17.5t-26 -8.5t-30.5 6.5q-19 5 -26.5 21.5t-21.5 34.5 q-23 20 -60 41t-79 50l-71 50q-36 25 -68 35q-7 3 -15.5 4t-18 1.5t-18.5 2.5t-16 7q-9 5 -15.5 16t-10 24t-4 26t2.5 22q2 7 11 15.5t20 17.5t24 18l22 15q57 45 111 92t117 92l30 15q13 7 24.5 11.5t23.5 7.5t29 5q13 0 26.5 -6.5t23.5 -16.5t16 -21t6 -20 q0 -23 -20.5 -31t-49.5 -16z" />
<glyph unicode="&#x203a;" horiz-adv-x="664" d="M64 91q103 55 199.5 115.5t181.5 132.5q-48 33 -103 59l-110 51q-55 25 -107.5 52t-95.5 62q3 10 1.5 19.5t-2.5 18.5t-1 16.5t6 12.5q21 12 42 9.5t42.5 -12.5t43.5 -25t44 -28q24 -14 55 -30l62 -30l64 -32l59 -28q15 -12 33 -19.5t34 -18.5q14 -6 36 -14.5t41.5 -19.5 t32.5 -26t9 -34q0 -10 -9 -18.5t-22.5 -16t-29 -14.5t-28.5 -14q-36 -23 -75 -53.5t-85 -56.5q-43 -29 -85.5 -52.5t-74.5 -46.5q-14 -10 -26.5 -22t-26.5 -21.5t-31.5 -13.5t-40.5 2q-23 7 -32 34.5t-1 61.5z" />
<glyph unicode="&#x20ac;" horiz-adv-x="687" d="M350 628q32 26 63.5 31t62 -5t58.5 -33t53 -53q38 -45 57.5 -103.5t20.5 -121t-17 -124.5t-55 -114q-44 -59 -100.5 -94.5t-119 -43.5t-125.5 13.5t-120 75.5q-29 28 -54 64.5t-40.5 82.5t-19.5 102.5t10 124.5q3 18 9 41t13.5 46.5t16 45.5t17.5 39q11 19 25 32l29 26 q15 13 30.5 28t29.5 38q54 -5 91 -32.5t65 -65.5zM160 205q16 -28 43.5 -46t60.5 -26t68 -6.5t65 13.5q-30 39 -54 86t-46 96l-43 98q-22 49 -47 92q-20 -35 -36 -74.5t-24.5 -80t-6.5 -79.5t20 -73zM475 205q27 16 45.5 45t26.5 65t4 74.5t-22 72.5q-21 22 -43.5 26.5 t-46.5 4.5t-48 1t-48 18l28 -83q13 -42 28 -82.5t33.5 -76.5t42.5 -65zM586 392q-8 -10 -18 -15t-22 -7t-25 -3l-28 -2q-37 -5 -77.5 -7.5t-82.5 -3.5t-84 0t-81 3q-4 9 -11.5 17t-13.5 16t-9 18t2 24q3 10 22 15.5t47 8t62 2.5t67.5 -0.5t63.5 -0.5t50 2q25 1 54.5 -0.5 t52 -8.5t33 -20.5t-1.5 -37.5zM85 288q7 6 16 7.5t18.5 1t20 -2t19.5 0.5q32 1 64 4.5t65 7.5t69.5 6t77.5 0q14 -1 31.5 -1.5t32 -5t23 -13.5t3.5 -27q-1 -10 -14 -17.5t-32 -13.5t-39 -11l-34 -7q-27 -4 -63.5 -4.5t-78.5 -6.5q-32 -6 -66.5 -11t-61.5 0.5t-42 26t-9 66.5 z" />
<glyph unicode="&#x2122;" horiz-adv-x="1526" d="M1535 61q4 -15 9 -27l11 -24q5 -11 8 -20.5t2 -19.5q-2 -24 -19 -40.5t-35 -14.5q-15 1 -30 20.5t-27.5 45t-21.5 51.5t-13 41q-9 39 -13.5 78t-7.5 77l-6 76q-3 37 -9 73q-9 2 -15 -4.5t-11 -15.5q-17 -49 -35.5 -80t-32.5 -49l-9 -9q-4 -4 -10 -8q-5 -5 -8.5 -8 t-6.5 -5q-4 -3 -6 -3q-52 22 -98 50t-88 59.5t-82 65.5l-80 68q2 -27 0 -61t-4.5 -72.5t-3.5 -81.5t2 -89q2 -24 6 -49t3.5 -46t-9 -35t-30.5 -16q-28 -2 -45.5 23t-27 62.5t-13.5 80.5t-6 77q-2 52 1.5 108.5t-1.5 110.5q-5 64 -22.5 126t-31.5 119v12q33 11 58.5 3.5 t45 -24.5t35.5 -40l31 -42q57 -75 131 -142t162 -115q35 29 62 69l52 80l38 70l30 51q14 24 19 29q19 6 37 4.5t34 -8t29 -17t22 -21.5q-7 -59 -9.5 -129.5t1 -143.5t12.5 -143t26 -127zM732 688q2 -17 0 -30t-6.5 -23.5t-10.5 -19.5t-12 -19q-16 -9 -29 -6.5t-26 8.5 l-24 14q-13 7 -28 8q-48 2 -76 -2t-53 -10.5t-55.5 -13.5t-82.5 -11q9 -15 28 -23l39 -15q21 -8 38 -21.5t23 -40.5q6 -26 4 -62t-5.5 -77.5t-6.5 -86.5t1 -87q1 -17 6 -36.5t10.5 -38t9.5 -33.5t3 -22q-2 -12 -8 -21t-13 -17l-14 -15q-6 -7 -8 -15q-41 -8 -78.5 6t-50.5 47 q-5 12 -4 24t3 25.5t5 27.5t3 30q0 45 -3.5 97.5t-8 104.5t-7.5 100.5t-2 86.5q5 16 14.5 27t14.5 26q-20 3 -44.5 0t-50.5 -8l-52 -11q-26 -5 -50.5 -5t-45.5 7t-36 26q-8 9 -14.5 26t-9 37t0.5 39.5t16 33.5q58 -3 119.5 6t123.5 21t123.5 21.5t119.5 7t111 -22t99 -64.5z " />
<glyph unicode="&#xe000;" horiz-adv-x="455" d="M0 455h455v-455h-455v455z" />
<glyph unicode="&#xfb01;" horiz-adv-x="653" d="M349 470q-17 21 -31 47t-17 61q-43 12 -70 1t-41.5 -36.5t-17 -60.5t4 -71.5t20.5 -70t33 -54.5q26 1 51 -3t45 -13t32.5 -22.5t12.5 -31.5q-14 -29 -34.5 -35.5t-62.5 -2.5q0 -23 4 -42t9.5 -36.5t10.5 -35t8 -37.5q-14 -20 -30.5 -30.5t-39.5 -7.5q-24 3 -37.5 22 t-21 45t-10.5 53t-7 47q-59 -12 -98 9.5t-48 72.5q11 25 40.5 29.5t67.5 2.5q-18 39 -36 85t-27.5 92.5t-5.5 90t31 78.5q3 4 13 13.5t23 20.5l25 19q12 9 20 12q28 13 59.5 14.5t61.5 -6t56.5 -22.5t44.5 -35q16 -17 28.5 -44t12.5 -53.5t-17 -45.5t-62 -19zM538 444 q-15 -9 -32 -18t-34.5 -13.5t-35.5 -2.5t-34 14q-11 7 -19 20t-13.5 28t-8 28t-1.5 19q5 21 20.5 31t36 10t43 -8t40.5 -23.5t29 -37t9 -47.5zM538 21q-8 -9 -14.5 -18.5t-13.5 -17.5t-15.5 -13t-18.5 -6q-25 -2 -42.5 10.5t-29.5 34t-19 50.5t-10 59.5t-3 59.5t2 52 q39 11 66 8t44 -17t27 -36.5t15 -49.5t7 -57t5 -59z" />
<glyph unicode="&#xfb02;" horiz-adv-x="625" d="M349 470q-17 21 -31 47t-17 61q-43 12 -70 1t-41.5 -36.5t-17 -60.5t4 -71.5t20.5 -70t33 -54.5q26 1 51 -3t45 -13t32.5 -22.5t12.5 -31.5q-14 -29 -34.5 -35.5t-62.5 -2.5q0 -23 4 -42t9.5 -36.5t10.5 -35t8 -37.5q-14 -20 -30.5 -30.5t-39.5 -7.5q-24 3 -37.5 22 t-21 45t-10.5 53t-7 47q-59 -12 -98 9.5t-48 72.5q11 25 40.5 29.5t67.5 2.5q-18 39 -36 85t-27.5 92.5t-5.5 90t31 78.5q3 4 13 13.5t23 20.5l25 19q12 9 20 12q28 13 59.5 14.5t61.5 -6t56.5 -22.5t44.5 -35q16 -17 28.5 -44t12.5 -53.5t-17 -45.5t-62 -19zM492 261 q3 -71 12 -133t16 -127q-10 -8 -22.5 -13.5t-26 -7t-27 2t-24.5 12.5q-4 13 -6 29t-6 29q-9 80 -14 161t-7 148q-3 77 -5 149q2 28 -0.5 50t-4.5 41.5t-1 38t10 39.5q15 5 26.5 4t22 -5.5t20.5 -10.5t23 -10q10 -35 12.5 -83.5t2 -102.5t-2 -108.5t1.5 -102.5z" />
<glyph unicode="&#xfb03;" horiz-adv-x="1057" d="M1026 555q-17 -11 -37 -21.5t-40.5 -15.5t-41.5 -3t-40 16q-12 8 -21.5 23.5t-16 33t-9.5 32.5t-1 22q5 25 23 36.5t42 11.5t50.5 -9.5t47.5 -27.5t34 -43t10 -55zM1026 62q-9 -11 -16.5 -22t-16 -20t-18 -15t-21.5 -7q-29 -3 -49.5 11.5t-34.5 40t-22 59t-11.5 69 t-3.5 69.5t2 61q45 13 76.5 9t51.5 -20t31.5 -42.5t17.5 -58t8.5 -66.5t5.5 -68zM753 470q-17 21 -31 47t-17 61q-43 12 -70 1t-41.5 -36.5t-17 -60.5t4 -71.5t20.5 -70t33 -54.5q26 1 51 -3t45 -13t32.5 -22.5t12.5 -31.5q-14 -29 -34.5 -35.5t-62.5 -2.5q0 -23 4 -42 t9.5 -36.5t10.5 -35t8 -37.5q-14 -20 -30.5 -30.5t-39.5 -7.5q-24 3 -37.5 22t-21 45t-10.5 53t-7 47q-59 -12 -98 9.5t-48 72.5q11 25 40.5 29.5t67.5 2.5q-18 39 -36 85t-27.5 92.5t-5.5 90t31 78.5q3 4 13 13.5t23 20.5l25 19q12 9 20 12q28 13 59.5 14.5t61.5 -6 t56.5 -22.5t44.5 -35q16 -17 28.5 -44t12.5 -53.5t-17 -45.5t-62 -19zM349 470q-17 21 -31 47t-17 61q-43 12 -70 1t-41.5 -36.5t-17 -60.5t4 -71.5t20.5 -70t33 -54.5q26 1 51 -3t45 -13t32.5 -22.5t12.5 -31.5q-14 -29 -34.5 -35.5t-62.5 -2.5q0 -23 4 -42t9.5 -36.5 t10.5 -35t8 -37.5q-14 -20 -30.5 -30.5t-39.5 -7.5q-24 3 -37.5 22t-21 45t-10.5 53t-7 47q-59 -12 -98 9.5t-48 72.5q11 25 40.5 29.5t67.5 2.5q-18 39 -36 85t-27.5 92.5t-5.5 90t31 78.5q3 4 13 13.5t23 20.5l25 19q12 9 20 12q28 13 59.5 14.5t61.5 -6t56.5 -22.5 t44.5 -35q16 -17 28.5 -44t12.5 -53.5t-17 -45.5t-62 -19z" />
<glyph unicode="&#xfb04;" horiz-adv-x="1029" d="M970 281q4 -75 15 -140.5t19 -134.5q-12 -8 -27 -14t-31.5 -7.5t-32.5 2t-29 13.5q-5 14 -7.5 30.5t-7.5 30.5q-10 85 -16 170.5t-9 155.5q-4 82 -6 158q2 29 -1 52.5t-5 44t-1 40t12 41.5q18 5 32 4t26.5 -5.5t24.5 -11t27 -10.5q12 -37 15 -88.5t2.5 -108.5t-2 -114.5 t1.5 -107.5zM753 470q-17 21 -31 47t-17 61q-43 12 -70 1t-41.5 -36.5t-17 -60.5t4 -71.5t20.5 -70t33 -54.5q26 1 51 -3t45 -13t32.5 -22.5t12.5 -31.5q-14 -29 -34.5 -35.5t-62.5 -2.5q0 -23 4 -42t9.5 -36.5t10.5 -35t8 -37.5q-14 -20 -30.5 -30.5t-39.5 -7.5 q-24 3 -37.5 22t-21 45t-10.5 53t-7 47q-59 -12 -98 9.5t-48 72.5q11 25 40.5 29.5t67.5 2.5q-18 39 -36 85t-27.5 92.5t-5.5 90t31 78.5q3 4 13 13.5t23 20.5l25 19q12 9 20 12q28 13 59.5 14.5t61.5 -6t56.5 -22.5t44.5 -35q16 -17 28.5 -44t12.5 -53.5t-17 -45.5t-62 -19 zM349 470q-17 21 -31 47t-17 61q-43 12 -70 1t-41.5 -36.5t-17 -60.5t4 -71.5t20.5 -70t33 -54.5q26 1 51 -3t45 -13t32.5 -22.5t12.5 -31.5q-14 -29 -34.5 -35.5t-62.5 -2.5q0 -23 4 -42t9.5 -36.5t10.5 -35t8 -37.5q-14 -20 -30.5 -30.5t-39.5 -7.5q-24 3 -37.5 22t-21 45 t-10.5 53t-7 47q-59 -12 -98 9.5t-48 72.5q11 25 40.5 29.5t67.5 2.5q-18 39 -36 85t-27.5 92.5t-5.5 90t31 78.5q3 4 13 13.5t23 20.5l25 19q12 9 20 12q28 13 59.5 14.5t61.5 -6t56.5 -22.5t44.5 -35q16 -17 28.5 -44t12.5 -53.5t-17 -45.5t-62 -19z" />
</font>
</defs>
</svg>
